<svg width="38" height="39" viewBox="0 0 38 39" fill="none" xmlns="http://www.w3.org/2000/svg">
<rect y="0.0820312" width="38" height="38" rx="19" fill="#414141"/>
<g clip-path="url(#clip0_2199_55323)">
<path fill-rule="evenodd" clip-rule="evenodd" d="M24.7962 22.0413H23.5416V19.1348C23.5416 18.4656 23.1623 18.1059 22.5789 18.1059C21.9273 18.1059 21.5092 18.5153 21.5092 19.3443V22.0413H20.2545V14.9322H21.5092V17.6064C21.8106 17.137 22.2968 16.9074 22.9581 16.9074C23.4931 16.9074 23.9307 17.0871 24.271 17.4565C24.6211 17.8262 24.7962 18.3255 24.7962 18.9749V22.0413ZM15.7751 20.8286C16.7007 20.8286 17.4924 20.2596 17.7302 19.3804H19.0994C18.7646 21.0724 17.4828 22.1812 15.7751 22.1812C13.7907 22.1812 12.2173 20.6612 12.2173 18.5456C12.2173 16.4299 13.7907 14.9099 15.7751 14.9099C17.4999 14.9099 18.7908 16.041 19.1095 17.762H17.7443C17.5367 16.8262 16.7181 16.2431 15.7751 16.2431C14.4408 16.2431 13.5534 17.2207 13.5534 18.5456C13.5534 19.8705 14.5624 20.8286 15.7751 20.8286ZM18.9405 9.58594C13.7261 9.58594 9.49902 13.6017 9.49902 18.5556C9.49902 22.2143 10.9909 23.9608 13.0343 25.5531L13.0441 25.5574V29.851C13.0441 30.0536 13.269 30.1698 13.4274 30.049L17.0077 27.3173L17.0849 27.3516C17.6849 27.4652 18.3054 27.5253 18.9405 27.5253C24.1551 27.5253 28.3822 23.5094 28.3822 18.5556C28.3822 13.6017 24.1551 9.58594 18.9405 9.58594Z" fill="#C1C1C1"/>
</g>
<defs>
<clipPath id="clip0_2199_55323">
<rect width="38" height="38" fill="white" transform="translate(-0.000976562 0.0820312)"/>
</clipPath>
</defs>
</svg>
