<svg width="100" height="50" viewBox="0 0 100 50" fill="none" xmlns="http://www.w3.org/2000/svg">
<g clip-path="url(#clip0_1707_12560)">
<path d="M3.38752 39.192H0V10.74L3.38752 10V39.192ZM12.4475 18.5458L15.0952 20.4609L8.58124 28.6367L16.1324 37.6903L13.5138 39.7143L4.60616 28.8181L12.4475 18.5458Z" fill="white"/>
<path d="M20.7114 33.976C20.7114 31.9375 21.3932 30.385 22.7569 29.3186C24.1206 28.2522 26.1009 27.7154 28.6978 27.7154H32.6003V26.4314C32.6003 23.3119 31.2221 21.7522 28.4729 21.7522C27.588 21.7522 26.6667 21.8756 25.6947 22.1222C24.7227 22.3689 23.8377 22.6735 23.0253 23.0435L22.0315 20.6496C23.0398 20.0837 24.1206 19.6484 25.2885 19.3438C26.4564 19.0391 27.588 18.8867 28.6905 18.8867C33.4563 18.8867 35.8355 21.4258 35.8355 26.5039V39.3878H33.333L32.9268 37.1752C31.9185 37.9877 30.8449 38.6116 29.7061 39.0541C28.5672 39.4967 27.4791 39.7143 26.4491 39.7143C24.6574 39.7143 23.2574 39.2065 22.2347 38.1836C21.2191 37.1607 20.7041 35.7606 20.7041 33.9687M27.0729 36.9939C27.5372 36.9939 28.0159 36.9358 28.5237 36.8125C29.0242 36.6892 29.5247 36.5296 30.0252 36.3337C30.5257 36.1378 30.9972 35.8984 31.4397 35.6155C31.8822 35.3326 32.2739 35.0352 32.6148 34.716V30.0006H29.0967C27.3123 30.0006 26.0139 30.3052 25.1942 30.9219C24.3745 31.5385 23.9683 32.5033 23.9683 33.8309C23.9683 35.942 25.0056 36.9939 27.0874 36.9939" fill="white"/>
<path d="M43.7943 39.192H40.4067V10.74L43.7943 10V39.192ZM52.847 18.5458L55.4946 20.4609L48.9807 28.6367L56.5247 37.6903L53.9133 39.7143L45.0056 28.8181L52.847 18.5458Z" fill="white"/>
<path d="M61.0962 33.976C61.0962 31.9375 61.778 30.385 63.1345 29.3186C64.4982 28.2522 66.4785 27.7154 69.0826 27.7154H72.9852V26.4314C72.9852 23.3119 71.6142 21.7522 68.865 21.7522C67.98 21.7522 67.0588 21.8756 66.0868 22.1222C65.1148 22.3689 64.2298 22.6735 63.4174 23.0435L62.4236 20.6496C63.4319 20.0837 64.5127 19.6484 65.6806 19.3438C66.8485 19.0391 67.98 18.8867 69.0826 18.8867C73.8411 18.8867 76.2276 21.4258 76.2276 26.5039V39.3878H73.7251L73.3188 37.1752C72.3106 37.9877 71.2443 38.6116 70.0982 39.0541C68.9593 39.4967 67.8712 39.7143 66.8412 39.7143C65.0495 39.7143 63.6423 39.2065 62.6267 38.1836C61.6112 37.1607 61.1034 35.7606 61.1034 33.9687M67.4578 36.9939C67.922 36.9939 68.4008 36.9358 68.9085 36.8125C69.409 36.6892 69.9096 36.5296 70.4101 36.3337C70.9106 36.1378 71.3821 35.8984 71.8246 35.6155C72.2598 35.3326 72.6515 35.0352 72.9997 34.716V30.0006H69.4816C67.6971 30.0006 66.3915 30.3052 65.579 30.9219C64.7594 31.5385 64.3531 32.5033 64.3531 33.8309C64.3531 35.942 65.3904 36.9939 67.4723 36.9939" fill="white"/>
<path d="M89.779 18.8069C92.579 18.8069 94.7769 19.7137 96.3655 21.5273C97.9613 23.3482 98.7592 25.9453 98.7592 29.3331C98.7592 32.7209 97.9686 35.2382 96.3872 37.0301C94.8059 38.822 92.6008 39.7142 89.779 39.7142C86.9573 39.7142 84.7812 38.8147 83.1926 37.0301C81.5967 35.2382 80.7988 32.6702 80.7988 29.3331C80.7988 25.9961 81.604 23.3409 83.2071 21.5273C84.8174 19.7137 87.0081 18.8069 89.779 18.8069ZM89.779 21.5273C88.0164 21.5273 86.6599 22.1875 85.7096 23.515C84.7667 24.8426 84.2879 26.7795 84.2879 29.3331C84.2879 31.8867 84.7594 33.7728 85.7096 35.0569C86.6526 36.3409 88.0091 36.9866 89.779 36.9866C91.549 36.9866 92.9344 36.3409 93.8847 35.0569C94.8277 33.7656 95.2992 31.8577 95.2992 29.3331C95.2992 26.8086 94.8277 24.8426 93.8847 23.515C92.9344 22.1875 91.5707 21.5273 89.779 21.5273Z" fill="white"/>
</g>
<defs>
<clipPath id="clip0_1707_12560">
<rect width="98.7593" height="32" fill="white" transform="translate(0 10)"/>
</clipPath>
</defs>
</svg>
