<svg width="86" height="80" viewBox="0 0 86 80" fill="none" xmlns="http://www.w3.org/2000/svg">
<g clip-path="url(#clip0_1509_38106)">
<path d="M2.83372 0H83.163C84.7281 0 85.9967 1.2676 85.9967 2.82419V21.6609H0V2.82419C0 1.2676 1.27188 0 2.83372 0Z" fill="#00A362"/>
<path d="M0 20.4102H86V77.1763C86 78.7362 84.7281 80.0005 83.1663 80.0005H2.83372C1.26858 80.0005 0 78.7329 0 77.1763V20.4102Z" fill="#14D284"/>
<path d="M34.9832 14.0226C37.1433 14.0226 38.8944 12.2774 38.8944 10.1246C38.8944 7.97177 37.1433 6.22656 34.9832 6.22656C32.8231 6.22656 31.072 7.97177 31.072 10.1246C31.072 12.2774 32.8231 14.0226 34.9832 14.0226Z" fill="white"/>
<path d="M22.673 14.0226C24.8331 14.0226 26.5842 12.2774 26.5842 10.1246C26.5842 7.97177 24.8331 6.22656 22.673 6.22656C20.5129 6.22656 18.7618 7.97177 18.7618 10.1246C18.7618 12.2774 20.5129 14.0226 22.673 14.0226Z" fill="white"/>
<path d="M10.3628 14.0226C12.5229 14.0226 14.274 12.2774 14.274 10.1246C14.274 7.97177 12.5229 6.22656 10.3628 6.22656C8.20276 6.22656 6.45166 7.97177 6.45166 10.1246C6.45166 12.2774 8.20276 14.0226 10.3628 14.0226Z" fill="white"/>
<path d="M44.2151 41.9702C45.9853 37.5971 44.145 32.7351 40.1048 31.1107C36.0646 29.4863 31.3544 31.7146 29.5843 36.0877C27.8141 40.4608 29.6544 45.3227 33.6946 46.9471C37.7348 48.5715 42.445 46.3433 44.2151 41.9702Z" fill="white"/>
<path d="M37.0417 41.8423C38.1317 39.1495 36.9973 36.1552 34.5081 35.1544C32.0188 34.1535 29.1173 35.5252 28.0273 38.218C26.9373 40.9108 28.0716 43.9051 30.5609 44.9059C33.0501 45.9068 35.9517 44.5351 37.0417 41.8423Z" fill="black"/>
<path d="M55.9384 47.1362C57.7085 42.7631 55.8683 37.9011 51.8281 36.2767C47.7879 34.6523 43.0777 36.8806 41.3075 41.2537C39.5374 45.6268 41.3776 50.4887 45.4178 52.1131C49.458 53.7375 54.1683 51.5093 55.9384 47.1362Z" fill="white"/>
<path d="M49.1739 47.2173C50.2639 44.5245 49.1296 41.5302 46.6403 40.5294C44.1511 39.5285 41.2495 40.9002 40.1595 43.593C39.0695 46.2858 40.2039 49.2801 42.6931 50.2809C45.1824 51.2818 48.0839 49.9101 49.1739 47.2173Z" fill="black"/>
<path d="M34.1957 56.3984C39.9554 61.0288 48.3347 62.1683 55.129 59.2423" stroke="black" stroke-width="5" stroke-linecap="round" stroke-linejoin="round"/>
</g>
<defs>
<clipPath id="clip0_1509_38106">
<rect width="86" height="80" fill="white"/>
</clipPath>
</defs>
</svg>
