<svg width="51" height="61" viewBox="0 0 51 61" fill="none" xmlns="http://www.w3.org/2000/svg">
<g clip-path="url(#clip0_984_9381)">
<path d="M49.6382 9.24283L26.3223 0.732327C25.9493 0.595735 25.5429 0.595735 25.1699 0.732327L1.85399 9.24283C1.18869 9.48535 0.746094 10.1181 0.746094 10.8262V32.7728C0.746094 40.0596 2.73919 45.2975 7.92514 49.9583C11.633 53.2895 16.1648 56.6039 20.2929 59.0152C22.4781 60.2919 23.6723 60.6292 25.7461 60.6292C27.8199 60.6292 29.0141 60.2919 31.1993 59.0152C35.3274 56.6039 39.8592 53.2895 43.567 49.9583C48.7558 45.2975 50.7461 40.0568 50.7461 32.7728V10.8262C50.7461 10.1181 50.3035 9.48535 49.6382 9.24283Z" fill="#88B9FF"/>
<path d="M43.9541 14.0013L26.3224 7.56472C25.9494 7.42813 25.543 7.42813 25.17 7.56472L7.53831 14.0013C6.87302 14.2438 6.43042 14.8766 6.43042 15.5846V32.2739C6.43042 37.902 7.96978 41.9524 11.9782 45.5539C14.8426 48.1269 18.3445 50.6887 21.5345 52.5536C23.2214 53.5404 24.1456 53.7996 25.7462 53.7996C27.3468 53.7996 28.271 53.5404 29.9579 52.5536C33.1479 50.6915 36.6498 48.1297 39.5142 45.5539C43.5226 41.9524 45.062 37.9048 45.062 32.2739V15.5846C45.062 14.8766 44.6194 14.2438 43.9541 14.0013Z" fill="#2D64FF"/>
<path d="M34.5423 38.2058C34.5339 34.069 31.5888 30.8354 25.7404 30.8466C19.8724 30.8577 16.9384 34.0997 16.9468 38.2365L34.5423 38.2058Z" fill="black"/>
<path d="M25.721 29.5531C28.5075 29.5475 30.7734 27.2728 30.7678 24.4797C30.7622 21.6893 28.4908 19.4202 25.7016 19.4258C22.9151 19.4314 20.6492 21.706 20.6548 24.4992C20.6604 27.2896 22.9318 29.5587 25.721 29.5531Z" fill="black"/>
</g>
<defs>
<clipPath id="clip0_984_9381">
<rect width="50" height="60" fill="white" transform="translate(0.746094 0.62915)"/>
</clipPath>
</defs>
</svg>
