<svg width="526" height="373" fill="none" xmlns="http://www.w3.org/2000/svg"><path d="m123.284 7.485-.949 1.378-1.215.392-1.556-.746-1 1.074-1.341.026-1.088.783-.924 1.226-1.443-.278-1.48-.316-1.354.076-1.203.442-.809 1.441-1.607-.53-.545 2.009-1.316.152-1.24.366-1.556-.303-1.089.695-1.1.657-.557 1.795-1.57-.29-1.391.1-.823 1.188-.709 1.378-1.467-.038-1.215.455-1.38.152-1.037.77-.57 1.568-1.19.506-.771 1.175-1.215.455-1.645-.228-.683 1.315-1.797-.43-.519 1.53-1.62-.114-1.037.758-.734 1.2-.722 1.214-.822 1.036-.924.898-1.012.77-1.746-.214-1.14.607-.139 1.933-2.353-.948.278 2.427-1.556.101-.785 1.062-1.974-.405-.633 1.264-1.328.405-.456 1.453-.443 1.454-1.05.733-.987.809-1.57.177-.683 1.162-.683 1.138-.493 1.352-1.911-.164-.481 1.352-1.67.114-.722 1.1-.848.973.215 2.035-2.404-.582-.86.96.227 1.998-1.24.594-.72 1.074-1.317.518.101 1.833-1.506.366-.746 1.05-1.354.518-1.152.695-.734 1.074-1.088.771.709 2.25-2.227-.177-.393 1.34-.898.935.228 1.795-.912.897H33.49l.683 2.11-2.113.038.354 1.846-.595 1.137-1.012.847-.101 1.492-1.645.43-1.354.644-.102 1.466-1.354.657.962 2.11-1.227.746-1.418.645.253 1.63-1.543.582.367 1.68-.304 1.29-2.29.202-.38 1.264v1.441l-1.455.695-.494 1.2-.14 1.353-.164 1.34-.443 1.188-1.138.885-.38 1.226.734 1.706-.86 1.011-.178 1.302-.443 1.175-.632 1.112-1.14.923.051 1.378-.544 1.15-1.683.746-.253 1.276 1.152 1.744-1.506.822-.228 1.264.304 1.44-1.886.734 1.531 1.807-1.265.948-.494 1.175-.468 1.188.418 1.441-.646 1.138-.658 1.137-.088 1.289-.595 1.163.747 1.491-1.089 1.049L6.435 134l.114 1.328-1.253 1.036.215 1.34.215 1.339-.038 1.289-.215 1.252-1.544 1.011.937 1.453-1.14 1.1.38 1.34-1.05 1.137 1.088 1.441-.19 1.251-.113 1.264-1.835 1.049.91 1.403-.417 1.226.165 1.302-.228 1.251.291 1.302-1.05 1.188.784 1.34.469 1.301-1.354 1.188.48 1.302.203 1.289-.278 1.252.366 1.289-1.404 1.226.974 1.302.696 1.276-1.177 1.251 1.025 1.277-1.873 1.277 1.076 1.263-1.177 1.29 2.05 1.238-.05 1.264-.899 1.302-.873 1.302-.063 1.289.038 1.276.228 1.264 1.784 1.163-1.063 1.352 1.518 1.163-1.961 1.428 1.063 1.188-.823 1.365.76 1.201.076 1.277.784 1.188-.354 1.314.354 1.239.43 1.226-.354 1.339-.354 1.327 1.24 1.113-1.025 1.441 2.05.96-.633 1.39 1.012 1.113.367 1.226-1.278 1.516.57 1.188.088 1.277.911 1.125 1.089 1.061-.772 1.466-.076 1.315 1.67.923-1.657 1.693 2.075.809-.304 1.378-.038 1.314.734 1.125-.67 1.491-.026 1.327 1.81.835-1.127 1.63 2.253.682.025 1.315-.607 1.504 1.341.91-.304 1.428 1.393.897-.659 1.542-.354 1.467 2.012.657.316 1.226.43 1.2-.923 1.681.165 1.302.923 1.011 1.822.67-1.265 1.858 2.012.569-.367 1.517 1.557.745-.076 1.403-.81 1.719 2.353.367-1.151 1.895 2.05.481-1 1.845.405 1.226.823 1.024.784 1.036 1.873.506-1.253 2.034 1.67.594.14 1.353 1.506.657.645 1.087-.962 1.959 1.418.67.405 1.239 1.075.859.127 1.39-.013 1.479 1.607.531-.316 1.681 1.493.594.595 1.125.341 1.289.62 1.112 1.177.758-.012 1.542.847.961 2.202.038-.455 1.87 1.075.797 1.101.771 1.19.707-.544 1.972.797.999 2.037.05.76 1.011-.076 1.668.202 1.467h2.025l.405 1.314.012 1.656 1.33.543 1.442.43.658 1.1.658 1.124.443 1.315 1.48.366.734 1.049.127 1.631 1.341.48.291 1.504 2.303-.493.886.898.455 1.352.19 1.643 1.48.291 1.608.139 1.012.771.026 1.87 1.063.721 1.581.139-.101 2.035 1.215.556.81 1.011 1.404.316 1.43.29.987.784 1.164.581.861.961.785 1.062.885.922 1.063.695.848.986 1.329.354 1 .771.253 1.807.81 1.049.986.822 1.645-.114 1.038.746 1 .796.835 1.037 1.24.429.81 1.1 1.443.126.531 1.542 1.582-.126 1.139.569 1.227.442.848 1.036 1.43.101.86 1.037.76 1.238 1.607-.24.898.986.81 1.176 1.139.594 1.05.771 1.494-.127 1.581-.329.785 1.277.709 1.466 1.1.67 1.203.455 1.354.101 1.012.86 1.303.202 1.531-.341.95 1.036 1.505-.329 1.076.733.974.999 1.57-.569.809 1.466 1.532-.518 1.025.923.746 1.731 1.418-.227 1.429-.253.924 1.264 1.607-.872 1.24.29 1.038.923 1.367-.152.911 1.479 1.189.442 1.24.304 1.494-.645.974 1.289 1.215.392 1.404-.379 1.203.43 1.442-.62 1 1.34 1.126.809 1.569-1.327 1.025 1.352 1.342-.24 1.24.253 1.088 1.163 1.481-1.138 1.341-.366 1.151.872 1.038 1.592 1.556-1.87 1.076 1.441 1.354-.493 1.316-.329 1.152 1.036 1.164.948 1.367-.707 1.341-.683 1.151 1.188 1.228.544 1.291-.127 1.379-1.061 1.177 1.137 1.253.202 1.278-.063 1.227.708 1.329-.91 1.202 1.238 1.367-1.794 1.202 1.314 1.303-.543 1.202 1.428 1.342-1.567 1.265.227 1.278-.189 1.228 1.453 1.29-.126 1.291-1.087 1.266.303 1.265.758 1.278-.872 1.265.177 1.279 1.125 1.278-1.201 1.278.392 1.265-1.061 1.278.632 1.278-.392 1.266-.443 1.29.721 1.278-.013 1.291-.152 1.278-.328 1.291.67 1.291.05 1.227-1.2 1.316.783 1.266-.164 1.341.847 1.215-.936 1.24-.619 1.329.531 1.341.645 1.126-1.618 1.367.771 1.189-.936 1.316.367 1.228-.506 1.468 1.391 1.088-1.542 1.177-.872 1.392.72 1.329.228 1.139-.974 1.341.266 1.405.531 1.037-1.416 1.392.493 1.341.114 1.114-.948 1.405.48.949-1.694 1.544 1.037.949-1.542 1.303-.076 1.455.544 1.126-.746 1.519.695.823-1.845 1.366.139 1.076-.898 1.607.91 1.075-.872.988-1.15 1.632.872.683-1.984 1.569.645 1.494.353.734-1.744.949-1.125 1.214-.404 1.785 1.062 1.126-.632 1.291-.253 1.05-.809.784-1.441 1.418.051 1.62.48.873-1.201 1.29-.265.684-1.542 1.759.682 1.037-.808.81-1.239 1.607.316 1.101-.683 1.253-.391 1.076-.708.999-.86.253-2.148 1.443-.051.898-.986 1.025-.783 1.987.821 1.24-.442.076-2.288 1.455-.101 1.241-.455 1.164-.556.81-1.099.898-.948 1.708.214.064-2.135 1.493-.127 1.417-.227.658-1.264 1.025-.784 1.114-.644 1.455-.215.063-1.997 1.772.177 1.012-.797.215-1.756 1.569-.114.646-1.213 1.518-.215.051-1.896.924-.872.999-.809 1.468-.278 1.038-.771 1.012-.796.317-1.53 1.923.139.81-1.011.354-1.479 1.493-.328.026-1.77.784-1.049 2.215.354-.342-2.06 1.81-.076.607-1.175.607-1.15 1.354-.544 1.063-.783.608-1.163.139-1.504.177-1.466 1.962-.114.177-1.466 1.417-.544-.253-1.756 1.038-.809.253-1.378.696-1.049.582-1.137 1.961-.266.367-1.276.81-1.011-.063-1.517.772-1.024.139-1.377 1.468-.645.708-1.062-.076-1.491 1.317-.746.177-1.352-.064-1.454 1.19-.834 1.556-.67-.822-1.794.152-1.34 1.531-.695.658-1.112 1.265-.835.102-1.352.86-1.036-.721-1.669 1.278-.872-.57-1.592.253-1.264.949-1.011 1.101-.948-.885-1.669.329-1.238 2.024-.657-.772-1.606.317-1.226.253-1.263.164-1.277 2.367-.607-1.101-1.655-.253-1.403 2.442-.632.24-1.264-1.581-1.744.367-1.226 1.303-.973.228-1.252.025-1.314 1.645-.923-.379-1.403-.241-1.352.494-1.201 1.278-1.036.038-1.302-.241-1.352.101-1.289-.594-1.403.759-1.163-.658-1.403 2.025-.961-1.013-1.453 1.455-1.074.038-1.289.038-1.29-.291-1.327-.987-1.415 2.24-.999-2.024-1.529 1.505-1.112.747-1.214-1.303-1.415.367-1.251.189-1.264.949-1.201-1.417-1.39 2.101-1.125.012-1.289-2.037-1.403.089-1.264.86-1.239.924-1.238-.291-1.289.873-1.264-1.911-1.315 1.139-1.264-1.366-1.289 2.201-1.264-1.037-1.276-.507-1.277.671-1.289.165-1.276-1.139-1.252.278-1.289-.455-1.251.265-1.289.76-1.327.544-1.315-1.089-1.213-.632-1.239-.215-1.251.582-1.34.493-1.327-1.632-1.125 1.316-1.415-.405-1.252.405-1.339-1.531-1.1.126-1.302-.443-1.226 1.291-1.478-.405-1.239-1.999-.973 1.493-1.542-.468-1.213-1.278-1.075.987-1.478-.734-1.163.05-1.315-.316-1.251-.089-1.289-.139-1.277-2.024-.846 1.278-1.618-.076-1.302-.519-1.201-.759-1.112-.355-1.226-1.366-.948-.114-1.289.063-1.352.392-1.454-.025-1.34-.962-1.036-.721-1.099-.645-1.125.012-1.365.076-1.391-1.531-.796-.253-1.264-.152-1.302.063-1.415-1.797-.632 1.051-1.82-2.455-.341-.468-1.163.215-1.492-1.114-.884.683-1.732-1.417-.733.329-1.58-.746-1.049-1.316-.771-.519-1.15-.253-1.302.455-1.693-1.025-.898-.974-.922-.785-1.024-1.341-.708-.785-1.011-.379-1.238-.076-1.429-.101-1.428-1.114-.809-1.151-.783.442-1.782-2.1-.177.595-1.896-2.152-.114.481-1.833-1.569-.48-.822-.973.632-1.984-.898-.923-1.164-.746-.279-1.365-1.594-.417.088-1.643-1.569-.43-.468-1.238-.266-1.403-.481-1.239-2.492.329.797-2.25-1.949-.076-.759-1.023.354-1.934-1.961-.025-.747-1.037-.456-1.289-.189-1.517-1.43-.455-.38-1.365-1.923.013-.469-1.29-.164-1.579-2.012.126.253-1.984-1.303-.518-1.557-.29-.759-1.024-1.177-.62.607-2.389-2.353.544-.823-.986.101-1.908-1.974.202.178-2.022-1.19-.607-.911-.885-1.265-.518-1.317-.442-.24-1.63-1.202-.57-1.354-.404-.608-1.226-1.252-.506-.608-1.25-.379-1.517-2.202.644.329-2.389-1.873.266-.127-1.87-1.746.138-.114-1.908-1.708.114-1.05-.746-.38-1.593-1.696.114-1.063-.695-1.316-.367-.936-.884-.848-.999-1.253-.43-.24-1.87-1.266-.417-.949-.885-1.619.114-1.202-.493-1.114-.632-.38-1.731-1.771.391-.722-1.226-.518-1.58-1.38-.202-1.581.127-.481-1.656-1.595.164-.696-1.301-1.202-.48-.949-.923-.81-1.163-1.265-.354-1.456-.013-1.227-.404-1.43-.038-.696-1.403-.658-1.491-1.683.467-1.329-.202-.556-1.731-1.279-.304-1.176-.493-1.24-.366-1.253-.354-1.063-.708-1.126-.632-1.165-.518-1.303-.202-.962-.986-1.126-.62-1-.922-1.645.632h-1.379l-1.139-.556-1.101-.683-1.24-.328-1.063-.796-1.177-.494-.81-1.504-1.202-.417-1.392.101-1.645.847-.949-1.188-.886-1.365-1.177-.518-1.303-.139-1.62.91-1.265-.215-.835-1.643-1.38.14-1.189-.481-1.316-.013-.962-1.377-1.253-.278-1.518.783-1.24-.265-.937-1.605-1.341.126-1.215-.455-1.506.935-1.278-.1-.999-1.492-1.582 1.428-1.063-1.239-1.367.38-1.189-.607-1.24-.24-1.291-.038-1.266-.164-1.252-.19-1.19-.72-1.278-.038-1.24-.38-1.316.177-1.341.493-1.165-.973-1.265-.227-1.19-.961-1.442 1.833-1.164-1.542-1.278.038-1.266-.19-1.367 1.29-1.164-1.884-1.328 1.05-1.304.745-1.215-1.934-1.278-.303-1.316 2.174-1.252-1.403-1.279-.405-1.29-.316-1.266 1.15-1.29-.568-1.241 1.188-1.316-1.176-1.24.936-1.265.214-1.304-.417-1.24.645-1.278-.013-1.328-.682-1.203.96-1.354-.96-1.265.29-1.329-.404-1.088 1.858-1.379-.847-1.215.582-1.341-.48-1.317-.152-1.303-.14-1.303-.037-1.139 1.049-1.126 1.061-1.266.127-1.354-.354-1.227.417-1.089 1.1-1.316-.127-1.543-1.15-.937 1.782-1.24.265-1.392-.404-1.455-.607-.797 2.187-1.772-1.845-1.177.581-.873 1.744-1.544-.809z" fill="#FFCD00"/><path d="m253.307 108.053-.051 1.276.038 1.277-.253 1.264-.228 1.263.127 1.277-.747 1.239-.544 1.264.645 1.301.456 1.289-1.215 1.226 1.341 1.328-.151 1.263-1.494 1.226.987 1.315-.48 1.264-.443 1.251.848 1.314-.393 1.264-.481 1.252.874 1.301.126 1.289-.721 1.252.012 1.276.342 1.289-.949 1.252.405 1.289-.405 1.264.911 1.302.038 1.276-.278 1.277-.848 1.251.088 1.276-.253 1.277.823 1.289.544 1.289-1.24 1.251.443 1.277-.266 1.277.645 1.289.216 1.276-.836 1.264.367 1.277-.645 1.263 1 1.302.012 1.277-.594 1.264-.583 1.264-.126 1.276.493 1.289.658 1.289-.316 1.277-.089 1.277-1.1 1.251.164 1.289-.202 1.276-.013 1.277.253 1.277.228 1.276-.354 1.277.518 1.289-.329 1.276.671 1.289-.392 1.277-.051 1.277.43 1.276.089 1.289-1.253 1.264.114 1.277.734 1.289.481 1.289-.063 1.289.101 1.277-.19 1.276.139 1.289-.936 1.277.379 1.276.57 1.29-.797 1.276-.722 1.277v1.289l1.177 1.289-.19 1.276.469 1.29-1.456 1.263 1.139 1.29.203 1.289v1.276l-.772 1.277.911 1.289-.481 1.277.076 1.289-.506 1.276.493 1.289-.215 1.277-.911 1.277.759 1.289-.468 1.276 1.19 1.289-.734 1.277.291 1.289-.57 1.277.886 1.289-.392 1.276.063 1.289-.329 1.277-.253 1.276-.291 1.29.62 1.276-.81 1.289.557 1.277-.101 1.289.025 1.277-.089 1.289.342 1.276.418 1.289-1.076 1.277-.202 1.289.341 1.277-.114 1.289.19 1.276 1.114 1.277-.177 1.289-1.19 1.289 1.19 1.277-.684 1.276.456 1.289.354 1.277v1.289l-1.455 1.277.658 1.289.962 1.276-1.152 1.277.595 1.289.114 1.277-.722 1.289-.404 1.276-.038 1.289.67 1.277-.531 1.276.81 1.277.518 1.289.089 1.277-.658 1.276-.139 1.289-.684 1.289.317 1.277.405 1.277-.342 1.276.076 1.277-.342 1.289 1.025 1.276-.189 1.277-.114 1.276.822 1.277-.683 1.289.43 1.277.278 1.263-.784 1.29.126 1.289-.05 1.276-.405 1.289-.241 1.29.013 1.289.127 1.276.594 1.277.494 1.276-.898 1.29-.279 1.289.886 1.264-.899 1.289.532 1.276-.165 1.277-.189 1.276.885 1.277-.392 1.276.861 1.264-.633 1.277-.772 1.289.228 1.264.835 1.264-.532 1.289.355 1.276.607 1.264-.202 1.277.228 1.276-1.367 1.29.784 1.251.14 1.276-.203 1.277.683 1.251-.923 1.289 1.025 1.252-1.24 1.276 1.29 1.226.026 1.251.189 1.252.127 1.289-.367 1.567.544 1.251 1.696.506.658 1.087.405 1.365 1.366.455.772 1.087.861 1.074 1.518-.038 1.152.518.898 1.277 1.418-.152 1.214.531 1.329-.139 1.291-.582 1.278.557 1.278.594 1.278.303 1.278.013 1.278-.771 1.278.821 1.278-1.213 1.278.278 1.279.126 1.278.683 1.278-.127 1.265-.088 1.278-1.024 1.266.708 1.278.404 1.265-.505 1.278-.657 1.266.543 1.278.139 1.278.404 1.265-.126 1.278-.783 1.278.113 1.279-.455 1.278.177 1.265.784 1.278-.544 1.278.986 1.278-.746 1.291.733 1.278-.037 1.278-.43 1.278-.442 1.278-.278 1.278-.14 1.278-.037 1.279.897 1.278.139 1.278-1.074 1.278 1.617 1.265-1.554 1.278.644 1.278-.24 1.278 1.15 1.266-.429 1.278.391 1.278-.606 1.265-.607 1.279.089 1.278.038 1.265.669 1.278-.303 1.278-.291 1.266-.48 1.278 1.049 1.278-.48 1.265.796 1.278-.215 1.278-.076 1.266-1.188 1.278 1.568 1.278-.038 1.278-1.15 1.278.353 1.278-.151 1.278.455 1.278-.973 1.278.644 1.279-.101 1.278.506 1.278.303 1.278-.101 1.29.24 1.279-1.466 1.278 1.365 1.278-.405 1.278.089 1.278-.948 1.278.126 1.278 1.264 1.278-1.352 1.278 1.238 1.278-1.011 1.278-.126 1.278.253 1.279-.569 1.265.834 1.278.569 1.278-.531 1.278.581 1.278-1.44 1.278.48 1.278.657 1.279-.771 1.278.758 1.29-.846 1.278-.278 1.278 1.428 1.291-.19 1.278-.493 1.278.721 1.279-.064 1.278-.341 1.278-.316 1.29-.076 1.279.506 1.277-.114 1.279-.998 1.278.303 1.278-.253 1.278-.025 1.278.127 1.278.53 1.278-.391 1.291.075 1.278.986 1.278-.152 1.291-1.225 1.278.846 1.278-.126 1.278-.556 1.291 1.175 1.278-1.491 1.278.695 1.278.101 1.278.089 1.278-.582 1.291.24 1.278.253 1.291-.189 1.278.227 1.278-.809 1.291.607 1.278.012 1.278-.29 1.278.745 1.29-.366 1.279-.354 1.278-.164h1.278l1.278.986 1.265-.872 1.278.695 1.278-.43 1.291.632 1.278-.948h1.278l1.291-.038 1.278 1.251 1.278-.796 1.278.202 1.278-.227 1.291.076 1.278-.316 1.278.707 1.278-.669 1.291-.405 1.278.935 1.291-.417 1.278-.215 1.278.165 1.291-.316 1.278 1.023 1.291-.758 1.278-.543 1.291.859 1.278-.771 1.29 1.39 1.278-.808 1.291.884 1.291-1.504 1.278.063 1.291.683 1.278.695 1.29.076 1.278.025 1.291-.126 1.278-1.264 1.291.847 1.291-1.049 1.291 1.529 1.29-.708 1.278.708 1.291-.48 1.291.05 1.303-.48 1.291.379 1.291-.202 1.253-.354 1.341.126 1.379.026.937-1.201 1.581.253.418-1.846 1.392-.202.595-1.264.809-.935 1.696-.215.582-1.2.785-1.037.164-1.377-.101-1.378 1.126-.948.557-1.201-.848-1.403 1.569-1.162-1.316-1.315.506-1.251.304-1.264-.278-1.289.797-1.239.316-1.264-1.088-1.301 1.164-1.239-1.43-1.314.291-1.264.798-1.252-.722-1.289.57-1.251-.747-1.289.861-1.239.62-1.251-1.215-1.289.101-1.264.038-1.264 1.101-1.239.24-1.264-.341-1.276-1.051-1.302 1.392-1.226-1.189-1.302.709-1.251-.836-1.289.481-1.251 1.089-1.252-1.468-1.301 1.366-1.239-1.214-1.302 1.278-1.238.139-1.264-.203-1.277-.164-1.276-1.076-1.302 1.531-1.239-.873-1.289.393-1.264-.747-1.276-.025-1.277 1.341-1.238-.658-1.277.202-1.264-.354-1.276.443-1.264.582-1.264-.797-1.277.86-1.264-.696-1.276.089-1.277.316-1.263.076-1.277-.405-1.277.658-1.263-.101-1.277-1.329-1.289 1.089-1.251-.304-1.29-.304-1.263-.392-1.277 1.202-1.264-.013-1.264-1.164-1.289.026-1.276.822-1.264.582-1.264-1.164-1.289.418-1.264.784-1.277-.481-1.276-.582-1.277.177-1.276.203-1.277.43-1.264-.62-1.289.139-1.264.785-1.276-.456-1.277.633-1.276-1.468-1.29.038-1.276.481-1.277.797-1.276-.595-1.277-.721-1.276-.088-1.289 1.024-1.277-.113-1.276-.709-1.29 1.19-1.276-.279-1.289.177-1.289-.493-1.277-.532-1.264-.012-1.276-.203-1.277.139-1.264.266-1.276.127-1.277-.076-1.264.202-1.276-.392-1.277.025-1.276.975-1.264.278-1.277.063-1.276-.772-1.277.013-1.276.076-1.277.291-1.276-.253-1.277.367-1.276-.506-1.277.759-1.276-.696-1.277-.089-1.277-.177-1.289.342-1.276-.468-1.277.341-1.276.532-1.277-.734-1.289.329-1.276.493-1.277v-1.277l.152-1.276-.582-1.289-.734-1.277.595-1.276.772-1.277.101-1.276-.063-1.289-.329-1.277.278-1.277-.24-1.289-.658-1.276.443-1.289-.646-1.277.215-1.276.443-1.277-.797-1.289.823-1.277-.747-1.289.405-1.276 1.038-1.264-.481-1.289-.507-1.29.684-1.263-.962-1.29-.038-1.289.443-1.264-.38-1.289.874-1.264.101-1.289-.013-1.276-.734-1.277.772-1.276.076-1.277-.506-1.277.127-1.276-.671-1.289.822-1.264.431-1.264-1.19-1.289.861-1.264-.355-1.277.026-1.276.721-1.264-1-1.289-.418-1.277.507-1.264 1.075-1.251-1.531-1.289.962-1.264-.494-1.276-.354-1.277.683-1.264.608-1.264-.62-1.289-.608-1.276.81-1.252.329-1.264-.177-1.263-.861-1.29.798-1.251.076-1.264-.089-1.264.468-1.251-.721-1.264.835-1.289-1.506-1.099.684-1.365-.76-1.087.532-1.53-1.607-.657-.456-1.137-.81-.923.064-1.631-.949-.872-1.468-.265-.823-.935-.734-1.163-1.404-.05-1.063-.645-.886-1.226-1.468.493-1.152-.544-1.316.62-1.189-.544-1.278.266-1.278.303-1.278-.569-1.278-.038-1.279.089-1.278.19-1.278-.532-1.278-.1-1.29.846-1.266-.657-1.291.063-1.265-.708-1.291.607-1.278.392-1.278-.493-1.265-.582-1.291 1.113-1.278-.695-1.278.58-1.278-.378-1.278.24-1.253-1.175-1.278 1.01-1.278.506-1.266-.682-1.278-.342-1.278.57-1.265-.38-1.266-.581-1.278.884-1.278-.569-1.265-.29-1.279.505-1.265-.568-1.291 1.061-1.265-1.023-1.278.935-1.278-.19-1.266-.67-1.278.316-1.265-.809-1.291 1.15-1.278-.391-1.278.404-1.265-.998-1.279.366-1.29.57-1.266-1-1.291 1.227-1.265-.847-1.265-.632-1.291 1.011-1.291.53-1.278-.05-1.253-1.226-1.29.114-1.266-.202-1.291.24-1.278.746-1.278-.468-1.265-.822-1.278.531-1.278-.24-1.278.796-1.266-1.036-1.278.177-1.278.543-1.278-.758-1.278.05-1.265-.189-1.291.063-1.278.177-1.291 1.302-1.266-.53-1.29.29-1.278.088-1.266-1.289-1.278-.215-1.291 1.39-1.278-.543-1.278-.227-1.265-.14-1.291.33-1.278.189-1.265-.872-1.304 1.251-1.265-.581-1.278-.493-1.291.455-1.278-.013-1.278-.126-1.278-.556-1.291 1.124-1.278-.935-1.278-.025-1.291.885-1.278-.696-1.291.367-1.278-.62-1.291 1.024-1.29.013-1.278-.063-1.278-.594-1.291-.114-1.278-.088-1.291.644-1.278-1.074-1.291.1-1.29.595-1.279-.632-1.29.897-1.291.114-1.266-1.39-1.303 1.213-1.265-.96-1.291.227-1.278.215-1.278-.53-1.291-.241-1.278.177-1.291.594-1.291.543-1.265-1.124-1.291.53-1.278-.632-1.29.898-1.291-.303-1.278.404-1.291-.013-1.278.076-1.278-1.137-1.278.265-1.291-.139-1.291.594-1.278-.126-1.291.417-1.265-.733-1.291-.101-1.29.568-1.279-.632-1.278.342-1.29.518-1.278-.544-1.279-.821-1.29 1.1-1.278.303-1.278-.834-1.278-.114-1.279-.632-1.29.316-1.291-.316-1.291.96-1.291-.657-1.29.81-1.291.163-1.278-.417-1.278-.53-1.304 1.01-1.278.076-1.265-1.276-1.303.897-1.278.05-1.279.102-1.29.152-1.266-1.555-1.291 1.112-1.29.468-1.253-1.63-1.278.063-1.303 1.466-1.279-.038-1.265-.771-1.278.038-1.278.202-1.253-1.036-1.291.493-1.29.379-1.278-.19-1.266-.77-1.278.15-1.278.355-1.278.088-1.278.62-1.266-.417-1.278.644-1.252-1.378-1.279.898-1.265-.96-1.329.163-1.303.24-1.228.595-.974 1.162-1.746-1.01-.481 2.009-1.595-.265-1.341.379-.341 1.63-1.038.733-.899.91-1.278.645.266 1.681-1.936.429-.481 1.264 1.076 1.719-.317 1.176-.784 1.124.405 1.29z" fill="#FF94FF"/><path d="m197.388 369.855 1.278.252 1.278.278 1.303-.417 1.291.013 1.265.43 1.278.353 1.291-.265 1.278.455 1.291-.139 1.278.025 1.291-.05 1.303-.304 1.291-.202 1.278.076 1.265.506 1.291-.102 1.278.354 1.278.228 1.291-.367 1.278.266 1.303-.304 1.266.354 1.303-.404 1.266.594 1.29-.089 1.278-.075 1.279.379 1.29-.114 1.291-.746 1.278.607 1.291-.594 1.278.341 1.291-.038 1.265.771 1.291-.455 1.291.228 1.29-.645 1.266.986 1.29-.101 1.291-.278 1.278.126 1.291-.429 1.278.53 1.278.278 1.291-.075 1.291-.67 1.29-.228 1.278.266 1.278.126 1.279.48 1.29-.632 1.278.139 1.291-.05 1.278.518 1.278-.695 1.291.063 1.278.038h1.278l1.278.645 1.291-.038 1.278.265 1.291-.505 1.278.518 1.278-.569 1.291.013 1.278.354 1.278-.316 1.278.657 1.291-.847 1.278.316 1.278.341 1.278-.392 1.291-.404 1.278.758 1.278-.379 1.278-.341 1.278.493 1.278.227 1.278-.644 1.278-.013 1.291.569 1.278.139 1.278-.013 1.278.139 1.278-.215 1.278.076 1.278-.746 1.279.013 1.278.885 1.278-.796 1.278-.139 1.278.278 1.265-.228 1.291.303 1.265-.227 1.291.594 1.278-.253 1.266-.164 1.29.366 1.266-.581 1.291.758 1.265-.606 1.291.493 1.265-.329 1.278.025 1.278-.24 1.278.291 1.291.114 1.278.075 1.278-.29 1.266-.202 1.278.101 1.278-.544 1.278.367 1.278-.215 1.278.291 1.278-.316 1.291.455 1.278.025 1.278-.291 1.278-.518 1.278.442 1.291.127 1.278-.291 1.291.19 1.291.265 1.366-.126 1.114-.999 1.518.215 1.013-.935 1.025-.86.556-1.238.646-1.1.544-1.125.329-1.2.329-1.214.139-1.276-.278-1.239.076-1.365-.266-1.365-1.012-.91-.886-.986.05-1.479-1.404-.707-.544-1.163.215-1.567-1.19-.809-.367-1.264-.379-1.251-1.127-.847-.405-1.239-.354-1.264-1.126-.846-.709-1.075-.215-1.34-.645-1.099-.823-1.011-.088-1.403-.861-.999-.405-1.238-1.139-.834-.658-1.1-.468-1.201-.152-1.377-.67-1.087-.494-1.188-1.088-.86-.949-.948.088-1.504-.885-.973-.481-1.2-.987-.911-.747-1.049-.152-1.377-.835-.999-.266-1.314-1.189-.809-.646-1.112-.291-1.302-.291-1.289-.556-1.163-.899-.961-1.012-.909-.443-1.214-.582-1.137v-1.466l-.721-1.062-.507-1.176-.62-1.124-.772-1.037-.759-1.036-.43-1.226-.911-.961-.443-1.213-1.013-.897-.404-1.239-.608-1.125-.86-.986-.684-1.087.076-1.504-.696-1.074-1.037-.872-.899-.961-.595-1.137-.683-1.074-.519-1.176-.708-1.062-.114-1.402-.835-.999-.949-.935-.19-1.352-.228-1.34-.633-1.112-1.291-.734-.531-1.175-.886-.96.177-1.568-1.265-.745-.747-1.049-.632-1.1-.203-1.352-1.151-.822-.367-1.251-.671-1.087-.354-1.264-.911-.948-.519-1.175-.127-1.391-1.063-.859-.379-1.251-1.304-.721-.228-1.339-.797-1.011-.316-1.29-1.139-.809-.43-1.226-.671-1.086-.456-1.201-.506-1.176-.481-1.2-.987-.898-.189-1.352-.962-.923-.582-1.125-.658-1.099-.595-1.125-.835-.986-.886-.948-.051-1.453-.531-1.163-.848-.986-.582-1.125-.759-1.036-1.266-.733-.556-1.138.012-1.491-1.316-.695-.278-1.327-.911-.935-.848-.974-.658-1.099.152-1.567-1.025-.873-1.19-.77-.025-1.479-.987-.885-.734-1.062-.266-1.339-.443-1.226-.784-1.138-1.24-.695-.874-1.1-1.417-.202-1.316-.151-1.24-.215-1.24-.531h-1.316l-1.417-.139-1.228.657-1.05.872-1.202.632-.911.999-.975.973-.114 1.441-.784 1.011-.747 1.049-.215 1.352-1.05.86-.443 1.225-.506 1.176-1.114.821-.595 1.125-.708 1.075-.886.948-.81 1.011-.658 1.087-.595 1.137-.342 1.277-.392 1.251-1.164.796-.81.999-.177 1.39-1.164.796-.367 1.264-.759 1.036-.76 1.024-.177 1.39-.873.974-.177 1.365-1.012.884-1.089.847-.531 1.176-.19 1.365-.949.922-.468 1.213-.317 1.29-.772 1.036-.518 1.175-1.418.658-.215 1.352-.569 1.138-.772 1.036-.266 1.327-1.164.796-.076 1.441-1.341.695.038 1.504-.722 1.062-.683 1.074-.785 1.024-1.151.822-.683 1.074.038 1.491-.697 1.075-.961.922-.279 1.315-.822 1.011-.848.986-.177 1.365-.62 1.124-1.114.847-.329 1.277-.784 1.036-.469 1.201-.265 1.327-.937.935-.974.923-.785 1.024-.645 1.112-.19 1.365-1.088.859.063 1.492-.784 1.036-.696 1.074-1.013.91-.544 1.15-.569 1.151-.051 1.44-1.025.898-.835.986-.342 1.276-.253 1.327-.924.961-.696 1.074-.847.999-.545 1.15-.164 1.365-.696 1.087-.354 1.264-.709 1.061-1.063.885-.304 1.289-1.177.822-.189 1.352-1.038.885-.582 1.137-.367 1.264-.367 1.251-.456 1.214-.518 1.162-.595 1.138-1.126.847-.696 1.074.012 1.466-1.531.632.266 1.593-.975.922-.468 1.214-1.252.77-.367 1.252-.836.998-.265 1.315-.253 1.314-.658 1.087-.621 1.125-.987.91-.43 1.226-.443 1.201-.329 1.276-1.202.809-.329 1.264-1.063.885-.468 1.188-.557 1.15.063 1.479-1.493.644-.569 1.138.05 1.466-.797 1.011-.506 1.163-.861.985.051 1.416-.746 1.1-.089 1.289-.304 1.314.026 1.365.48 1.264.456 1.289 1.506.556.228 1.555 1.202.657 1.113.733 1.43-.063 1.19.392 1.253.152z" fill="#8C8CFF"/><path d="m404.285 210.542-.899.91-.961.834-.481 1.302-.861.935-1.24.556-.936.859-.747 1.049-.734 1.062-1.038.758-.746 1.062-1.329.43-.835.973-.772 1.036-1.215.556-.734 1.075-.797 1.011-.886.91-1 .783-1.024.759-.937.847-1.101.682-.759 1.062-.823.998-.987.784-.949.847-1.126.644-.898.898-1.025.758-.835.973-1.026.758-1.1.658-1.19.556-.962.821-.999.784-.785 1.049-.898.923-1.278.417-.949.859-1.152.582-.683 1.188-1.127.619-.987.796-1.113.632-.772 1.087-1.228.48-1.025.759-.797 1.036-1.063.708-1.328.341-.823 1.024-1.063.695-.848.986-1.253.417-.923.859-1.013.759-1.265.391-.962.822-1.063.67-.974.834-1.253.354-.822 1.112-1.101.607-1.392.076-1.013.783-.987.885-1.164.505-1.253.291-1.252.24-1.279.114-1.202.392-1.113.695-1.304-.076-1.164.721-1.328-.405-1.215.607-1.266-.127-1.265-.139-1.278.101-1.24-.252-1.266.075-1.265-.075-1.215.316-1.24.151-1.329.051-1.05.809-1.215.505-.949.91-.671 1.113-.696 1.137-.088 1.327.303 1.277.228 1.264.81 1.036.38 1.289 1.252.581.785 1.037.911.897 1.164.468 1.215.278 1.101.67 1.341-.291 1.127.619 1.214.266.988.126-.051 1.1-.405 1.213-.405 1.201-.759 1.049-.329 1.238-.911.999-.127 1.327-.835 1.024-.063 1.352-.937.999-.215 1.289-.645 1.125-.595 1.15-.127 1.327-.898 1.024-.203 1.301-.316 1.239-.278 1.251-.747 1.1-.455 1.2-.418 1.214-.025 1.314.126 1.302-.24 1.239-.203 1.238.291 1.214.266 1.175.418 1.239.924.91 1.176.594 1.278.215 1.203-.455 1.138-.329 1.279-.455.734-1.163 1.138-.72.798-1.049 1.075-.847.759-1.087.924-.973.279-1.416.847-1.024.912-1.011.379-1.314.823-.847-.469.999-.708 1.112-.215 1.289-.696 1.112-.418 1.226.089 1.39-.608 1.163-.038 1.315-.405 1.213-.025 1.277-.24 1.251.088 1.251-.139 1.365.595 1.226 1.189.67.937.986 1.556.151 1.506-.139 1.316-.72 1-.86 1.24-.581.911-.973.709-1.138.518-1.226.848-1.011.507-1.226.683-1.125.683-1.124.342-1.29 1.075-.973-.012-1.441.835-1.099-.278 1.264-.633 1.087-.228 1.251-.721 1.062-.76 1.061-.392 1.201-.202 1.251.038 1.289-.418 1.214-.126 1.251.506 1.226-.152 1.289.544 1.138.658 1.049.81.96.848 1.163 1.417.051 1.266-.367h1.328l1.278-.493.671-1.251.974-.872.899-.948.721-1.075.873-.973.57-1.188.911-.948.81-1.023.316-1.353.772-1.036.873-.986.949-.923.797-1.023.709-1.087.582-1.188.924-.936.62-1.162.949-.91.785-1.037 1.037-.796.975-.834.885-.936.519-1.263.949-.86 1.164-.644.582-1.239 1.203-.607.696-1.137.999-.822.873-.973 1.051-.758 1.05-.746 1.139-.645.861-1.011 1.252-.467 1.164-.594.899-.961 1.139-.594 1.05-.708 1-.809.848-.998 1.05-.72 1.303-.329.861-.998 1.265-.392.937-.872.961-.847 1.291-.354 1.076-.683 1.037-.745.987-.784.848-1.036 1.152-.569.961-.834 1.038-.733.949-.86 1.177-.518 1.139-.594.886-.935 1.164-.544 1.113-.619 1-.771 1.164-.556.772-1.1.975-.808 1.025-.746 1.265-.405.86-.96.962-.834 1.126-.594.912-.885 1.278-.392.949-.834.936-.86.848-.973.848-.948 1.012-.758 1.291-.404 1.088-.645.975-.796.569-1.315 1.012-.745 1.101-.632 1.24-.493.874-.91.632-1.214 1.089-.669 1.012-.759.873-.91 1.24-.518.544-1.302 1.038-.745" fill="#FF94FF"/><path d="M345.05 327.919h-.063l-1.405-.051a1.81 1.81 0 0 1-1.43-.758l-.848-1.163-.734-.872c-.05-.063-.101-.126-.151-.202l-.658-1.049s-.064-.114-.102-.177l-.556-1.137a1.776 1.776 0 0 1-.165-1.024l.101-.796-.063-.165-.569.619a1.866 1.866 0 0 1-.57.418l-1.012.467-.81.695a4.355 4.355 0 0 1-.304.215l-1.316.721a1.792 1.792 0 0 1-.709.215l-1.505.139h-.355l-1.543-.152a1.842 1.842 0 0 1-1.152-.556l-.759-.784-.962-.543a1.893 1.893 0 0 1-.747-.797l-.594-1.226a1.825 1.825 0 0 1-.177-.998l.126-1.201-.088-1.087a2.195 2.195 0 0 1 .025-.505l.215-1.087v-1.112s.025-.089.025-.127v.025a2.483 2.483 0 0 1-.506.456l-.784.492-.507.809c-.227.354-.556.62-.961.759l-3.569 1.213a1.902 1.902 0 0 1-.962.101l-1.278-.215a1.528 1.528 0 0 1-.531-.177l-1.164-.594a1.774 1.774 0 0 1-.469-.341l-.923-.923a1.755 1.755 0 0 1-.443-.72l-.418-1.226s-.038-.114-.05-.177l-.557-2.376a1.898 1.898 0 0 1-.026-.708l.405-2.287-.101-1.037v-.227l.025-1.315c0-.189.038-.366.102-.543l.898-2.49c.051-.127.114-.253.19-.367l.557-.809.519-2.123.189-1.213c.051-.341.203-.657.431-.923l.506-.581.076-.746c.025-.24.088-.468.202-.682l1.114-2.035.164-.973c.064-.354.228-.683.468-.948l.469-.506.038-.682c.025-.392.164-.759.405-1.062l.48-.594.076-.771c.038-.392.203-.758.469-1.062l.607-.67.215-.808c.051-.215.152-.405.278-.582l.595-.847.393-1.15-.481-.114a2.047 2.047 0 0 1-.469-.177l-.531-.29-.671.151a1.872 1.872 0 0 1-1.354-.227l-.835-.506-.924-.202a1.383 1.383 0 0 1-.303-.101l-1.165-.48a1.838 1.838 0 0 1-.582-.392l-.911-.897a2.674 2.674 0 0 1-.177-.203l-.506-.67-.835-.379a1.876 1.876 0 0 1-1-1.15l-.278-.96-.582-.759a1.95 1.95 0 0 1-.367-.809l-.228-1.263-.279-1.163a1.968 1.968 0 0 1-.05-.544l.088-1.327c.026-.303.114-.594.266-.847l1.354-2.237c.089-.139.19-.278.317-.391l.949-.911c.164-.151.354-.278.556-.366l.987-.417.861-.67a1.79 1.79 0 0 1 1.063-.379l1.24-.051 1.038-.126 1.1-.291c.19-.05.38-.063.583-.05l1.138.076 1.152-.076c.165 0 .329 0 .494.038l.987.202.999-.089h.367l1.974.215.747-.366a1.92 1.92 0 0 1 1.354-.114l.531.164.456-.278a1.677 1.677 0 0 1 1.063-.265l.721.038.633-.392c.126-.076.266-.139.405-.19l1.189-.379c.127-.038.253-.063.38-.076l1.202-.113 2.189-.455.734-.316.76-.683s.063-.05.101-.088l1.012-.784a1.942 1.942 0 0 1 1.038-.392l.961-.05.38-.215.582-.784c.241-.328.582-.569.975-.682l.86-.253.658-.569a.833.833 0 0 1 .215-.152l.949-.606.861-.733c.19-.165.417-.291.67-.367l.949-.291.671-.505.861-.796c.189-.177.417-.316.67-.392l.772-.266.519-.594c.114-.126.228-.227.367-.328l.823-.544.645-.808c.253-.316.595-.531.987-.632l1.025-.266.544-.354.62-.796c.101-.139.228-.253.355-.354l1.024-.758c.127-.101.279-.177.418-.24l.709-.278.455-.632c.165-.228.367-.405.608-.544l.987-.543.873-.695c.088-.064.177-.127.266-.177l.67-.367.43-.746a1.81 1.81 0 0 1 .772-.733l.924-.467.759-.683c.19-.177.418-.303.671-.392l.848-.278.493-.505.722-.961c.101-.126.202-.24.329-.341l1.923-1.567c.114-.101.253-.19.392-.253l1.101-.531.95-.569.797-.581.708-.809c.089-.101.177-.189.291-.265l.911-.683.81-.809c.114-.113.241-.215.38-.29l.949-.544 1.721-1.453.696-.847.696-.961c.139-.202.316-.366.532-.493l.949-.594.822-.733s.089-.075.127-.101l1.885-1.453.747-.759.696-.884.696-1.024c.189-.278.455-.493.759-.632l.785-.354.48-.657s.051-.076.089-.114l.835-.96a1.91 1.91 0 0 1 .835-.557l.747-.24.379-.556c.114-.164.266-.316.431-.442l.784-.569 1.329-1.883c.076-.101.152-.19.241-.278l.936-.86c.152-.139.316-.252.493-.328l.886-.392.355-.392.367-.973c.113-.291.29-.543.518-.733l.899-.784.835-.859a1.83 1.83 0 0 1 2.607-.025c.734.707.746 1.87.025 2.603l-.886.91s-.076.076-.114.101l-.607.531-.329.86a1.72 1.72 0 0 1-.354.581l-.848.948c-.177.189-.38.341-.62.455l-.962.43-.569.531-1.354 1.921a1.695 1.695 0 0 1-.443.455l-.785.568-.557.809a1.833 1.833 0 0 1-.949.708l-.848.278-.443.518-.721.986c-.19.253-.43.455-.721.581l-.747.342-.443.657s-.05.063-.076.101l-.797 1.011s-.088.101-.139.152l-.898.91s-.102.101-.165.152l-1.999 1.541-.886.797a1.024 1.024 0 0 1-.266.189l-.784.481-.545.758-.885 1.087c-.076.101-.177.189-.279.278l-.999.796-.874.784a1.815 1.815 0 0 1-.316.227l-.911.518-.734.721s-.126.114-.19.164l-.86.645-.709.821a2.22 2.22 0 0 1-.304.291l-1.025.746s-.088.063-.139.088l-1.101.657s-.101.064-.152.089l-.974.467-1.645 1.34-.645.86s-.089.113-.152.177l-.886.922a1.788 1.788 0 0 1-.747.468l-.911.303-.645.594a2.117 2.117 0 0 1-.405.278l-.658.329-.405.708c-.164.29-.417.531-.709.695l-.987.543-.86.695a1.735 1.735 0 0 1-.253.177l-.759.417-.532.746a1.796 1.796 0 0 1-.823.645l-.999.392-.62.454-.646.847a1.922 1.922 0 0 1-.443.417l-1.062.695c-.165.114-.355.19-.557.241l-.734.189-.443.544a1.502 1.502 0 0 1-.418.379l-.848.569-.683.783c-.215.253-.493.43-.81.544l-.873.29-.645.594s-.101.089-.152.127l-1.012.758a2.01 2.01 0 0 1-.57.291l-.886.265-.67.569a1.387 1.387 0 0 1-.215.164l-.949.607-.874.746a1.677 1.677 0 0 1-.696.366l-.645.19-.443.606a1.688 1.688 0 0 1-.595.519l-1.113.619a1.769 1.769 0 0 1-.797.228l-.798.037-.506.392-.936.847c-.152.126-.317.24-.494.316l-1.164.506c-.101.05-.215.075-.329.101l-2.581.53s-.102.013-.152.026l-1.089.101-.784.253-.937.581a1.656 1.656 0 0 1-1.062.265l-.722-.037-.67.417c-.456.278-1 .341-1.506.202l-.62-.19-.57.278a1.766 1.766 0 0 1-.987.177l-2.392-.253-1.088.089c-.177.013-.354 0-.531-.038l-1-.215-1.025.063h-.24l-.962-.063-.937.24a1.286 1.286 0 0 1-.24.051l-1.24.151h-.165l-.734.026-.582.455a1.69 1.69 0 0 1-.417.24l-.899.379-.518.493-1.013 1.668-.038.594.405 1.921.519.67c.139.177.253.392.316.607l.152.493.494.227c.278.127.519.316.708.569l.696.923.557.543.683.278 1.063.241c.203.037.393.126.557.227l.468.278.62-.139a1.906 1.906 0 0 1 1.266.177l.911.493.86.202.899.101a1.83 1.83 0 0 1 1.62 1.909l-.051 1.099c0 .177-.038.341-.089.506l-.822 2.414a2.04 2.04 0 0 1-.24.467l-.557.797-.253.922a1.793 1.793 0 0 1-.418.759l-.493.543-.076.721a1.851 1.851 0 0 1-.405.973l-.456.569-.038.745c-.025.43-.19.847-.493 1.163l-.557.594-.127.746a2.126 2.126 0 0 1-.215.619l-1.037 1.883-.089.973c-.038.38-.19.746-.443 1.037l-.544.632-.114.771-.038.177-.595 2.452c-.05.227-.139.429-.265.619l-.633.923-.683 1.87-.026.923.114 1.2c.013.177 0 .367-.025.544l-.367 2.035.455 1.971.253.733.418.405.658.328.506.089.734-.278s.101-.038.152-.051l1.708-.53.393-.62c.152-.24.341-.43.582-.581l.848-.531.594-.784a2.25 2.25 0 0 1 .342-.341l.861-.67.607-.859c.051-.076.114-.139.164-.202l.557-.582.165-.884c.063-.304.19-.595.392-.835l1.531-1.782.266-.91c.088-.278.228-.543.443-.758l.822-.847a1.85 1.85 0 0 1 2.379-.24 1.84 1.84 0 0 1 .633 2.3l-.468.999c-.038.076-.076.139-.114.215l-.506.783-.152.923c-.038.24-.127.48-.266.682l-.582.923-.228.67.064 1.024c.025.328-.051.669-.203.96l-.405.784-.025.897c0 .19-.038.367-.101.544l-.317.935v.986a2.858 2.858 0 0 1-.05.328l-.203.999.076.998v.342l-.088.846.113.24.696.392c.152.089.291.19.418.316l.481.493.696.063.949-.088.822-.443.861-.733c.127-.101.266-.202.418-.265l.911-.43.544-.581.544-.872.481-1.1c.076-.164.164-.316.278-.455l.658-.796.392-.961c.038-.101.089-.189.14-.278l1.227-2.009.278-1.037a1.84 1.84 0 0 1 .545-.897l.455-.417v-.619a1.9 1.9 0 0 1 .367-1.125l.835-1.1a1.85 1.85 0 0 1 2.253-.556 1.822 1.822 0 0 1 1.012 2.073l-.291 1.264a1.569 1.569 0 0 1-.202.505l-.304.531a1.849 1.849 0 0 1-.253.771l-.089.455a1.94 1.94 0 0 1-.291.708l-1.341 1.908-.266.797-.152.948.026 1.124c0 .215-.026.43-.102.632l-.341 1.012-.064.581.329.783c.127.291.165.62.127.936l-.089.745.266.569.532.86 1.113 1.403h.228l.987-.278c.165-.051.329-.076.506-.076h1l.304-.114.329-.632c.101-.202.24-.379.417-.531l.924-.809.734-.771.633-.948a2.65 2.65 0 0 1 .177-.227l.696-.758.443-.936c.088-.177.189-.341.329-.48l.847-.897.507-.62.215-.948c.063-.252.164-.48.329-.695l.784-1.036s.051-.076.089-.114l.86-.986s.076-.076.102-.113l.86-.822.671-.859.607-.936.544-1.087c.089-.177.203-.328.329-.467l.734-.746.506-.935c.089-.165.203-.316.342-.443l.835-.808.709-.923a1.7 1.7 0 0 1 .342-.341l1.86-1.504.582-.607.392-.948c.101-.253.266-.468.456-.657l.949-.872c.101-.101.228-.19.354-.253l.645-.354.329-.695a1.9 1.9 0 0 1 .836-.86l.734-.366.43-.695c.101-.177.24-.329.392-.455l.886-.733.784-.872c.089-.101.178-.177.291-.266l2.126-1.516s.114-.076.165-.102l.835-.467.633-.759c.202-.252.468-.429.772-.543l1.151-.43.772-.404.684-.733a1.57 1.57 0 0 1 .493-.367l1.05-.543.899-.607.797-.644.747-.873c.101-.113.215-.227.341-.316l1.038-.72c.19-.126.392-.227.607-.278l.747-.19.481-.556c.228-.265.519-.455.848-.556l.86-.265 1.645-1.479c.215-.177.456-.316.721-.379l1.013-.278 1.784-1.226.772-.619.721-.873c.165-.202.367-.366.608-.48l.936-.467.785-.683s.088-.076.139-.114l.949-.67.86-.783c.152-.139.317-.24.494-.316l1.936-.91.683-.721a2.04 2.04 0 0 1 .57-.404l1.101-.506.924-.53.898-.696c.101-.075.215-.151.329-.202l.721-.341.494-.708c.101-.139.215-.265.354-.379l2.063-1.605c.164-.114.341-.215.531-.278l.797-.253.532-.594.152-.152.949-.834c.101-.088.228-.177.341-.24l.899-.48.721-.708c.215-.202.468-.354.747-.442l.898-.278 1.468-1.34 1.658-1.871c.076-.088.164-.164.253-.227l1-.758c.177-.127.367-.228.569-.291l1.088-.329.785-.467.519-.43.379-.897c.127-.304.342-.569.608-.772l1.012-.732s.101-.064.152-.102l1.101-.644c.076-.051.164-.089.253-.127l.861-.341.417-.43.506-.973c.152-.303.392-.556.684-.733l1.012-.619.81-.619.772-.809c.177-.19.392-.342.632-.43l.532-.215.253-.594c.127-.316.342-.581.62-.784l1.038-.745a1.831 1.831 0 0 1 2.568.417 1.839 1.839 0 0 1-.417 2.566l-.62.442-.342.821c-.19.455-.544.809-1 .999l-.873.366-.607.632a1.187 1.187 0 0 1-.228.203l-1 .758s-.101.076-.164.101l-.645.392-.393.746a1.838 1.838 0 0 1-.316.442l-.886.91a1.872 1.872 0 0 1-.645.43l-1.101.429-.899.531-.531.392-.354.847a1.867 1.867 0 0 1-.519.695l-.975.809a1.562 1.562 0 0 1-.24.164l-1.101.645a2.27 2.27 0 0 1-.392.177l-.974.303-.608.468-1.569 1.769s-.089.101-.139.139l-1.911 1.732c-.203.177-.43.303-.683.379l-.861.265-.595.569a1.6 1.6 0 0 1-.417.303l-.937.493-.708.619-.797.873c-.216.24-.494.417-.81.518l-.975.316-1.48 1.15-.62.897a1.777 1.777 0 0 1-.722.607l-.987.468-.847.657c-.064.05-.14.101-.216.139l-1.101.632s-.088.05-.139.076l-.848.391-.645.683a1.556 1.556 0 0 1-.494.366l-1.138.582-1 .442-.721.657s-.114.102-.177.139l-.962.683-.899.783c-.114.102-.253.19-.392.253l-.797.392-.595.721a2.918 2.918 0 0 1-.278.278l-1 .796-1.114.796-1.138.733c-.165.101-.33.177-.519.228l-.886.24-1.531 1.39c-.203.19-.443.329-.709.417l-.759.24-.519.594a1.826 1.826 0 0 1-.949.582l-.987.24-.57.392-.708.821a1.359 1.359 0 0 1-.241.228l-.987.796s-.088.063-.126.101l-1.05.708s-.114.076-.178.101l-.86.455-.696.733a1.88 1.88 0 0 1-.506.379l-1.152.594c-.063.038-.139.063-.202.089l-.798.29-.531.645a1.711 1.711 0 0 1-.519.43l-1.05.581-1.848 1.327-.746.822-.19.189-.759.632-.545.885c-.177.291-.43.531-.746.682l-.633.316-.316.67a1.806 1.806 0 0 1-.772.822l-.974.543-.481.443-.367.884a2.026 2.026 0 0 1-.367.556l-.873.923s-.089.088-.152.139l-1.886 1.529-.645.847a1.008 1.008 0 0 1-.19.215l-.734.708-.493.91c-.076.151-.19.29-.304.417l-.709.733-.455.923s-.064.126-.101.177l-.709 1.099-.089.126-.797 1.024c-.051.076-.114.139-.177.202l-.899.86-1.265 1.542-.228.973a1.966 1.966 0 0 1-.354.733l-.81 1.011s-.063.076-.101.114l-.709.746-.443.922a1.788 1.788 0 0 1-.303.455l-.785.86-.633.96a3.59 3.59 0 0 1-.189.24l-.899.948s-.076.076-.127.114l-.733.645-.507.96a1.868 1.868 0 0 1-.974.872l-1.278.481a1.98 1.98 0 0 1-.658.126h-1.076l-1.025.291c-.164.05-.341.076-.506.076l.114.088z" fill="#000"/><path d="m164.246 199.229.797 1.049.861.948.886.923 1.24.556.86.961 1.088.707.722 1.1.999.822 1.013.771.936.872 1.076.707.696 1.151.949.859.835.986 1.341.417.962.834.645 1.213.899.898 1.151.632.785 1.036 1.139.645.797 1.036 1.164.594 1.202.544 1.076.695.62 1.264 1.291.429.886.923 1.189.556.62 1.289.975.822 1.088.67.974.834 1.253.455 1.126.619.975.822 1.063.707.949.885 1.202.493.721 1.201.962.847 1.101.657 1.215.48 1.025.771 1.062.72 1.013.784 1.088.67 1.05.746 1.342.278.949.91 1 .771 1.227.379.911.91 1.101.606 1.063.683 1.379.038 1.152.48.949.961 1.139.518 1.253.253 1.265.177 1.126.568 1.266.101 1.063.898 1.265.126 1.278-.038 1.19.594 1.29-.151 1.266-.076 1.253.038 1.24.177 1.252.202 1.266.088 1.24.304 1.291-.203 1.265-.101 1.253.177 1.265.127 1.215.417 1.266.126 1.214.341 1.291.152 1.164.544 1.038.758.784.998.772.91.532 1.113.62 1.137.152 1.327-.785 1.112-.506 1.138-.987.783-.633 1.201-1.214.48-1.177.569-1.291.316-1.088.834-1.367.076-1.253.354-1.189.67-1.291.215-1.392-.253-1.227.569-1.367.189.848 1.075.24 1.327.747 1.061.62 1.113.228 1.327.721 1.074.557 1.138.746 1.074.241 1.302 1.05.922.544 1.163-.025 1.403.759 1.062.861 1.023.493 1.176.291 1.264.279 1.264.202 1.289.494 1.175.835 1.049.152 1.315.873 1.023-.329 1.327.544 1.226-.342 1.239-.531 1.125-.469 1.175-.936.847-.873.91-1.19.468-1.227.417-1.417-.278-1.139-.847-1.316-.48-.924-1.037-.936-.821-.962-.797-.645-1.074-.848-.91-.886-.91-.532-1.125-.86-.948-.19-1.301-1.025-.898-.215-1.264-.228-1.264-.734-1.238.355 1.378.063 1.289.962.998.012 1.302.304 1.201.278 1.213.785 1.074.342 1.214.278 1.226-.177 1.289.164 1.251-.582 1.175.076 1.29-.822.998-.254 1.289-1.189.569-.848.91-1.202.253h-1.202l-1.24.227-1-.834-1.139-.392-1.025-.771-.974-.872-.468-1.251-.608-1.125-.569-1.137-.835-1.012-.874-1.011-.417-1.238-.342-1.251-.607-1.163-.291-1.264-.064-1.327-.316-1.302-.114 1.39.367 1.226.646 1.176.139 1.276-.139 1.315.594 1.213-.177 1.314.165 1.277-.342 1.264-.089 1.251-.493 1.226.013 1.441-.899 1.049-1.126.695-1.076.872-1.354-.202-1.316-.101-1.101-.759-1.126-.505-.671-1.074-.784-.961-1.152-.733-.468-1.188-.898-.948-.481-1.188-.722-1.049-.392-1.213-.531-1.151-.064-1.352-.442-1.175-.823-1.037-.063-1.314-.57-1.138-.291-1.213-.569-1.213-.646-1.163-.215-1.365-.632-1.188-.823-1.049-.987-.733-.797-.898-1.089-.518-1.012-.67-1.025-.644-1.253-.354-.885-1.087-1.405-.038-1.025-.809-1.215-.417-1.063-.72-1.253-.342-.999-.846-.962-.898-1.126-.594-1.19-.467-1.265-.329-1.012-.796-1.089-.658-1.341-.189-.936-.935-1.203-.443-1.177-.48-1.113-.619-.861-1.1-1.265-.316-1.291-.316-.911-.948-.999-.821-1.367-.177-1-.796-1.012-.771-1.114-.607-1.012-.784-1.19-.467-.974-.835-1.025-.758-1.341-.227-1.038-.708-.987-.809-.924-.885-1.037-.733-1.101-.619-1.19-.48-.962-.822-1.189-.493-.962-.821-1.101-.632-.911-.898-.949-.846-1.025-.733-1.329-.304-.987-.783-.822-1.037-1.316-.328-.81-1.049-1.24-.418-1-.771-1.126-.606-.987-.809-.987-.809-.899-.897-1.202-.506-.81-1.049-.923-.91-1.203-.531" fill="#FFCD00"/><path d="M218.482 306.887c-.088 0-.19 0-.278-.025l-1.291-.202-1.24-.101a1.963 1.963 0 0 1-.911-.316l-.962-.657-.974-.43a1.825 1.825 0 0 1-.823-.72l-.595-.974-.518-.632-.899-.568a1.938 1.938 0 0 1-.734-.885l-.329-.86-.645-.669a1.99 1.99 0 0 1-.38-.594l-.392-.999-.607-.885a2.37 2.37 0 0 1-.241-.48l-.354-1.112-.494-1.037a1.887 1.887 0 0 1-.177-.695l-.051-1.061-.24-.645-.633-.809a1.792 1.792 0 0 1-.392-1.049l-.051-.935-.392-.796a2.352 2.352 0 0 1-.139-.379l-.253-1.037-.494-1.049-.582-1.062a1.73 1.73 0 0 1-.202-.594l-.165-1.061-.405-.771-.569-.733-.785-.582a1.469 1.469 0 0 1-.291-.265l-.531-.619-.747-.354c-.088-.038-.164-.089-.24-.139l-1.772-1.15-.987-.278a1.843 1.843 0 0 1-.924-.607l-.341-.417h-.557a1.817 1.817 0 0 1-1.114-.417l-.772-.62-.911-.316a1.939 1.939 0 0 1-.43-.214l-.822-.544-.962-.265a1.838 1.838 0 0 1-.709-.38l-1.835-1.63-.809-.43-.988-.379-1.151-.303a1.791 1.791 0 0 1-.696-.341l-.911-.733-.671-.392-.974-.139a1.812 1.812 0 0 1-1.038-.519l-.658-.644-2.075-.822s-.127-.05-.19-.088l-1.114-.619a1.67 1.67 0 0 1-.556-.481l-.456-.594-1.936-.48a1.852 1.852 0 0 1-.886-.518l-.848-.872-.506-.405-.835-.101a1.738 1.738 0 0 1-.911-.392l-1.873-1.466-.987-.531c-.089-.05-.177-.113-.266-.176l-.784-.62-.937-.366a1.9 1.9 0 0 1-.531-.316l-1.531-1.239-.911-.152a1.87 1.87 0 0 1-.734-.303l-1.038-.72s-.076-.051-.114-.089l-.987-.796s-.076-.063-.114-.101l-.822-.796-.836-.594-.923-.519-1.076-.442a1.798 1.798 0 0 1-.493-.303l-.747-.632-.924-.392a1.61 1.61 0 0 1-.468-.291l-.848-.708-.949-.543a1.692 1.692 0 0 1-.38-.291l-1.708-1.617-.658-.456-.974-.227a1.907 1.907 0 0 1-.722-.341l-.999-.784a1.71 1.71 0 0 1-.304-.303l-.43-.544-.709-.177a1.822 1.822 0 0 1-1.012-.657l-.468-.606-.722-.241a2.12 2.12 0 0 1-.531-.278l-.886-.682-.987-.531a1.804 1.804 0 0 1-.304-.202l-1.961-1.618s-.089-.076-.127-.114l-.645-.644-.873-.367a1.87 1.87 0 0 1-.747-.581l-.734-.948-.582-.582-.898-.404a1.853 1.853 0 0 1-.937-2.427 1.858 1.858 0 0 1 2.43-.935l1.202.531c.203.088.392.215.544.366l.911.898s.114.126.165.189l.506.67.747.316c.227.089.417.228.594.392l.848.847 1.759 1.441.962.518c.088.05.177.101.253.164l.759.582.962.328c.342.114.645.329.86.619l.418.531.696.177c.392.101.747.329.987.645l.683.859.507.405.923.215c.228.05.443.151.633.29l1.038.721s.114.088.164.139l1.759 1.643.886.505c.088.051.19.114.266.19l.759.632.924.392c.177.075.329.177.481.29l.746.632.911.367c.076.025.139.063.215.101l1.101.619s.102.063.152.101l1.038.721c.076.05.152.114.215.177l.873.834 1.519 1.15.936.164c.278.051.544.165.772.329l1.025.746s.076.063.114.088l.734.632.898.354c.165.063.329.152.468.265l.874.695.974.531c.088.051.164.101.24.152l1.645 1.276.848.114c.342.038.671.177.937.405l.999.809s.114.101.165.151l.544.569 2.05.518c.392.101.747.329 1 .657l.62.797.696.379 2.214.872c.253.088.468.24.658.417l.506.506.734.101c.241.038.469.113.684.24l1.088.644c.076.038.139.089.202.139l.696.557.886.227c.076.013.139.038.215.063l1.19.468c.063.025.126.05.19.088l1.126.594c.139.076.278.165.392.278l1.595 1.429.86.24c.19.05.38.139.544.252l.861.582.987.341c.202.063.379.164.544.303l.531.418h.785c.544.025 1.05.278 1.392.695l.519.632.683.202c.165.05.329.126.481.215l1.949 1.264.974.455c.228.113.443.265.607.455l.658.758.823.607c.139.101.253.214.354.341l.835 1.049c.064.088.127.177.178.278l.632 1.188c.102.177.165.366.19.569l.165 1.049.493.884.62 1.328c.051.113.089.227.114.341l.253 1.011.468.948c.114.227.178.467.19.72l.038.733.456.569c.126.152.215.329.278.506l.443 1.175c.063.177.101.367.114.543l.051.986.379.822c.038.076.063.152.089.227l.303.961.57.834c.076.114.139.24.19.367l.341.846.658.683c.165.177.304.379.393.607l.253.632.645.404c.165.101.316.24.443.392l.785.96c.05.064.101.139.151.203l.367.594.608.265c.101.051.202.101.303.164l.684.481.81.063s.088 0 .139.012l.544.089.43-.354c.064-.051.127-.101.203-.139l.898-.556.266-.303v-.746c0-.24.038-.48.126-.695l.38-.961.063-.973c0-.114.026-.228.051-.341l.24-.923-.114-.923a1.623 1.623 0 0 1 0-.492l.102-.746-.342-.708a1.804 1.804 0 0 1-.177-.998l.114-1.125v-.076l-.139-.253a1.77 1.77 0 0 1-.165-.43l-.24-.809a1.81 1.81 0 0 1-.152-.366l-.355-1.226c-.063-.215-.088-.442-.063-.67l.114-1.39a1.854 1.854 0 0 1 1.696-1.694 1.863 1.863 0 0 1 1.936 1.403l.316 1.302c.026.114.051.227.051.341l.051 1.138.303.556c.114.215.19.455.215.695l.038.316.152.291c.063.126.114.252.152.379l.595 2.022 1.506 1.795c.088.101.164.227.227.341l1.139 2.199a1.9 1.9 0 0 1 .102.228l.316.834.569.518.734.543.873.304c.215.076.418.189.582.328l.33.266.392-.076c.114-.025.228-.038.341-.025h1.013l.443-.089.443-.48c.164-.177.354-.316.556-.417l.355-.164.076-.392c.063-.291.189-.569.379-.809l.355-.442-.038-.569c-.026-.329.05-.645.189-.936l.342-.669-.089-.695a1.63 1.63 0 0 1 0-.493l.127-.948-.443-1.707-.595-.821a2.139 2.139 0 0 1-.303-.67l-.57-2.376a1.599 1.599 0 0 1-.05-.43v-.379a1.474 1.474 0 0 1-.14-.329l-.316-.328a1.836 1.836 0 0 1-.519-1.201l-.05-1.099-.304-1.201a1.851 1.851 0 0 1 1.088-2.161 1.835 1.835 0 0 1 2.291.771l.734 1.238c.113.19.189.392.227.607l.291 1.63c.102.139.19.291.253.443l.33.29c.329.291.544.683.607 1.113l.114.745.481.544c.113.126.215.278.291.429l.417.86 1.531 1.618c.089.088.165.189.228.303l.494.821 1.695 1.441s.114.101.165.165l.62.695.873.316c.165.063.329.151.468.253l.797.594.519.101 1.506-.544 1.304-1.264.949-2.313-.279-.619a1.837 1.837 0 0 1-.101-1.188l.101-.404-.265-.316a1.883 1.883 0 0 1-.431-.986l-.088-.784-.506-.632a1.832 1.832 0 0 1-.254-.429l-.493-1.176a1.718 1.718 0 0 1-.127-.43l-.202-1.289-.506-2.237-.329-.783-.684-.809s-.063-.089-.101-.127l-.746-1.061a1.849 1.849 0 0 1-.342-1.087v-.986l-.19-.443-.759-.669a1.835 1.835 0 0 1-.595-1.037l-.177-.91-.519-.745a1.456 1.456 0 0 1-.139-.241l-.506-1.036-.646-.973a1.808 1.808 0 0 1-.278-.708l-.177-1.011-.43-.771-.684-.986a1.897 1.897 0 0 1-.303-.72l-.152-.86-.57-.708a1.838 1.838 0 0 1-.265-1.832 1.828 1.828 0 0 1 1.455-1.138l1.101-.151.987-.455a1.928 1.928 0 0 1 1.101-.139l1.063.202.658-.114.898-.505c.127-.076.266-.127.405-.165l1.253-.354c.139-.038.266-.063.405-.063l.797-.038.645-.493c.203-.151.418-.252.658-.316l1.114-.278 1.025-.493s.076-.038.126-.05l.57-.215.304-.594c.113-.228.291-.43.493-.594l.633-.506.329-.733c.05-.113.114-.215.177-.303l.38-.544-.026-.265-.911-1.807-1.291-1.58-.683-.506-.734-.341-1-.126c-.101 0-.189-.026-.291-.051l-1.063-.303-1.088-.101a2.63 2.63 0 0 1-.43-.089l-1.012-.354-2.164-.265-1.063.088-1.164.177a1.73 1.73 0 0 1-.722-.038l-1.088-.265-1.101-.076s-.114 0-.177-.025l-2.354-.367-1.063-.038-2.379.215a1.94 1.94 0 0 1-1.037-.177l-.772-.391h-.823a.647.647 0 0 1-.215 0l-1.265-.114a1.833 1.833 0 0 1-1.013-.43l-.62-.518-.683-.051a1.706 1.706 0 0 1-.671-.189l-.86-.43-.962-.139-1.354-.265a2.193 2.193 0 0 1-.405-.127l-1.139-.531a1.77 1.77 0 0 1-.544-.379l-.683-.682-.506-.203-1.038-.037c-.329 0-.645-.114-.924-.279l-1.063-.669-.999-.544a1.965 1.965 0 0 1-.418-.316l-.595-.594-.784-.24a1.705 1.705 0 0 1-.582-.303l-.987-.771s-.102-.076-.14-.127l-.569-.543-.823-.177a1.769 1.769 0 0 1-.683-.303l-1.05-.746-1-.607s-.114-.076-.164-.114l-.962-.745-1.013-.683-.898-.682-.987-.379c-.101-.038-.19-.089-.291-.139l-1.088-.67a1.783 1.783 0 0 1-.253-.177l-.975-.847a1.64 1.64 0 0 1-.379-.455l-.405-.67-.646-.265a2.005 2.005 0 0 1-.556-.354l-.823-.771-.936-.619c-.064-.038-.127-.089-.19-.139l-.823-.708-.835-.455-1.114-.392a1.878 1.878 0 0 1-.594-.341l-.848-.733-.962-.594c-.076-.051-.152-.102-.228-.165l-.974-.834a1.82 1.82 0 0 1-.468-.607l-.329-.695-.582-.278a2.06 2.06 0 0 1-.544-.379l-.583-.607-.86-.29a1.865 1.865 0 0 1-1.063-.923l-.405-.809-.531-.341-1.076-.48-1.265-.645a1.966 1.966 0 0 1-.608-.505l-.569-.746-.81-.455a1.951 1.951 0 0 1-.57-.493l-.544-.72-.797-.43a1.755 1.755 0 0 1-.418-.316l-.911-.91a1.783 1.783 0 0 1-.329-.455l-.481-.91-.417-.354-.962-.303a1.824 1.824 0 0 1-.848-.556l-.772-.885-.86-.784a1.92 1.92 0 0 1-.354-.43l-.469-.796-.721-.48a2.93 2.93 0 0 1-.228-.177l-.885-.809-1.987-1.58a2.043 2.043 0 0 1-.38-.417l-.519-.783-.759-.506a2.105 2.105 0 0 1-.354-.303l-.608-.67-.885-.392a1.89 1.89 0 0 1-.583-.417l-1.771-1.896s-.076-.088-.114-.139l-.785-1.036a1.835 1.835 0 0 1 .355-2.579 1.839 1.839 0 0 1 2.581.354l.734.973 1.43 1.53.899.404c.227.101.442.253.607.443l.709.783.885.581c.216.14.393.317.532.531l.569.872 1.747 1.378s.088.063.126.101l.835.771.962.632c.228.152.418.354.569.594l.545.91.746.67s.114.101.165.164l.493.582.835.252c.241.076.469.203.658.367l.962.834c.177.152.316.329.43.531l.507.961.518.518.912.493c.227.126.43.303.594.505l.557.733.797.455c.215.127.405.278.557.48l.557.708.797.417 1.114.493c.088.038.177.089.265.152l1.063.708c.266.177.494.429.633.72l.291.582.57.189c.278.089.531.253.733.455l.659.683.873.404c.392.177.696.493.885.872l.443.935.57.481.974.594c.089.05.165.113.241.177l.708.606.937.329c.088.038.177.076.265.126l1.127.62c.114.063.215.139.316.214l.886.759.974.632c.089.063.165.126.241.189l.696.658.898.379c.367.151.671.417.873.758l.557.948.633.543.822.493 1.076.417c.152.064.303.152.443.253l1.025.771.974.657s.076.051.101.076l.937.721 1.835 1.2.974.203c.342.075.645.227.898.467l.886.847.658.506.911.278c.291.088.557.252.76.467l.734.733 1.607.936.873.038c.215 0 .43.05.632.139l1.152.48c.228.088.43.227.607.404l.709.721.645.29 1.038.215 1.164.165c.19.025.393.088.57.177l.81.404.911.076a1.77 1.77 0 0 1 1.037.429l.62.531.582.051 1.177-.025c.304 0 .595.063.861.189l.696.341 2.1-.176h.178l1.252.037c.064 0 .14 0 .203.013l2.442.379 1.177.076c.101 0 .215.025.316.051l.886.214.924-.139 1.404-.126c.14-.013.279 0 .418 0l2.43.291c.139.012.278.05.417.088l1.013.354 1.037.101c.114 0 .228.025.329.063l1.076.304 1.139.139c.19.025.367.076.544.151l1.164.531c.114.051.228.114.329.19l1.038.758c.126.101.253.215.354.341l1.519 1.858c.101.127.189.253.253.405l1.101 2.174c.113.202.177.429.215.657l.152 1.327c.05.455-.064.91-.329 1.277l-.684.973-.43.973a1.898 1.898 0 0 1-.531.682l-.671.544-.443.859a1.852 1.852 0 0 1-.962.872l-1.151.443-1.127.531c-.113.05-.227.088-.341.126l-.924.227-.797.607a1.746 1.746 0 0 1-1.025.367l-1.152.063-.848.24-.987.569a2.043 2.043 0 0 1-.607.215l-1.303.214a1.845 1.845 0 0 1-.646 0l-.81-.151-.088.038.088.467.507.733s.063.102.101.152l.632 1.125c.102.177.178.379.203.581l.164.936.507.745c.05.064.088.139.126.215l.506 1.024.658.948c.152.215.253.455.291.708l.127.682.569.506c.19.164.342.379.456.606l.544 1.163c.114.253.177.518.165.796v.809l.354.518.81.961c.126.139.215.303.291.48l.493 1.176c.038.088.076.189.089.29l.582 2.553.19 1.163.316.733.684.847c.215.278.354.594.392.948l.088.758.507.607c.379.455.531 1.062.379 1.63l-.177.708.291.645c.177.392.203.834.089 1.238l-.342 1.239c-.025.101-.063.19-.101.291l-.532 1.137-.43 1.074a2.018 2.018 0 0 1-.456.67l-.923.847-.81.834c-.19.19-.405.342-.658.443l-2.48.91a1.915 1.915 0 0 1-.962.063l-1.417-.278a1.878 1.878 0 0 1-.747-.329l-.924-.682-1.063-.379a1.794 1.794 0 0 1-.746-.506l-.848-.948-1.671-1.415.102.745c.05.367-.013.733-.177 1.062l-.367.733.05.796c.026.468-.114.923-.417 1.277l-.532.644-.164.834a1.862 1.862 0 0 1-1.013 1.302l-.873.417-.607.658c-.266.29-.608.48-.987.556l-1.215.24c-.127.025-.253.088-.367.038h-1.025l-1.076.202a1.83 1.83 0 0 1-1.518-.405l-.734-.606-.823-.278a1.93 1.93 0 0 1-.506-.266l-1.037-.771s-.089-.075-.14-.113l-.961-.872a1.805 1.805 0 0 1-.481-.708l-.431-1.138-.291-.543-.05.771a1.704 1.704 0 0 1-.127.556l-.354.885v1.087c.013.442-.139.884-.43 1.213l-.899 1.049a1.97 1.97 0 0 1-.43.366l-1.025.632-.974.797a1.813 1.813 0 0 1-1.177.417l-.089.113z" fill="#000"/></svg>