<svg data-v-196d1daa="" aria-hidden="true" width="63" height="64" viewBox="0 0 63 64" fill="none" xmlns="http://www.w3.org/2000/svg"><path data-v-196d1daa="" d="M35.8116 26.8523L33.5429 30.2244L30.6205 33.0652L27.0849 35.1089L23.1404 36.1716L19.0939 36.4782L15.0269 35.9673L11.2257 34.4958L7.83302 32.2068L4.86973 29.4069L2.74419 25.9326L1.23186 22.1517L0.496155 18.1052L0.945712 13.9973L2.58078 10.2369L4.76745 6.783L7.66961 3.88093L11.3277 2.02114L15.2108 0.651855L19.2982 0.692739L23.4061 0.937974L27.2688 2.40945L30.641 4.78017L33.5224 7.68224L35.648 11.1566L37.2421 14.917L37.7735 18.984L37.0787 23.0101L35.8116 26.8523Z" fill="white"></path><path data-v-196d1daa="" d="M59.439 44.6132L57.1706 47.9649L54.4525 51.051L50.7328 52.829L46.8701 54.1983L42.7623 54.3005L38.7157 53.6669L34.8736 52.2976L31.4198 50.07L28.5176 47.2088L26.4125 43.6936L25.0025 39.8923L24.3893 35.8661L24.7777 31.7992L26.0653 27.8957L28.2724 24.4009L31.5423 21.9075L34.9963 19.7617L38.8794 18.4945L42.987 18.4741L47.0745 18.7194L50.9167 20.2521L54.432 22.3981L57.2319 25.4227L59.3981 28.8971L60.9718 32.6779L61.5032 36.7654L60.788 40.7915L59.439 44.6132Z" fill="white"></path><path data-v-196d1daa="" class="mouth" d="M14.3346 63.929C14.1916 63.929 14.0279 63.929 13.8848 63.9086L10.2879 63.4794C9.77696 63.4181 9.26609 63.2546 8.81647 62.9889L5.64886 61.17C5.01531 60.8021 4.48396 60.2503 4.13653 59.5963L2.37872 56.1833C2.13347 55.7133 1.99049 55.2024 1.94962 54.671L1.68392 50.8492C1.66349 50.5223 1.68398 50.1748 1.7453 49.8478L2.46055 46.0465C2.86929 43.9415 4.89251 42.5518 6.99753 42.9605C9.10256 43.3693 10.4719 45.3925 10.0836 47.4976L9.45014 50.8084L9.63401 53.3426L10.5129 55.0184L12.0048 55.8768L14.2119 56.1425L16.5009 55.6929L19.0146 54.1396C20.8335 53.0156 23.2246 53.5674 24.3487 55.3863C25.4727 57.2052 24.9209 59.5963 23.102 60.7204L19.9955 62.6619C19.6072 62.9072 19.1576 63.0911 18.708 63.1728L15.1315 63.8882C14.8862 63.929 14.641 63.9699 14.3753 63.9699L14.3346 63.929Z" fill="black"></path><path data-v-196d1daa="" class="eye_left dir-right" d="M36.6962 27.0693L33.8759 30.4414L30.0746 32.7304L25.6192 32.9756L21.2865 31.9129L17.7714 29.1334L15.3599 25.373L14.849 20.9585L15.8299 16.6259L18.6503 13.1516L22.6354 11.2305L27.009 10.8013L31.3008 11.9049L34.7752 14.6435L37.2071 18.363L37.8815 22.7774L36.6962 27.0693Z" fill="black"></path><path data-v-196d1daa="" class="eye_right dir-right" d="M61.3226 45.2363L58.6043 48.6697L54.701 50.7543L50.3069 51.2243L46.0558 49.9777L42.5407 47.28L40.1293 43.5604L39.3933 39.146L40.5993 34.8542L43.3378 31.339L47.3434 29.4179L51.717 28.9683L55.9885 30.1536L59.565 32.7696L61.8335 36.6118L62.5692 40.9853L61.3226 45.2363Z" fill="black"></path></svg>