<svg width="221" height="50" viewBox="0 0 221 50" fill="none" xmlns="http://www.w3.org/2000/svg">
<g clip-path="url(#clip0_1707_12559)">
<mask id="mask0_1707_12559" style="mask-type:luminance" maskUnits="userSpaceOnUse" x="0" y="9" width="220" height="40">
<path d="M220 9.83337H0V48.1667H220V9.83337Z" fill="white"/>
</mask>
<g mask="url(#mask0_1707_12559)">
<path d="M4.54217 28.555L13.322 39.3917L15.9007 37.3784L8.44433 28.3687L14.8754 20.2412L12.2595 18.3336L4.54217 28.555ZM0 10.5666V38.882H3.34293V9.83337L0 10.5666Z" fill="white"/>
<path d="M18.877 33.4945C18.8223 32.618 18.9768 31.7412 19.328 30.9362C19.6791 30.1313 20.2168 29.4215 20.8963 28.8653C22.2385 27.8048 24.1936 27.2727 26.762 27.2685H30.6206V25.9885C30.6206 22.8858 29.262 21.3344 26.5445 21.3344C25.6195 21.3428 24.699 21.466 23.8043 21.701C22.901 21.9301 22.0195 22.2378 21.1698 22.6206L20.188 20.2408C21.1995 19.6675 22.2815 19.2289 23.4066 18.936C24.5005 18.638 25.6283 18.4834 26.762 18.4762C31.472 18.4596 33.827 20.9885 33.827 26.063V38.8817H31.3415L30.9438 36.6822C29.9871 37.4657 28.9136 38.0947 27.7625 38.5462C26.7425 38.9655 25.6526 39.189 24.55 39.2048C23.789 39.2482 23.027 39.1355 22.3111 38.8738C21.5951 38.612 20.9403 38.2067 20.3868 37.6825C19.8656 37.1212 19.4631 36.4603 19.2036 35.7395C18.9441 35.0188 18.8331 34.253 18.877 33.4883M25.1526 36.4957C25.635 36.4925 26.115 36.43 26.5818 36.3093C27.087 36.186 27.5831 36.0282 28.0668 35.837C28.5521 35.6427 29.018 35.4035 29.4588 35.1225C29.8705 34.855 30.2591 34.5537 30.6206 34.2215V29.5365H27.141C25.3805 29.5365 24.0963 29.8408 23.2886 30.4498C22.8631 30.7963 22.5278 31.2407 22.3115 31.7448C22.095 32.2492 22.004 32.7983 22.0458 33.3453C22.0458 35.4457 23.0815 36.4957 25.1526 36.4957Z" fill="white"/>
<path d="M43.1099 38.882H39.7671V10.5666L43.1099 9.83337V38.882ZM52.0451 18.3336L54.6611 20.2412L48.2299 28.3935L55.6863 37.4032L53.0891 39.3917L44.2968 28.555L52.0451 18.3336Z" fill="white"/>
<path d="M58.6445 33.4945C58.59 32.6187 58.7442 31.7425 59.0942 30.9377C59.4442 30.133 59.98 29.4228 60.6577 28.8653C62.006 27.8028 63.9572 27.2685 66.5295 27.2685H70.382V25.9885C70.382 22.8858 69.0253 21.3344 66.312 21.3344C65.385 21.3423 64.4623 21.4655 63.5657 21.701C62.6623 21.9301 61.7808 22.2378 60.931 22.6206L59.9245 20.2408C60.9365 19.6686 62.0183 19.2299 63.1432 18.936C64.239 18.6376 65.369 18.483 66.5047 18.4762C71.2312 18.4596 73.5945 20.9885 73.5945 26.063V38.8817H71.109L70.7113 36.6822C69.7547 37.4657 68.6812 38.0947 67.53 38.5462C66.51 38.9655 65.4202 39.189 64.3175 39.2048C63.5565 39.2482 62.7945 39.1355 62.0787 38.8738C61.3627 38.612 60.7078 38.2067 60.1543 37.6825C59.6342 37.1207 59.233 36.4595 58.9745 35.7388C58.7162 35.0182 58.606 34.2527 58.6507 33.4883M64.8953 36.5018C65.3797 36.4988 65.8617 36.4362 66.3307 36.3155C66.8338 36.1922 67.328 36.0343 67.8095 35.8433C68.2953 35.6502 68.7615 35.411 69.2015 35.1287C69.6132 34.8612 70.0018 34.5598 70.3633 34.2277V29.5427H66.89C65.1253 29.5427 63.839 29.8472 63.0313 30.456C62.6115 30.8058 62.2822 31.2515 62.0712 31.7555C61.8603 32.2597 61.774 32.8072 61.8197 33.3517C61.8197 35.4518 62.8448 36.5018 64.8953 36.5018Z" fill="white"/>
<path d="M87.0275 18.5198C89.7863 18.5198 91.9611 19.4208 93.5331 21.2289C95.1051 23.0371 95.8943 25.622 95.8943 28.9898C95.8943 32.3576 95.1176 34.8679 93.5518 36.6449C91.986 38.4221 89.8236 39.3231 87.0275 39.3231C84.2313 39.3231 82.1 38.4283 80.5218 36.6449C78.9435 34.8616 78.1606 32.2954 78.1606 28.9898C78.1606 25.6841 78.956 23.0309 80.5405 21.2289C82.125 19.427 84.2686 18.5198 87.0275 18.5198ZM87.0275 21.2289C86.2458 21.1911 85.4673 21.3525 84.7651 21.6982C84.063 22.0438 83.4601 22.5623 83.0135 23.2049C82.0815 24.5222 81.6155 26.4546 81.6155 28.9898C81.6155 31.5249 82.0815 33.4076 83.0135 34.6878C83.5005 35.2898 84.1158 35.7753 84.8146 36.1089C85.5135 36.4424 86.278 36.6156 87.0523 36.6156C87.8266 36.6156 88.5911 36.4424 89.29 36.1089C89.9888 35.7753 90.6043 35.2898 91.0911 34.6878C92.0233 33.4076 92.4893 31.5084 92.4893 28.9898C92.4893 26.4546 92.0233 24.5222 91.0911 23.2049C90.6386 22.5593 90.0293 22.0393 89.3206 21.6937C88.6121 21.3481 87.8273 21.1882 87.04 21.2289" fill="white"/>
<path d="M101.034 37.2975L104.762 33.5693L108.49 37.2975L104.762 41.0258L101.034 37.2975ZM101.761 11.5793H107.769L106.968 29.7293H102.618L101.761 11.5793Z" fill="white"/>
<path d="M112.591 18.6127H116.22L116.947 20.5576C118.634 18.9403 120.873 18.0251 123.21 17.9976C125.659 17.9976 127.411 18.8364 128.405 20.5576C130.07 18.9365 132.295 18.0195 134.619 17.9976C138.626 17.9976 140.832 20.2904 140.832 25.3732V38.7448H135.669V25.6963C135.669 23.4407 134.824 22.49 132.456 22.49C131.362 22.4909 130.277 22.6844 129.25 23.0617V38.7635H124.13V25.7148C124.13 23.4593 123.328 22.5087 120.955 22.5087C119.85 22.5261 118.755 22.719 117.711 23.0803V38.7822H112.591V18.6127Z" fill="white"/>
<path d="M150.308 38.9012V46.5067H145.188V18.6137H148.817L149.438 20.2914C150.19 19.5323 151.092 18.9368 152.085 18.5423C153.078 18.1478 154.142 17.9626 155.211 17.9985C160.48 17.9985 162.853 21.938 162.853 28.3132C162.853 35.0052 159.032 39.3175 153.564 39.3175C152.464 39.337 151.367 39.1968 150.308 38.9012ZM150.308 22.8514V35.347C150.925 35.4345 151.549 35.472 152.172 35.4588C156.223 35.4588 157.671 32.669 157.671 28.3132C157.671 24.585 156.795 22.0995 153.471 22.0995C152.376 22.1294 151.299 22.3853 150.308 22.8514Z" fill="white"/>
<path d="M173.97 26.4791H177.182V25.7956C177.182 23.5773 176.492 22.3159 173.453 22.3159C171.562 22.2985 169.697 22.7579 168.03 23.6519L166.613 20.1349C168.843 18.7278 171.43 17.9862 174.068 17.9974C179.227 17.9974 181.935 20.5202 181.935 25.7521V38.7448H178.343L177.772 37.0236C176.05 38.4241 173.913 39.2169 171.695 39.2791C167.762 39.2791 165.581 36.9491 165.581 32.9413C165.6 28.6973 168.508 26.4791 173.97 26.4791ZM177.182 33.6993V29.7661H174.43C171.677 29.7661 170.223 30.8721 170.223 32.8729C170.223 34.3269 171.068 35.2838 172.745 35.2838C174.36 35.2641 175.92 34.7066 177.182 33.6993Z" fill="white"/>
<path d="M200.613 23.1921C199.078 22.4844 197.408 22.1196 195.717 22.1234C192.742 22.1234 190.747 23.9191 190.747 28.6601C190.747 33.4011 192.81 35.1161 196.208 35.1161C197.983 35.0517 199.73 34.6642 201.365 33.9727L202.552 37.5207C200.342 38.7349 197.853 39.3537 195.332 39.3166C188.795 39.3166 185.59 35.4579 185.59 28.6974C185.59 22.2042 188.795 17.9975 195.407 17.9975C197.765 17.9213 200.097 18.5091 202.137 19.6939L200.613 23.1921Z" fill="white"/>
<path d="M203.988 18.9925L207.2 18.6135V14.5622L212.395 13.45V18.6135H218.435V22.4722H212.395V31.2209C212.395 34.3278 213.197 34.9491 214.688 34.9491C215.827 34.9119 216.95 34.6808 218.012 34.2656L219.198 37.8571C217.392 38.8336 215.368 39.3439 213.315 39.3421C209.07 39.3421 207.2 36.7449 207.2 31.5876V22.4722H203.988V18.9925Z" fill="white"/>
</g>
</g>
<defs>
<clipPath id="clip0_1707_12559">
<rect width="221" height="50" fill="white"/>
</clipPath>
</defs>
</svg>
