<svg width="81" height="80" viewBox="0 0 81 80" fill="none" xmlns="http://www.w3.org/2000/svg">
<g clip-path="url(#clip0_1509_38119)">
<path d="M26.3904 1.39717C17.2437 3.8378 7.63812 12.292 3.67142 20.8971C0.641383 27.4642 -0.509025 34.9559 0.207623 42.152C1.18201 51.9397 5.19272 61.9098 12.3466 68.653C21.7133 77.4783 31.3063 80.397 45.7587 79.9504C54.3459 79.6862 63.7126 77.1323 72.0358 68.5398C80.6544 59.6453 83.6279 41.3846 78.4416 28.37C71.8661 11.8894 50.4987 -5.03152 26.3904 1.39717Z" fill="#FFD000"/>
<path d="M44.2001 45.9065C48.7913 43.7984 50.2219 37.0929 47.3953 30.9296C44.5688 24.7662 38.5555 21.4789 33.9642 23.5871C29.373 25.6953 27.9424 32.4007 30.769 38.564C33.5955 44.7274 39.6088 48.0147 44.2001 45.9065Z" fill="white"/>
<path d="M58.1267 38.9085C62.7179 36.8003 64.1485 30.0949 61.322 23.9315C58.4954 17.7682 52.4821 14.4808 47.8909 16.589C43.2996 18.6972 41.8691 25.4026 44.6956 31.566C47.5222 37.7293 53.5355 41.0167 58.1267 38.9085Z" fill="white"/>
<path d="M45.9946 39.114C48.6578 37.8911 49.488 34.0022 47.8488 30.428C46.2097 26.8538 42.7219 24.9476 40.0587 26.1705C37.3954 27.3934 36.5653 31.2823 38.2044 34.8565C39.8436 38.4307 43.3314 40.3369 45.9946 39.114Z" fill="black"/>
<path d="M60.1718 32.0085C62.835 30.7856 63.6652 26.8968 62.026 23.3225C60.3869 19.7483 56.8991 17.8421 54.2358 19.065C51.5726 20.2879 50.7424 24.1768 52.3816 27.751C54.0208 31.3253 57.5086 33.2314 60.1718 32.0085Z" fill="black"/>
<path d="M33.1292 51.7324C35.3923 56.2677 42.4142 58.4819 47.5753 57.0414" stroke="black" stroke-width="5" stroke-linecap="round" stroke-linejoin="round"/>
</g>
<defs>
<clipPath id="clip0_1509_38119">
<rect width="81" height="80" fill="white"/>
</clipPath>
</defs>
</svg>
