<svg data-v-c0b431c9="" aria-hidden="true" width="97" height="138" viewBox="0 0 97 138" fill="none" xmlns="http://www.w3.org/2000/svg"><path data-v-c0b431c9="" d="M44.0403 43.9956L41.5013 48.7271L38.9624 53.478L37.289 58.5751L36.5196 63.8837L36.0965 69.2309L36.5774 74.5973L38.4623 79.6366L41.5397 84.0029L45.3674 87.6573L49.926 90.4848L55.2154 91.3119L60.601 91.735L65.8904 90.504L70.872 88.4652L75.4498 85.6185L79.5852 82.1756L83.4897 78.521L86.6826 74.2125L89.7986 69.8272L92.1644 64.9801L93.9148 59.883L94.8572 54.5552L94.8765 49.1887L94.434 43.8224L92.626 38.7253L89.6063 34.3207L85.6248 30.82L81.047 28.1273L75.8152 27.0309L70.4682 26.9731L65.1402 27.8964L60.2162 30.0698L55.7346 33.032L51.4454 36.2056L47.4639 39.8216L44.0403 43.9956Z" fill="white"></path><path data-v-c0b431c9="" d="M8.86207 17.1437L5.66923 21.4907L3.2842 26.3569L1.70698 31.5117L0.84141 36.8396L0.687503 42.206L1.43767 47.4954L3.07254 52.5925L5.74613 57.2664L9.95844 60.5748L14.517 63.3637L19.7487 64.5947L25.1536 64.6717L30.366 63.2483L35.3092 61.1518L40.0601 58.6514L44.0417 55.0546L48.0423 51.4769L51.4661 47.3223L54.1588 42.6868L56.4093 37.8206L58.5828 32.8774L59.5637 27.5494L59.7175 22.1446L58.7751 16.8359L56.9863 11.7966L54.3512 7.14189L50.4275 3.44894L45.5804 1.12155L40.3678 0.0444336L35.0592 0.236847L29.7313 0.967642L24.8265 3.16038L20.1142 5.75708L16.0365 9.21923L12.055 12.816L8.86207 17.1437Z" fill="white"></path><path data-v-c0b431c9="" class="eye_left" d="M67.6152 54.3993L64.6915 59.1886L63.1335 64.5934V70.1714L64.3837 75.5955L68.0575 79.8847L73.3469 81.7503L78.8672 81.3273L84.0797 79.3653L88.5228 76.0186L92.1965 71.8063L94.9277 66.94L96.7358 61.6506L96.9089 56.0726L95.274 50.7447L91.6964 46.5324L86.5031 44.6475L80.9445 44.6667L75.6935 46.7055L71.1735 50.0523L67.6152 54.3993Z" fill="black"></path><path data-v-c0b431c9="" class="eye_right" d="M31.5355 26.9138L28.6887 31.7415L27.1693 37.1272L26.9385 42.6858L28.5349 47.9945L32.0356 52.3029L37.248 54.3034L42.8067 53.9571L48.0193 51.9375L52.6547 48.7639L56.0976 44.3208L58.8289 39.4544L60.7138 34.1842L60.7715 28.5871L59.0981 23.2977L55.6552 18.97L50.4427 16.9312L44.8263 17.0849L39.71 19.3931L35.2669 22.7783L31.5355 26.9138Z" fill="black"></path><path data-v-c0b431c9="" class="mouth" d="M78.6155 118.716C77.6158 115.791 74.4348 114.23 71.5097 115.23L67.1809 116.711L63.0448 117.147L58.7835 116.954L54.3365 115.902L49.9693 114.69L46.0391 112.598L42.2074 110.261L39.015 107.201L35.6342 103.464C33.5611 101.171 30.0212 100.993 27.7284 103.066C25.4356 105.139 25.2577 108.679 27.3305 110.972L30.8333 114.846C30.9219 114.944 31.0139 115.039 31.1092 115.131L34.8902 118.759C35.1826 119.04 35.5058 119.287 35.8517 119.498L40.3295 122.23C40.4231 122.287 40.5183 122.342 40.615 122.393L45.2519 124.861C45.6105 125.051 45.989 125.202 46.3803 125.311L51.4318 126.716C51.502 126.735 51.5736 126.754 51.6446 126.77L56.7159 127.968C57.0552 128.048 57.4018 128.097 57.7501 128.113L62.9686 128.349C63.2497 128.362 63.5318 128.353 63.8115 128.324L68.9779 127.777C69.3937 127.733 69.8041 127.642 70.1997 127.507L75.1297 125.822C78.0548 124.822 79.6152 121.641 78.6155 118.716Z" fill="black"></path></svg>