<svg data-v-ff937995="" aria-hidden="true" width="78" height="74" viewBox="0 0 78 74" fill="none" xmlns="http://www.w3.org/2000/svg"><path data-v-ff937995="" d="M40.7892 20.7281L42.2956 25.1627L42.8541 29.8343L41.9064 34.4552L40.1629 38.8052L37.5395 42.7151L34.0187 45.8464L30.1089 48.5039L25.6065 50.0272L20.884 50.3489L16.2293 49.7395L11.6762 48.5039L7.68169 45.9819L4.1948 42.7659L1.92676 38.619L0.284967 34.1844L0.0649185 29.445L1.04656 24.858L2.80695 20.5249L5.36282 16.5981L8.73111 13.2974L12.8271 10.9277L17.2956 9.42139L21.9842 8.86279L26.622 9.57366L31.1244 10.894L35.2712 13.1789L38.6056 16.5472L40.7892 20.7281Z" fill="white"></path><path data-v-ff937995="" d="M73.9977 12.162L75.2672 16.6812L75.6395 21.3359L74.9118 25.9737L73.3037 30.3914L70.4432 34.1321L67.1427 37.4835L62.9787 39.684L58.6288 41.5119L53.9063 41.8505L49.2178 41.4104L44.8339 39.7516L40.6024 37.6359L37.2849 34.2337L34.9999 30.1037L33.5104 25.6521L32.9348 20.9467L34.052 16.3596L35.6429 11.9419L38.2496 7.99812L41.7196 4.76526L45.8833 2.54794L50.2841 0.804492L55.0066 0.279785L59.7121 0.804492L64.2143 2.26012L68.1413 4.88376L71.5265 8.1505L73.9977 12.162Z" fill="white"></path><path data-v-ff937995="" class="mouth" d="M57.8913 51.2666C60.5056 51.4677 62.4625 53.7501 62.2617 56.3643L61.9394 60.5463C61.8916 61.167 61.7232 61.7728 61.4418 62.3281L59.5277 66.1018C59.2928 66.5655 58.9837 66.9881 58.612 67.3515L55.5987 70.297C55.1126 70.7719 54.5305 71.1376 53.8912 71.3681L49.9473 72.7896C49.1888 73.0631 48.3727 73.1385 47.5769 73.0095L43.1933 72.2987C42.4886 72.1844 41.8181 71.9126 41.2329 71.5037L37.5766 68.9482C37.2089 68.6911 36.8794 68.382 36.5981 68.0325L33.8046 64.5629C32.1611 62.5204 32.4847 59.5323 34.5269 57.8883C36.5696 56.2443 39.5591 56.5663 41.2032 58.609L43.5685 61.5513L45.7802 63.0968L47.8827 63.4389L49.701 62.7827L51.4118 61.1099L52.544 58.8735L52.7936 55.637C52.9947 53.0227 55.277 51.0657 57.8913 51.2666Z" fill="black"></path><path data-v-ff937995="" class="eye_right to-right" d="M42.3492 28.4847L43.4494 32.4453L43.1447 36.5584L41.5537 40.333L38.8962 43.4474L35.4603 45.6478L31.5672 46.9173L27.4541 46.8665L23.612 45.4785L20.3621 43.0242L18.0263 39.6898L16.9599 35.746L17.2984 31.6838L18.6187 27.7907L21.3438 24.6763L24.8476 22.5605L28.7235 21.2402L32.8367 21.4096L36.679 22.7636L39.9625 25.1671L42.3492 28.4847Z" fill="black"></path><path data-v-ff937995="" class="eye_left to-right" d="M76.5765 19.361L77.5584 23.3725L77.2536 27.4517L75.798 31.2939L73.1237 34.4083L69.7216 36.7611L65.7437 37.8274L61.6308 37.709L57.6701 36.5579L54.5049 33.9344L52.0336 30.6507L51.1364 26.6392L51.255 22.5431L52.8629 18.7347L55.605 15.7049L58.9396 13.3352L62.9003 12.2689L67.0301 12.1504L70.9063 13.5383L74.2746 15.9418L76.5765 19.361Z" fill="black"></path></svg>