<svg width="40" height="40" viewBox="0 0 40 40" fill="none" xmlns="http://www.w3.org/2000/svg">
<rect width="40" height="40" rx="12" fill="#104ABF"/>
<mask id="mask0_970_13712" style="mask-type:luminance" maskUnits="userSpaceOnUse" x="7" y="6" width="26" height="28">
<path d="M32.81 6H7.5V33.2109H32.81V6Z" fill="white"/>
</mask>
<g mask="url(#mask0_970_13712)">
<path d="M32.81 32.6475V12.2749C32.81 11.7379 32.3749 11.3027 31.8378 11.3027H8.4722C7.93513 11.3027 7.5 11.7379 7.5 12.2749V32.6485C7.5 33.0444 7.898 33.3151 8.26627 33.1707L20.1545 28.4944L32.0427 33.1707C32.4109 33.3151 32.8089 33.0444 32.8089 32.6485" fill="#FAE100"/>
<path d="M19.2025 6.37253H21.8919C21.946 6.37253 21.9906 6.32902 21.9906 6.27383V6.16981C21.9906 6.11569 21.9471 6.07111 21.8919 6.07111H19.2025C19.1483 6.07111 19.1037 6.11463 19.1037 6.16981V6.27383C19.1037 6.32796 19.1473 6.37253 19.2025 6.37253ZM19.1674 8.09193H21.928C21.9821 8.09193 22.0267 8.0484 22.0267 7.9932V7.8892C22.0267 7.83507 21.9832 7.79047 21.928 7.79047H21.3846L21.4811 6.56039C21.4843 6.52112 21.4535 6.48716 21.4133 6.48716H21.202C21.1606 6.48716 21.1267 6.519 21.1235 6.55933L21.0301 7.79047H20.0653L19.9719 6.55933C19.9687 6.51794 19.9348 6.48716 19.8934 6.48716H19.6822C19.6419 6.48716 19.6111 6.52112 19.6143 6.56039L19.7108 7.79047H19.1674C19.1133 7.79047 19.0687 7.834 19.0687 7.8892V7.9932C19.0687 8.04733 19.1122 8.09193 19.1674 8.09193ZM22.7973 8.09193H25.4177C25.4719 8.09193 25.5153 8.0484 25.5153 7.99427V7.88813C25.5153 7.834 25.4719 7.79047 25.4177 7.79047H23.0551V7.176H25.3827C25.4368 7.176 25.4803 7.13247 25.4803 7.07833V6.16981C25.4803 6.11569 25.4368 6.07217 25.3827 6.07217H22.7983C22.7441 6.07217 22.7007 6.11569 22.7007 6.16981V6.27595C22.7007 6.33008 22.7441 6.37359 22.7983 6.37359H25.1259V6.87667H22.7983C22.7441 6.87667 22.7007 6.9202 22.7007 6.97433V7.99533C22.7007 8.04947 22.7441 8.093 22.7983 8.093L22.7973 8.09193ZM26.8696 7.20673C26.9662 7.52833 27.2677 7.78947 27.5723 7.9274C27.6295 7.95393 27.6953 7.9094 27.6953 7.84567V7.6886C27.6953 7.6536 27.6763 7.62067 27.6455 7.6058C27.36 7.46467 27.0469 7.16113 27.0469 6.62938V6.37147H27.5627C27.6168 6.37147 27.6603 6.32796 27.6603 6.27383V6.16769C27.6603 6.11357 27.6168 6.07005 27.5627 6.07005H26.1797C26.1256 6.07005 26.0821 6.11357 26.0821 6.16769V6.27383C26.0821 6.32796 26.1256 6.37147 26.1797 6.37147H26.6924V6.62938C26.6924 7.16007 26.3857 7.46467 26.098 7.6058C26.0662 7.62173 26.0471 7.65467 26.0471 7.68967V7.84567C26.0471 7.9094 26.1129 7.95287 26.1702 7.92633C26.4737 7.7884 26.7763 7.52727 26.8696 7.20567V7.20673ZM29.0443 8.2458H26.3527C26.2986 8.2458 26.2551 8.28933 26.2551 8.34347V8.4496C26.2551 8.50373 26.2986 8.54727 26.3527 8.54727H28.7875L28.7833 9.2796C28.7833 9.33367 28.8267 9.3772 28.8809 9.3772H29.0411C29.0953 9.3772 29.1388 9.33367 29.1388 9.2796L29.1431 8.34347C29.1431 8.28933 29.0995 8.2458 29.0454 8.2458H29.0443ZM27.5075 6.8714V6.97753C27.5075 7.0316 27.551 7.07513 27.6051 7.07513H28.0679V7.98473C28.0679 8.03887 28.1114 8.0824 28.1655 8.0824H28.3258C28.3799 8.0824 28.4235 8.03887 28.4235 7.98473V6.09765C28.4235 6.04351 28.3799 6 28.3258 6H28.1655C28.1114 6 28.0679 6.04351 28.0679 6.09765V6.77373H27.6051C27.551 6.77373 27.5075 6.81727 27.5075 6.8714ZM29.0443 6H28.8841C28.8299 6 28.7864 6.04351 28.7864 6.09765V7.98473C28.7864 8.03887 28.8299 8.0824 28.8841 8.0824H29.0443C29.0985 8.0824 29.142 8.03887 29.142 7.98473V6.09765C29.142 6.04351 29.0985 6 29.0443 6ZM30.1471 7.79153V7.09427H32.4608C32.5149 7.09427 32.5585 7.05073 32.5585 6.9966V6.89153C32.5585 6.8374 32.5149 6.79387 32.4608 6.79387H29.8903C29.8361 6.79387 29.7926 6.8374 29.7926 6.89153V7.99533C29.7926 8.04947 29.8361 8.093 29.8903 8.093H32.5097C32.5638 8.093 32.6073 8.04947 32.6073 7.99533V7.89027C32.6073 7.83613 32.5638 7.7926 32.5097 7.7926H30.1471V7.79153ZM29.8903 6.37359H32.4746C32.5287 6.37359 32.5723 6.33008 32.5723 6.27595V6.17088C32.5723 6.11675 32.5287 6.07323 32.4746 6.07323H29.8903C29.8361 6.07323 29.7926 6.11675 29.7926 6.17088V6.27595C29.7926 6.33008 29.8361 6.37359 29.8903 6.37359ZM9.3128 6.16663H7.62313C7.569 6.16663 7.5244 6.21015 7.5244 6.26534V6.37359C7.5244 6.42773 7.56793 6.4723 7.62313 6.4723H9.0602C9.0602 6.8024 9.01347 7.16747 8.953 7.4328H7.6592C7.60507 7.4328 7.56047 7.47633 7.56047 7.53153V7.6398C7.56047 7.69393 7.604 7.73847 7.6592 7.73847H8.8628C8.6378 8.36253 8.20047 8.75847 7.5658 8.9346C7.5276 8.94313 7.5 8.97813 7.5 9.0174V9.16067C7.5 9.218 7.55307 9.26153 7.60933 9.2488C8.7216 8.98133 9.40193 8.03247 9.40193 6.42879V6.25685C9.40193 6.20803 9.36267 6.16875 9.31387 6.16875L9.3128 6.16663ZM10.7775 7.43173H10.3731V6.09871C10.3731 6.04458 10.3295 6 10.2744 6H10.112C10.0579 6 10.0133 6.04351 10.0133 6.10613V9.2806C10.0133 9.32733 10.0568 9.37087 10.112 9.37087H10.2744C10.3285 9.37087 10.3731 9.32733 10.3731 9.27213V7.7364H10.7775C10.8316 7.7364 10.8761 7.69287 10.8761 7.63767V7.5294C10.8761 7.47527 10.8327 7.43067 10.7775 7.43067V7.43173ZM14.4126 7.43173H14.0082V6.09871C14.0082 6.04458 13.9647 6 13.9095 6H13.7471C13.693 6 13.6484 6.04351 13.6484 6.10613V9.2806C13.6484 9.32733 13.6919 9.37087 13.7471 9.37087H13.9095C13.9636 9.37087 14.0082 9.32733 14.0082 9.27213V7.7364H14.4126C14.4667 7.7364 14.5113 7.69287 14.5113 7.63767V7.5294C14.5113 7.47527 14.4677 7.43067 14.4126 7.43067V7.43173ZM12.9479 6.16663H11.2583C11.2041 6.16663 11.1595 6.21015 11.1595 6.26534V6.37359C11.1595 6.42773 11.2031 6.4723 11.2583 6.4723H12.6953C12.6953 6.8024 12.6486 7.16747 12.5881 7.4328H11.2943C11.2402 7.4328 11.1956 7.47633 11.1956 7.53153V7.6398C11.1956 7.69393 11.2391 7.73847 11.2943 7.73847H12.4979C12.2729 8.36253 11.8356 8.75847 11.2009 8.9346C11.1627 8.94527 11.1351 8.98027 11.1351 9.01953V9.1628C11.1351 9.22013 11.1882 9.26367 11.2445 9.25093C12.3567 8.98347 13.0371 8.0346 13.0371 6.43091V6.25897C13.0371 6.21015 12.9978 6.17088 12.949 6.17088L12.9479 6.16663ZM15.6767 7.9168H16.825C17.3525 7.9168 17.7251 7.51453 17.7251 6.9966C17.7251 6.47442 17.3515 6.07217 16.825 6.07217H15.6767C15.1491 6.07217 14.7766 6.47442 14.7766 6.9966C14.7766 7.5188 15.1502 7.9168 15.6767 7.9168ZM15.7159 6.37678H16.7847C17.1222 6.37678 17.3663 6.63363 17.3663 6.9966C17.3663 7.3596 17.1222 7.6122 16.7847 7.6122H15.7159C15.3827 7.6122 15.1343 7.35853 15.1343 6.9966C15.1343 6.63469 15.3816 6.37678 15.7159 6.37678ZM17.7357 8.92613H16.41V8.24687C16.41 8.19273 16.3665 8.1492 16.3124 8.1492H16.1893C16.1351 8.1492 16.0916 8.19273 16.0916 8.24687V8.92613H14.766C14.7119 8.92613 14.6683 8.96967 14.6683 9.0238V9.14693C14.6683 9.201 14.7119 9.24453 14.766 9.24453H17.7367C17.7909 9.24453 17.8343 9.201 17.8343 9.14693V9.0238C17.8343 8.96967 17.7909 8.92613 17.7367 8.92613H17.7357ZM25.5663 8.92613H24.2491V8.4146C24.2491 8.35513 24.2014 8.3074 24.1419 8.3074H24.0369C23.9775 8.3074 23.9297 8.35513 23.9297 8.4146V8.92613H22.6125C22.5531 8.92613 22.5053 8.97393 22.5053 9.03333V9.1384C22.5053 9.19787 22.5531 9.2456 22.6125 9.2456H25.5653C25.6247 9.2456 25.6724 9.19787 25.6724 9.1384V9.03333C25.6724 8.97393 25.6247 8.92613 25.5653 8.92613H25.5663ZM22.0585 8.924H19.0358C18.9817 8.924 18.9371 8.96753 18.9371 9.02273V9.14693C18.9371 9.201 18.9806 9.2456 19.0358 9.2456H22.0585C22.1127 9.2456 22.1573 9.20207 22.1573 9.14693V9.02273C22.1573 8.9686 22.1137 8.924 22.0585 8.924ZM32.7123 8.924H29.6897C29.6355 8.924 29.5909 8.96753 29.5909 9.02273V9.14693C29.5909 9.201 29.6345 9.2456 29.6897 9.2456H32.7123C32.7665 9.2456 32.8111 9.20207 32.8111 9.14693V9.02273C32.8111 8.9686 32.7675 8.924 32.7123 8.924Z" fill="#FAE100"/>
<path d="M20.0504 17.1978H18.7991V14.5147C18.7991 14.3523 18.6675 14.2207 18.5051 14.2207H17.9893C17.8269 14.2207 17.6953 14.3523 17.6953 14.5147V21.3858C17.6953 21.5482 17.8269 21.6798 17.9893 21.6798H18.5051C18.6675 21.6798 18.7991 21.5482 18.7991 21.3858V18.1339H20.0504C20.2128 18.1339 20.3444 18.0023 20.3444 17.8399V17.4918C20.3444 17.3294 20.2128 17.1978 20.0504 17.1978Z" fill="#104ABF"/>
<path d="M15.9347 19.5444C16.0875 19.5221 16.1989 19.3841 16.1883 19.2292L16.1649 18.8917C16.1533 18.7177 15.9951 18.5935 15.8221 18.62C14.4487 18.8333 13.0817 18.9628 11.7062 19.0074C11.6701 19.0085 11.2668 19.0127 11.2668 19.0127V15.3893H15.0792C15.2416 15.3893 15.3732 15.2577 15.3732 15.0953V14.7471C15.3732 14.5847 15.2416 14.4531 15.0792 14.4531H10.4666C10.2989 14.4531 10.1641 14.589 10.1641 14.7556V19.6983C10.1641 19.8533 10.2946 19.9753 10.4496 19.9669L11.149 19.9488C12.7495 19.8925 14.3384 19.7758 15.9357 19.5433L15.9347 19.5444Z" fill="#104ABF"/>
<path d="M18.7244 23.4529H11.7992V21.171C11.7992 21.0086 11.6675 20.877 11.5052 20.877H10.9893C10.827 20.877 10.6953 21.0086 10.6953 21.171V24.095C10.6953 24.2574 10.827 24.389 10.9893 24.389H18.7234C18.8858 24.389 19.0174 24.2574 19.0174 24.095V23.7469C19.0174 23.5845 18.8858 23.4529 18.7234 23.4529H18.7244Z" fill="#104ABF"/>
<path d="M30.5347 18.1231H25.8085V16.6351C25.8085 16.478 25.6812 16.3496 25.5231 16.3496H24.9903C24.8321 16.3496 24.7047 16.4769 24.7047 16.6351V18.1231H21.0823C20.9242 18.1231 20.7969 18.2505 20.7969 18.4086V18.7748C20.7969 18.9319 20.9242 19.0603 21.0823 19.0603H30.5347C30.6929 19.0603 30.8203 18.9329 30.8203 18.7748V18.4086C30.8203 18.2515 30.6929 18.1231 30.5347 18.1231Z" fill="#104ABF"/>
<path d="M30.0187 23.4545H22.5882V22.5959H29.8531C30.0112 22.5959 30.1386 22.4685 30.1386 22.3104V20.2386C30.1386 20.0815 30.0112 19.9531 29.8531 19.9531H21.7698C21.6117 19.9531 21.4844 20.0805 21.4844 20.2386V20.6048C21.4844 20.7619 21.6117 20.8903 21.7698 20.8903H29.0348V21.7043H21.7698C21.6117 21.7043 21.4844 21.8317 21.4844 21.9899V24.1062C21.4844 24.2633 21.6117 24.3917 21.7698 24.3917H30.0187C30.1768 24.3917 30.3042 24.2643 30.3042 24.1062V23.74C30.3042 23.5829 30.1768 23.4545 30.0187 23.4545Z" fill="#104ABF"/>
<path d="M30.1141 14.8918C30.1385 14.6074 29.9135 14.3633 29.6291 14.3633H21.7465C21.5883 14.3633 21.4609 14.4906 21.4609 14.6487V15.0149C21.4609 15.172 21.5883 15.3004 21.7465 15.3004H28.9785L28.9381 15.7387C28.9021 16.1771 28.7885 16.6727 28.6527 17.1461C28.6039 17.317 28.7323 17.4857 28.9095 17.4857H29.3807C29.5803 17.4857 29.7565 17.3509 29.8011 17.1567C29.9167 16.66 30.0016 16.1506 30.0473 15.6751C30.0557 15.5891 30.0695 15.4172 30.0695 15.4172L30.1141 14.8918Z" fill="#104ABF"/>
</g>
</svg>
