<svg width="40" height="40" viewBox="0 0 40 40" fill="none" xmlns="http://www.w3.org/2000/svg">
<g clip-path="url(#clip0_970_13605)">
<rect width="40" height="40" rx="12" fill="#FFE812"/>
<path d="M6.45909 20.4549L9.29493 24.0508L10.1277 23.3827L7.71982 20.393L9.79664 17.6964L8.95149 17.0632L6.45909 20.4549ZM4.99219 14.486V23.8821H6.07205V14.2427L4.99219 14.486ZM11.0891 22.0941C11.0716 21.8033 11.1215 21.5124 11.235 21.2454C11.3484 20.9783 11.5221 20.7429 11.7416 20.5584C12.1749 20.2061 12.8064 20.0297 13.6364 20.028H14.8821V19.6033C14.8821 18.5741 14.4434 18.0592 13.5659 18.0592C13.2672 18.062 12.9699 18.1028 12.6809 18.1808C12.3891 18.2569 12.1043 18.3591 11.8298 18.4861L11.5122 17.6964C11.8391 17.5061 12.1887 17.3605 12.5523 17.2634C12.9055 17.1645 13.2698 17.1132 13.6359 17.1107C15.1572 17.1052 15.9183 17.9441 15.9183 19.6281V23.8816H15.1152L14.9865 23.1515C14.6777 23.4116 14.3311 23.6204 13.9594 23.7704C13.6299 23.9095 13.2778 23.9836 12.9216 23.9888C12.6757 24.0033 12.4297 23.9659 12.1984 23.8791C11.9672 23.7923 11.7556 23.6578 11.5768 23.4839C11.4085 23.2976 11.2785 23.0783 11.1947 22.8391C11.1109 22.5999 11.075 22.3457 11.0891 22.0919M13.1164 23.0902C13.2725 23.0891 13.427 23.068 13.5778 23.0282C13.7409 22.9873 13.9013 22.9348 14.0574 22.8712C14.214 22.807 14.3642 22.7274 14.5069 22.6345C14.6398 22.546 14.7653 22.4453 14.8821 22.3358V20.7807H13.7586C13.1896 20.7807 12.7751 20.8819 12.514 21.0837C12.3766 21.1988 12.2684 21.3463 12.1985 21.5137C12.1287 21.6811 12.0993 21.8633 12.113 22.0449C12.113 22.7417 12.4473 23.0902 13.1164 23.0902ZM18.9162 23.8821H17.8364V14.486L18.9162 14.2427V23.8821ZM21.8021 17.0632L22.6473 17.6964L20.5699 20.4013L22.9783 23.391L22.1396 24.0508L19.2995 20.4549L21.8027 17.0632H21.8021ZM23.9338 22.0941C23.9163 21.8036 23.966 21.5128 24.0791 21.2459C24.1921 20.9789 24.3652 20.7433 24.5841 20.5584C25.0191 20.2055 25.65 20.028 26.4806 20.028H27.7246V19.6033C27.7246 18.5741 27.2865 18.0592 26.4101 18.0592C26.1106 18.0618 25.8126 18.1027 25.5229 18.1808C25.2313 18.2569 24.9467 18.3591 24.6724 18.4861L24.3473 17.6964C24.6739 17.5065 25.0231 17.361 25.3862 17.2634C25.7403 17.1643 26.1055 17.113 26.4725 17.1107C27.9992 17.1052 28.7625 17.9441 28.7625 19.6281V23.8816H27.9593L27.8312 23.1515C27.5221 23.4117 27.1751 23.6205 26.803 23.7704C26.4737 23.9095 26.1218 23.9836 25.7657 23.9888C25.5199 24.0033 25.2738 23.9659 25.0426 23.8791C24.8113 23.7923 24.5998 23.6578 24.421 23.4839C24.253 23.2974 24.1234 23.078 24.04 22.8388C23.9565 22.5996 23.921 22.3456 23.9355 22.0919M25.9525 23.0918C26.1086 23.0907 26.2647 23.0702 26.416 23.0304C26.5786 22.989 26.7385 22.9364 26.894 22.8734C27.199 22.7489 27.4787 22.5669 27.7187 22.3369V20.7829H26.5969C26.0268 20.7829 25.6118 20.8835 25.3507 21.086C25.2151 21.202 25.1088 21.3499 25.0407 21.5171C24.9725 21.6843 24.9446 21.8659 24.9593 22.0466C24.9593 22.7434 25.2904 23.0918 25.9525 23.0918ZM33.1013 17.1251C33.9922 17.1251 34.6947 17.4237 35.2029 18.0243C35.7105 18.6238 35.9652 19.4816 35.9652 20.5993C35.9652 21.7164 35.7143 22.5498 35.2088 23.1394C34.7028 23.7289 34.0046 24.0281 33.1013 24.0281C32.198 24.0281 31.5101 23.7311 31.0003 23.1394C30.4905 22.5476 30.2375 21.696 30.2375 20.5993C30.2375 19.5026 30.4943 18.6222 31.0062 18.0243C31.5176 17.426 32.2104 17.1251 33.1013 17.1251ZM33.1013 18.0243C32.8489 18.0118 32.5975 18.0653 32.3708 18.18C32.144 18.2946 31.9494 18.4666 31.8051 18.6797C31.5036 19.1166 31.3529 19.7581 31.3529 20.5993C31.3529 21.4404 31.5036 22.0648 31.8051 22.4901C31.9624 22.6898 32.1611 22.8509 32.3868 22.9615C32.6125 23.0721 32.8593 23.1295 33.1094 23.1295C33.3594 23.1295 33.6063 23.0721 33.832 22.9615C34.0577 22.8509 34.2564 22.6898 34.4137 22.4901C34.7152 22.0654 34.8659 21.4349 34.8659 20.5993C34.8659 19.7581 34.7152 19.1171 34.4137 18.6802C34.2676 18.4661 34.0709 18.2935 33.8421 18.1788C33.6133 18.0641 33.3599 18.0109 33.1056 18.0243" fill="black"/>
</g>
<defs>
<clipPath id="clip0_970_13605">
<rect width="40" height="40" rx="12" fill="white"/>
</clipPath>
</defs>
</svg>
