<svg aria-hidden="true" class="eye_dark eye_dark3" width="54" height="49" viewBox="0 0 54 49" fill="none" xmlns="http://www.w3.org/2000/svg"><path d="M29.2416 12.9335L29.5073 14.172L29.6339 15.4359L29.5073 16.6872L29.4314 17.9511L29.115 19.1771L28.786 20.3904L28.4317 21.6164L27.7483 22.6907L27.1156 23.7776L26.4197 24.8393L25.5465 25.7746L24.6354 26.6593L23.6231 27.4176L22.5475 28.0875L21.4845 28.77L20.3203 29.3008L19.1055 29.6673L17.8654 29.9454L16.6379 30.2234L15.3725 30.274L14.1071 30.3246L12.8417 30.2487L11.5889 30.0718L10.3487 29.8316L9.12131 29.4778L7.95714 28.9722L6.86881 28.3024L5.79323 27.6325L4.83149 26.8236L3.93309 25.9388L3.03461 25.0415L2.31331 24.0051L1.61734 22.9434L1.11114 21.7933L0.592349 20.6306L0.351915 19.3919L0.111481 18.1533L-0.00244141 16.8894L0.0608144 15.6255L0.174737 14.3743L0.301248 13.1104L0.744194 11.9224L1.12381 10.709L1.74385 9.59677L2.4019 8.50985L3.26238 7.57458L4.03427 6.57614L4.98334 5.72928L5.90715 4.85719L7.04599 4.27585L8.13424 3.65656L9.26049 3.0878L10.4627 2.68334L11.6775 2.27889L12.9303 2.13988L14.1957 2.0514L15.4611 2.01345L16.7265 1.98822L17.992 2.13988L19.2194 2.4685L20.4216 2.88553L21.5605 3.4543L22.7246 3.94723L23.7876 4.655L24.7873 5.43861L25.6604 6.36122L26.5968 7.22066L27.3435 8.25705L28.0014 9.34406L28.5582 10.4815L28.9126 11.7075L29.2416 12.9335Z" fill="white"></path><path d="M52.8669 11.9602L53.0314 13.2116L53.12 14.4754L53.0567 15.7393L53.0187 17.0158L52.6771 18.2418L52.3607 19.4677L51.8925 20.6432L51.3864 21.806L50.6777 22.855L49.9184 23.8788L49.0326 24.7887L48.1089 25.6482L47.1471 26.4697L46.0968 27.1901L44.9453 27.7083L43.8191 28.2771L42.6043 28.6436L41.3895 28.9975L40.162 29.3387L38.884 29.3513L37.6185 29.4019H36.3531L35.1003 29.1745L33.8602 28.8964L32.6707 28.4666L31.5192 27.9358L30.3549 27.4176L29.292 26.7225L28.3303 25.901L27.4445 24.9909L26.5586 24.0936L25.8627 23.0319L25.1794 21.9703L24.6226 20.8454L24.167 19.6573L23.7748 18.4566L23.5217 17.2181L23.4204 15.9415L23.5217 14.6776L23.6229 13.4137L23.9266 12.1878L24.3189 10.9871L24.7238 9.78639L25.3185 8.67416L25.9386 7.57459L26.7485 6.58872L27.533 5.60292L28.5074 4.79402L29.4818 3.99776L30.5321 3.27734L31.6583 2.72122L32.7973 2.17776L33.9488 1.6343L35.2015 1.39416L36.4416 1.06553L37.707 0.989703L38.9725 0.964478L40.2253 1.16667L41.4907 1.28045L42.7182 1.609L43.9582 1.89974L45.0592 2.53169L46.1854 3.11302L47.2737 3.75762L48.2607 4.54122L49.2351 5.35013L50.0197 6.36123L50.7283 7.39762L51.399 8.45932L52.057 9.54625L52.5379 10.7217L52.8669 11.9602Z" fill="white"></path><path d="M27.3434 47.9684C27.1915 47.9684 27.0396 47.9557 26.9004 47.9178L25.6223 47.6018C25.4831 47.5639 25.3566 47.5133 25.2301 47.4501L24.0532 46.8561C23.9393 46.793 23.8254 46.7297 23.7242 46.6412L22.6992 45.8198C22.6992 45.8198 22.5853 45.7186 22.522 45.6681L21.611 44.7202C21.611 44.7202 21.5224 44.6191 21.4718 44.5685L20.6746 43.5195C20.6113 43.4436 20.5607 43.3551 20.5101 43.2667L19.89 42.1039C19.852 42.0407 19.8267 41.9649 19.7888 41.8891L19.3205 40.6631C18.9536 39.7152 19.4345 38.6535 20.3835 38.287C21.3326 37.9204 22.3955 38.4007 22.7625 39.3487L23.1927 40.4735L23.699 41.4088L24.3443 42.2556L25.1036 43.0392L25.8881 43.6711L26.698 44.0882L27.5205 44.2904L28.419 44.2525L29.33 44.0882L30.1653 43.7091L30.9877 43.1655L31.7344 42.4452L32.4177 41.6489L32.9492 40.7769L33.3415 39.8921L33.5566 38.8304C33.7591 37.8319 34.7208 37.1874 35.7205 37.377C36.7202 37.5792 37.3655 38.5397 37.1757 39.5382L36.9226 40.8021C36.8973 40.9411 36.8593 41.0675 36.7961 41.1939L36.2773 42.3819C36.2393 42.4578 36.214 42.521 36.1634 42.5969L35.4927 43.7091C35.442 43.7976 35.3788 43.8733 35.3156 43.9618L34.4677 44.9477C34.4677 44.9477 34.3918 45.0361 34.3538 45.074L33.4174 45.9714C33.3415 46.0472 33.2529 46.1231 33.1516 46.1863L32.0761 46.9067C32.0001 46.9572 31.9115 47.0078 31.823 47.0457L30.6461 47.5891C30.5069 47.6523 30.355 47.703 30.2032 47.7282L28.9252 47.9557C28.8366 47.9684 28.748 47.981 28.6721 47.981L27.3813 48.0316C27.3813 48.0316 27.3307 48.0316 27.3054 48.0316L27.3434 47.9684Z" fill="black"></path><path class="pupil dir_right" d="M27.209 9.02574L27.3989 10.3022L27.3609 11.5787L27.209 12.8553L26.8421 14.0939L26.222 15.2314L25.5134 16.3183L24.6782 17.3042L23.6532 18.1004L22.5396 18.745L21.3627 19.2506L20.1353 19.6803L18.8572 19.9078H17.5665L16.2757 19.7435L15.0356 19.3896L13.8208 18.9599L12.7325 18.2521L11.7075 17.4685L10.8344 16.5206L10.0625 15.4842L9.53105 14.2961L9.13877 13.0575L8.99951 11.781L9.01218 10.4918L9.18936 9.21528L9.56897 7.97669L10.2017 6.85182L10.8977 5.76489L11.7961 4.84228L12.7705 4.00807L13.8334 3.26242L15.0356 2.80736L16.2757 2.42821L17.5411 2.17542H18.8446L20.1353 2.30185L21.3754 2.6557L22.5649 3.16128L23.7038 3.78058L24.7162 4.58948L25.564 5.56262L26.2726 6.63698L26.8547 7.78708L27.209 9.02574Z" fill="black"></path><path class="pupil dir_right" d="M51.5936 7.82515L51.7834 9.10169L51.7454 10.3908L51.6315 11.68L51.1886 12.8933L50.5813 14.0308L49.9105 15.1304L49.0501 16.1036L48.0124 16.8745L46.9242 17.5571L45.7347 18.05L44.5072 18.4671L43.2417 18.6945L41.9384 18.6567L40.6603 18.5429L39.3949 18.2649L38.2054 17.734L37.1171 17.0389L36.1174 16.23L35.1936 15.3326L34.4471 14.2836L33.903 13.0955L33.5486 11.857L33.3841 10.5804L33.3335 9.29122L33.5992 8.02733L33.9662 6.78875L34.5357 5.62599L35.219 4.52642L36.1174 3.60373L37.1171 2.7696L38.2307 2.125L39.4075 1.59419L40.6476 1.20239L41.9257 1.00012L43.2165 1.03808L44.4946 1.15178L45.7347 1.50571L46.9242 1.98599L48.0883 2.57998L49.0501 3.43942L49.9359 4.37476L50.7078 5.41108L51.2519 6.58656L51.5936 7.82515Z" fill="black"></path></svg>