<svg width="79" height="80" viewBox="0 0 79 80" fill="none" xmlns="http://www.w3.org/2000/svg">
<path d="M1.1089 5.28063L0.480979 7.23889L0.975619 9.23479L0.354772 11.1952L0.643576 13.183L1.0491 15.1674L0.641161 17.1381L0.492817 19.1175L0.683305 21.0988L0.406228 23.0703L0.68089 25.0539L0.548819 27.0305L0.739305 29.0118L0.107125 30.9842L0.67393 32.971L0 34.954L0.0433493 36.9373L0.0654869 38.9141L0.57146 40.898L0.0658807 42.8855L0.0788142 44.8672L0.231816 46.845L0.592784 48.8237L0.103477 50.8083L0.312368 52.7798L0.579959 54.7612L0.235658 56.751L0.83714 58.7251L0.43414 60.7049L0.3629 62.6844L0.585935 64.6601L0.390901 66.6409L0.450525 68.6214L1.03787 70.5912L1.25383 72.5647L1.05386 74.5363L1.7341 76.3256L2.68481 77.9338L4.12033 79.3407L6.12348 79.4511L8.09492 80L10.0625 79.6901L12.0274 79.364L13.9963 79.6649L15.96 79.1376L17.9277 79.8012L19.8945 79.6225L21.863 79.6683L23.8369 79.9784L25.799 79.5587L27.7654 79.1249L29.7339 79.7347L31.7033 79.7267L33.6621 79.1129L35.6308 79.6455L37.6017 79.5298L39.5682 79.5055L41.5276 78.9923L43.4957 79.4243L45.4661 79.1307L47.4327 79.0292L49.4061 79.7255L51.3699 79.1209L53.3388 79.4218L55.3088 78.9504L57.2844 79.5624L59.2537 79.5544L61.2152 79.1113L63.189 79.4987L65.1564 78.7793L67.1299 79.3983L69.1045 79.6546L71.0764 79.3306L73.056 79.5961L74.8311 78.3628L76.6591 77.6708L78.0589 76.1465L77.9874 74.0775L78.4144 72.1204L77.9247 70.1337L78.0313 68.1648L78.0304 66.1944L78.1766 64.222L78.2995 62.2503L78.4832 60.2816L78.2064 58.3051L78.806 56.3383L78.445 54.3596L78.1682 52.3831L78.8075 50.4128L78.5682 48.4399L78.7003 46.4633L78.9002 44.4917L78.3851 42.5128L78.6947 40.5357L78.2829 38.4953L78.3804 36.4541L78.695 34.409L78.7013 32.3634L78.0956 30.3263L78.735 28.2788L78.9258 26.2349L79 24.1944L78.6066 22.1441L78.5499 20.1028L78.4535 18.0649L78.544 16.0216L78.9499 13.9808L78.5565 11.9305L78.9765 9.89404L78.726 7.85596L78.8772 5.81558L78.4202 3.74604L77.0641 2.17767L75.5849 0.633929L73.4447 0.389473L71.467 0.27135L69.4937 0.625828L67.5159 0.584935L65.5422 0.120346L63.5611 0.449304L61.5772 0.761962L59.6024 0.0961467L57.6241 0.441406L55.6454 0.0448295L53.664 0.605478L51.694 0.0261101L49.7119 0.640608L47.736 0.26033L45.7583 0.628971L43.7825 0.171464L41.8065 0.432411L39.8278 0.522597L37.8519 0.142319L35.8725 0.850347L33.8953 0.346074L31.9138 0.41996L29.9344 0L27.9553 0.476336L25.9742 0.241301L23.9959 0.099797L22.0152 0.68383L20.0346 0.626638L18.0618 0.0309701L16.0776 0.57532L14.0991 0.0242812L12.1101 0.404953L10.1307 0.548986L8.14314 0.41243L6.16131 0.231243L4.28598 0.823918L2.3624 1.52564L1.0056 3.16339L1.1089 5.28063Z" fill="#FF94FF"/>
<path d="M30.5191 20.0477L30.4302 22.0606L30.001 24.0248L29.2826 25.9248L28.1154 27.5734L26.6775 28.9935L24.9403 29.9988L23.112 30.8452L21.1085 31.0437L19.1017 30.9709L17.1799 30.3597L15.378 29.4525L13.9602 28.0123L12.6727 26.4724L11.7611 24.6828L11.2006 22.752L10.8326 20.7712L10.9399 18.7484L11.5501 16.8235L12.2812 14.9581L13.3247 13.2335L14.8255 11.8865L16.4625 10.7274L18.338 9.98024L20.3366 9.77247L22.3255 9.95579L24.2652 10.4565L26.0628 11.3778L27.5713 12.7218L28.7632 14.3488L29.7094 16.1256L30.2445 18.0642L30.5191 20.0477Z" fill="white"/>
<path d="M22.3002 23.5471L22.0882 25.5074L21.3183 27.3223L20.1497 28.9242L18.4584 29.9819L16.509 30.3591L14.5649 30.027L12.8465 29.0987L11.4329 27.7215L10.5913 25.9299L10.2197 23.9867L10.3985 22.0087L11.2179 20.2087L12.4543 18.6891L14.0855 17.5746L16.0362 17.2442L17.9649 17.5252L19.7598 18.353L21.1309 19.7946L21.9866 21.5904L22.3002 23.5471Z" fill="black"/>
<path d="M46.5357 19.9852L46.4142 22.0037L45.9475 23.9643L45.1125 25.7905L44.081 27.5264L42.5655 28.8458L40.9779 30.0971L39.0776 30.7982L37.0656 30.9478L35.0553 30.9125L33.1647 30.249L31.3472 29.368L29.7955 28.065L28.5852 26.448L27.68 24.6372L27.2101 22.6874L26.8116 20.7051L26.8652 18.6815L27.3644 16.7153L28.268 14.9175L29.3236 13.2043L30.7911 11.8395L32.4725 10.7633L34.2987 9.92402L36.2965 9.77009L38.2876 9.8691L40.2209 10.391L41.9356 11.4341L43.425 12.7646L44.726 14.2855L45.6885 16.0595L46.2398 17.9952L46.5357 19.9852Z" fill="white"/>
<path d="M38.8602 23.5243L38.6319 25.4874L37.9284 27.3378L36.6306 28.8311L34.9922 29.9435L33.0415 30.2739L31.0973 30.0191L29.3605 29.1006L28.0198 27.6605L27.1535 25.9001L26.7026 23.9637L26.9846 22.0015L27.7354 20.173L28.962 18.635L30.6476 17.6219L32.5644 17.1732L34.51 17.4747L36.278 18.3408L37.6491 19.7824L38.5416 21.5584L38.8602 23.5243Z" fill="black"/>
<path d="M25.907 43.5484C24.8888 43.241 24.2606 42.2014 24.4778 41.1467C24.707 40.0261 25.8051 39.2992 26.9239 39.5288L28.776 39.9104L30.5986 40.1594L32.3647 40.314L36.0476 40.0972L37.7909 39.8664L39.4991 39.3932L41.2457 38.7926L42.9196 38.1005L46.1475 36.371L47.5028 35.3277L50.2467 32.6949C51.0669 31.8918 52.3805 31.9098 53.1731 32.7363C53.9748 33.5579 53.9498 34.8715 53.1317 35.6675L50.2674 38.4184C50.215 38.4644 50.1626 38.5104 50.1102 38.5564L48.5446 39.7602C48.4554 39.826 48.3683 39.8847 48.2671 39.9391L44.7722 41.8121C44.717 41.8418 44.6547 41.8693 44.5925 41.8969L42.7707 42.6448C42.7707 42.6448 42.6921 42.6752 42.6574 42.6879L40.7905 43.3294C40.7905 43.3294 40.712 43.3598 40.6702 43.3704L38.7695 43.8936C38.6768 43.9197 38.5862 43.9387 38.4907 43.9485L36.538 44.2088C36.4892 44.2172 36.4496 44.2207 36.4029 44.222L32.4399 44.447C32.3465 44.4497 32.2531 44.4525 32.1569 44.4389L30.1963 44.2641C30.1963 44.2641 30.1284 44.259 30.1001 44.2505L28.158 43.9886C28.1156 43.9758 28.0689 43.9771 28.0194 43.9622L26.0945 43.5664C26.0308 43.5472 25.9721 43.5372 25.9085 43.518L25.907 43.5484Z" fill="black"/>
</svg>
