<svg width="40" height="40" viewBox="0 0 40 40" fill="none" xmlns="http://www.w3.org/2000/svg">
<rect width="40" height="40" rx="12" fill="white"/>
<g clip-path="url(#clip0_970_13769)">
<path d="M8.503 19.4299C8.31608 19.3867 8.07754 19.5222 7.97281 19.7385L7.27645 21.175C7.15207 21.4319 7.2357 21.6589 7.4608 21.6757C7.67971 21.6921 7.94301 21.5019 8.05209 21.2565L8.66445 19.8792C8.75682 19.6711 8.68554 19.4723 8.50336 19.4303L8.503 19.4299Z" fill="#0070FF"/>
<path d="M22.1876 15.6777L22.5036 15.6762C22.641 15.6755 22.7178 15.5787 22.6912 15.4789C22.6578 15.3747 22.5592 15.3043 22.4079 15.3058L22.0952 15.3047C21.9705 15.3077 21.8879 15.3896 21.9097 15.4897C21.9323 15.5928 22.0559 15.6781 22.1876 15.6777Z" fill="#0070FF"/>
<path d="M15.5364 19.0255C15.3535 19.02 15.1855 19.1238 15.1615 19.259L14.7539 21.5416C14.7233 21.7132 14.8695 21.8558 15.0804 21.8577C15.2906 21.8595 15.4808 21.7207 15.5051 21.5502L15.8313 19.2779C15.8506 19.1435 15.7186 19.0311 15.536 19.0259L15.5364 19.0255Z" fill="#0070FF"/>
<path d="M35.2955 23.3894C35.2718 23.3478 35.2476 23.3046 35.2267 23.2633L34.2603 21.4857C34.1521 21.2855 33.9661 21.1455 33.7521 21.0967C33.8358 20.8786 33.8209 20.6314 33.7065 20.4222L32.5647 18.5155C32.5075 18.4202 32.4112 18.3573 32.3027 18.345C32.1652 18.3294 31.9766 18.2665 31.8646 18.1999C31.8741 18.1954 31.8883 18.1812 31.9037 18.1641C31.9607 18.0979 32.0068 18.0227 32.0403 17.9393C32.1286 17.7174 32.1144 17.4698 32.0014 17.2599L31.4064 16.155C31.2711 15.9038 31.0133 15.7471 30.7333 15.7459L27.0565 15.734L26.8907 15.3216C26.6176 14.6426 25.9714 14.1992 25.2539 14.1992H13.7604C13.0411 14.1992 12.3934 14.6448 12.1218 15.3264L11.9545 15.7459H9.16467C8.73665 15.7459 8.34867 15.9719 8.13011 16.3419L7.17773 16.3326H7.1701C6.89446 16.3326 6.63773 16.4845 6.50064 16.7294L5.89845 17.8038L5.89336 17.8268C5.83045 18.109 5.89118 18.3767 6.05045 18.5703C5.82863 18.794 5.64317 19.0393 5.50281 19.2984L4.8868 20.436C4.47152 21.2025 4.43516 22.0311 4.78644 22.7097C5.09008 23.296 5.65263 23.707 6.36464 23.876L11.5469 25.6841H27.7972L34.7523 24.3186C35.1332 24.2594 35.3398 24.1555 35.4209 23.9828C35.516 23.7807 35.3988 23.573 35.2955 23.3894ZM27.7816 16.4357L30.8003 16.4476L31.385 17.535H29.1834C29.4627 18.1012 29.8791 18.5263 30.5054 18.8286C31.0514 19.0922 31.7858 19.3386 32.3669 19.3769L33.0994 20.7141C32.3689 20.6567 31.4849 20.5428 30.781 20.2659C30.0933 19.9952 29.5704 19.7298 29.0311 19.2373C28.834 19.6505 28.4147 19.9963 27.95 20.2673C27.474 20.5454 26.7638 20.7156 26.079 20.774L25.7048 19.3944C26.2554 19.3557 26.7129 19.1316 27.0423 18.8677C27.4132 18.5703 27.7558 18.0964 27.57 17.5357H25.2027L24.9045 16.4476L27.7809 16.4354L27.7816 16.4357ZM24.9321 15.482C25.0772 15.4392 25.1514 15.3223 25.1259 15.1768L25.0994 15.0245C25.1336 15.0234 25.1292 15.0234 25.163 15.0223L25.2772 15.1715C25.3863 15.3141 25.5659 15.4224 25.7456 15.4537L25.9343 15.4869C25.9485 15.5174 25.9467 15.5133 25.9612 15.5438L25.8092 15.5888C25.6641 15.6317 25.5903 15.7493 25.6165 15.8956L25.6438 16.0497C25.6096 16.0508 25.6139 16.0508 25.5794 16.0519L25.4641 15.9008C25.3543 15.7571 25.1747 15.6484 24.9947 15.6168L24.8059 15.5836C24.7918 15.5531 24.7936 15.5572 24.7794 15.5267L24.9318 15.4816L24.9321 15.482ZM24.0939 14.8715L24.675 17.3124H23.9201L23.8176 16.8024H22.9277L23.0135 17.3124H22.2528L22.1892 16.8024H21.4095L21.3706 16.3598H23.7285L23.4295 14.8715H24.0936H24.0939ZM21.975 14.9281L22.3692 14.9244C22.7506 14.921 23.1292 15.1611 23.2172 15.4764C23.3107 15.8115 23.0441 16.0981 22.6183 16.0981H22.175C21.755 16.0981 21.3866 15.8152 21.3517 15.485C21.319 15.1734 21.5975 14.9314 21.9746 14.9281H21.975ZM17.9717 16.8061H19.1124L19.1168 16.4499H17.9953L18.072 15.4772H20.3062L20.2935 15.268H18.1139L18.1393 14.8715H20.8033L20.8739 15.8051H18.6186L18.6131 16.0497H20.907L20.9382 16.4499H19.8295L19.8371 16.8061H20.9804L21.019 17.3124H17.9422L17.9717 16.8061ZM14.4065 16.8061H15.6244L15.6869 16.4502H14.6982L15.0356 14.8652H17.5455L17.5051 15.3156H15.5244L15.4084 15.9551H17.4531L17.4113 16.4502H16.428L16.3789 16.8061H17.4735L17.4295 17.3124H14.2993L14.4073 16.8061H14.4065ZM13.0047 15.4872L13.1938 15.4541C13.3738 15.4224 13.5542 15.3141 13.6644 15.1719L13.7796 15.0226C13.8138 15.0238 13.8095 15.0238 13.8433 15.0249L13.8156 15.1771C13.7891 15.3227 13.8625 15.4396 14.0073 15.4824L14.1593 15.5274C14.1451 15.558 14.1469 15.5539 14.1324 15.5844L13.9436 15.6175C13.7636 15.6492 13.5829 15.7579 13.4724 15.9015L13.356 16.0527C13.3218 16.0516 13.3262 16.0516 13.2916 16.0504L13.32 15.8963C13.3469 15.7497 13.2738 15.6324 13.1291 15.5896L12.9774 15.5445C12.992 15.514 12.9902 15.5181 13.0047 15.4876V15.4872ZM7.27411 17.0336L8.70211 17.0477L8.99557 16.448H10.6319L10.3956 17.0217H11.6734L11.3385 17.988L6.74791 17.9724L7.27411 17.0336ZM6.87082 23.0682C5.58135 22.9498 5.0548 21.9287 5.63044 20.8656L6.24645 19.7279C6.73482 18.8263 7.97701 18.1913 9.06648 18.2531C10.1731 18.316 10.8203 19.0787 10.4738 20.0172L10.0359 21.204C9.62575 22.3159 8.18392 23.1888 6.87046 23.0682H6.87082ZM9.97232 23.4516L12.3291 16.4484H13.9604L12.1414 23.4516H9.97304H9.97232ZM18.9811 23.4516H17.4909L17.688 20.7055H17.108L17.0626 21.2028C16.9695 22.2187 16.0258 23.0957 14.9433 23.0906C13.8407 23.0853 13.1396 22.1714 13.3785 21.125L13.8033 19.2656C13.996 18.4217 14.8789 17.8142 15.7746 17.8585C16.6564 17.902 17.304 18.5669 17.2287 19.3914L17.22 19.4871H17.776L17.8888 17.863H19.0884L18.9811 23.4513V23.4516ZM19.655 23.4516L19.6401 22.1778H21.7539L21.7041 21.6834H19.6346L19.6092 19.2846L23.5736 19.2798L23.5099 18.9101L19.6019 18.9153L19.5913 17.8633L24.815 17.8525L25.3638 20.1512L21.0055 20.1575L21.0313 20.541L25.4558 20.535L25.7321 21.6801L23.3863 21.6823L23.4641 22.1763C23.4641 22.1763 25.0485 22.1752 25.8536 22.1744L26.1583 23.4516H19.6546H19.655ZM26.8041 23.4516L26.3503 21.7776L33.6504 21.7716L34.5573 23.4513H26.8041V23.4516Z" fill="#0070FF"/>
</g>
<defs>
<clipPath id="clip0_970_13769">
<rect width="30.9091" height="11.8182" fill="white" transform="translate(4.54688 14.0918)"/>
</clipPath>
</defs>
</svg>
