<svg aria-hidden="true" class="eye_dark eye_dark2" xmlns="http://www.w3.org/2000/svg" width="63" height="66" viewBox="0 0 63 66" fill="none"><path d="M31.9316 20.5672L31.5519 21.7931L31.1723 23.0191L30.7673 24.2451L30.3118 25.4458L29.6032 26.5327L28.8819 27.5944L28.1353 28.6561L27.2495 29.5914L26.3004 30.4508L25.3134 31.2597L24.339 32.1191L23.1621 32.6499L22.036 33.2692L20.8465 33.7495L19.6316 34.1919L18.3662 34.4826L17.0881 34.6343L15.7847 34.6848L14.494 34.5837L13.2286 34.3688L11.9631 34.0908L10.761 33.6105L9.60946 33.0417L8.44522 32.4983L7.33171 31.841L6.4079 30.9311L5.35765 30.1727L4.50976 29.1996L3.86438 28.0747L3.06716 27.0636L2.49778 25.9007L2.01691 24.7128L1.48537 23.5373L1.18168 22.286L0.97925 21.0222L0.713483 19.7583L0.612305 18.4692L0.72615 17.18L0.827405 15.9034L0.97925 14.6269L1.37153 13.3883L1.70055 12.1497L2.19409 10.9617L2.63696 9.7483L3.24433 8.61077L3.9783 7.54915L4.83878 6.58858L5.67401 5.61537L6.62308 4.74328L7.53415 3.84597L8.54647 3.03706L9.73598 2.50625L10.8622 1.88688L12.0644 1.44455L13.2792 0.98957L14.532 0.698901L15.8227 0.648296L17.1134 0.559814L18.3915 0.711475L19.6822 0.774731L20.9476 1.0654L22.1498 1.54568L23.3014 2.11445L24.4276 2.74639L25.5285 3.40356L26.5915 4.13664L27.5152 5.0466L28.3631 6.00717L29.0464 7.10674L29.755 8.16844L30.3498 9.30597L30.8686 10.4814L31.3369 11.6694L31.7038 12.8954L31.9189 14.1593L32.1466 15.4231L32.172 16.7123L32.2353 18.0014L32.0834 19.278L31.9316 20.5672Z" fill="white"></path><path class="pupil dir_right" d="M20.1727 13.3358L19.8816 14.6123L19.4387 15.8636L18.806 17.0263L18.11 18.1512L17.1989 19.1118L16.2246 19.9964L15.0983 20.7043L13.9342 21.3236L12.6561 21.6774L11.3653 21.9049L10.0493 21.9807L8.72061 21.8797L7.45518 21.4879L6.25301 20.9444L5.1141 20.2745L4.12711 19.4024L3.26655 18.404L2.51999 17.317L1.84928 16.1795L1.495 14.9157L1.16598 13.6391L1.0268 12.3247L1.00146 10.9976L1.16598 9.68315L1.495 8.39396L1.9632 7.15537L2.58325 5.99262L3.34255 4.90569L4.21562 3.90717L5.24069 3.07304L6.35419 2.36526L7.51844 1.73332L8.75853 1.29091L10.0745 1.13925L11.3906 1.00024L12.7193 1.16456L13.9594 1.60689L15.1996 2.06194L16.3005 2.79494L17.2875 3.65438L18.2239 4.58972L18.9452 5.70187L19.5147 6.88993L20.0334 8.10329L20.3372 9.39248L20.4131 10.7195L20.4005 12.034L20.1727 13.3358Z" fill="black"></path><path d="M56.8478 26.1915L56.5061 27.4428L56.1771 28.6813L55.6077 29.8442L55.1142 31.0322L54.5068 32.1697L53.7476 33.2061L53.0515 34.293L52.0898 35.1651L51.2547 36.1383L50.2043 36.884L49.192 37.6802L48.0785 38.3248L46.9522 38.9441L45.7248 39.3486L44.4972 39.7025L43.2318 39.9426L41.9664 40.1448L40.6883 40.2206L39.3977 40.1322L38.1069 40.0437L36.8668 39.6645L35.6392 39.298L34.4751 38.7293L33.3109 38.1605L32.2985 37.3769L31.2989 36.568L30.3245 35.7212L29.3881 34.8365L28.6795 33.7495L28.0088 32.6626L27.3507 31.5504L26.8573 30.3623L26.4776 29.1364L26.1359 27.8977L25.7437 26.6718L25.731 25.37L25.6045 24.0934L25.6171 22.817L25.6551 21.5151L25.8323 20.2386L26.1233 18.9747L26.4902 17.7361L26.9711 16.5354L27.5279 15.3726L28.1353 14.2351L28.9199 13.2114L29.7424 12.2256L30.5269 11.2018L31.4128 10.2665L32.4883 9.54614L33.4374 8.6614L34.5637 8.01681L35.7911 7.5997L36.9427 7.01836L38.1954 6.70239L39.4608 6.48747L40.7136 6.22211H42.0044L43.2825 6.34846L44.5732 6.4243L45.8386 6.71496L47.0407 7.19525L48.2176 7.70083L49.3692 8.28225L50.3815 9.07843L51.4192 9.83681L52.3303 10.7468L53.2667 11.6315L54.0639 12.6553L54.7346 13.7548L55.266 14.9302L55.7975 16.0931L56.2024 17.3063L56.6454 18.5197L56.9743 19.7709L56.987 21.0601L57.1136 22.3367L57.063 23.6258L57.0376 24.915L56.8478 26.1915Z" fill="white"></path><path class="pupil dir_right" d="M45.9754 19.2256L45.6464 20.5022L45.2542 21.7661L44.6468 22.9415L43.8116 23.9652L43.0017 25.0143L42.0146 25.9116L40.901 26.6194L39.7243 27.2261L38.4462 27.6052L37.1554 27.858L35.8267 27.8327L34.5234 27.7063L33.2326 27.3777L32.0431 26.8216L30.8916 26.177L29.9425 25.2544L29.0061 24.3191L28.3101 23.2069L27.6774 22.0441L27.2345 20.8055L26.9181 19.5289L26.8296 18.2145L26.8548 16.9001L27.0447 15.5983L27.3357 14.3091L27.7912 13.0705L28.4114 11.9077L29.1073 10.7829L30.0184 9.8223L31.0055 8.92499L32.1191 8.21721L33.2832 7.61049L34.5612 7.24399L35.852 7.0165L37.1681 6.94067L38.4969 7.04173L39.7623 7.43361L40.9644 7.97707L42.1033 8.64689L43.1029 9.51898L43.9508 10.5174L44.6973 11.6044L45.368 12.7419L45.7351 14.0184L46.0514 15.295L46.1906 16.6094L46.2159 17.9239L45.9754 19.2256Z" fill="black"></path><path d="M38.9779 59.2152C38.9779 59.2152 38.9056 59.2382 38.8814 59.2458L37.6524 59.5565L36.5669 59.9011C36.5066 59.9203 36.4221 59.9471 36.3497 59.9701L34.0655 60.4699L32.9433 60.866C32.7382 60.9311 32.5376 60.9683 32.3255 60.9693L31.1691 60.9651L30.1468 61.0909L29.0105 61.3588C28.9019 61.3933 28.7857 61.4036 28.6695 61.414L26.1944 61.5633C26.1944 61.5633 26.0782 61.5737 26.0223 61.565L23.4782 61.4975L22.1153 61.3865C22.0474 61.3816 21.9757 61.3646 21.9077 61.3596L20.7307 61.1233L19.6243 60.9839L18.4405 60.9354C17.4206 60.9012 16.629 60.0387 16.676 59.0159C16.7231 57.9932 17.575 57.2056 18.5987 57.2518L19.8625 57.3015C19.8625 57.3015 19.9704 57.307 20.0142 57.3196L21.2604 57.4808C21.2604 57.4808 21.3442 57.494 21.4001 57.5028L22.5371 57.7385L23.6841 57.8385L26.0121 57.895L28.3191 57.7593L29.3913 57.4984C29.4516 57.4793 29.5278 57.4684 29.5919 57.4613L30.8428 57.3028C30.919 57.2919 31.011 57.2891 31.0911 57.2902L32.0512 57.3036L32.9481 56.9923C32.9481 56.9923 33.0567 56.9579 33.117 56.9387L35.5497 56.405L36.6473 56.0565L37.8687 55.7218L38.9434 55.3011C39.0157 55.2781 39.088 55.2551 39.1604 55.2322L40.225 54.9472L43.4397 53.4889L44.3369 52.8858C44.4461 52.8113 44.571 52.7452 44.6916 52.7069L45.6375 52.3403L46.4388 51.7278C46.5238 51.661 46.6126 51.6063 46.7053 51.5636L47.6851 51.0537L50.4582 48.8736C50.4582 48.8736 50.5191 48.8145 50.5635 48.7872L51.5711 48.0297L53.2496 46.542L55.6136 43.8686L56.2317 42.9298C56.7845 42.078 57.9322 41.8461 58.7844 42.3977C59.6367 42.9493 59.868 44.0959 59.3153 44.9477L58.6155 46.0053C58.5622 46.0885 58.5052 46.1596 58.4482 46.2308L55.9457 49.0542C55.9457 49.0542 55.8562 49.1489 55.8156 49.1883L53.8656 50.9081L52.8137 51.6929L51.9059 52.4717C51.9059 52.4717 51.833 52.5347 51.7886 52.5621L49.8262 54.0337C49.7412 54.1005 49.6403 54.1591 49.5394 54.2176L48.5596 54.7277L47.6731 55.4069C47.5355 55.5169 47.3863 55.5908 47.2213 55.6565L46.2273 56.0383L45.3423 56.6376C45.2331 56.712 45.1201 56.7744 44.9995 56.8127L43.824 57.292L41.6357 58.3449C41.5309 58.3914 41.4262 58.4379 41.3138 58.4604L40.1972 58.7485L39.1226 59.1693C39.1226 59.1693 39.0382 59.196 39.002 59.2075L38.9779 59.2152Z" fill="black"></path></svg>