<svg width="24" height="24" viewBox="0 0 24 24" fill="none" xmlns="http://www.w3.org/2000/svg">
<path d="M5.99806 19.6133C5.5539 19.6133 5.17365 19.4551 4.85731 19.1388C4.54098 18.8225 4.38281 18.4422 4.38281 17.9981C4.38281 17.5539 4.54098 17.1736 4.85731 16.8573C5.17365 16.541 5.5539 16.3828 5.99806 16.3828C6.44223 16.3828 6.82248 16.541 7.13881 16.8573C7.45515 17.1736 7.61331 17.5539 7.61331 17.9981C7.61331 18.4422 7.45515 18.8225 7.13881 19.1388C6.82248 19.4551 6.44223 19.6133 5.99806 19.6133ZM11.9981 19.6133C11.5539 19.6133 11.1736 19.4551 10.8573 19.1388C10.541 18.8225 10.3828 18.4422 10.3828 17.9981C10.3828 17.5539 10.541 17.1736 10.8573 16.8573C11.1736 16.541 11.5539 16.3828 11.9981 16.3828C12.4422 16.3828 12.8225 16.541 13.1388 16.8573C13.4551 17.1736 13.6133 17.5539 13.6133 17.9981C13.6133 18.4422 13.4551 18.8225 13.1388 19.1388C12.8225 19.4551 12.4422 19.6133 11.9981 19.6133ZM17.9981 19.6133C17.5539 19.6133 17.1736 19.4551 16.8573 19.1388C16.541 18.8225 16.3828 18.4422 16.3828 17.9981C16.3828 17.5539 16.541 17.1736 16.8573 16.8573C17.1736 16.541 17.5539 16.3828 17.9981 16.3828C18.4422 16.3828 18.8225 16.541 19.1388 16.8573C19.4551 17.1736 19.6133 17.5539 19.6133 17.9981C19.6133 18.4422 19.4551 18.8225 19.1388 19.1388C18.8225 19.4551 18.4422 19.6133 17.9981 19.6133ZM5.99806 13.6133C5.5539 13.6133 5.17365 13.4551 4.85731 13.1388C4.54098 12.8225 4.38281 12.4422 4.38281 11.9981C4.38281 11.5539 4.54098 11.1736 4.85731 10.8573C5.17365 10.541 5.5539 10.3828 5.99806 10.3828C6.44223 10.3828 6.82248 10.541 7.13881 10.8573C7.45515 11.1736 7.61331 11.5539 7.61331 11.9981C7.61331 12.4422 7.45515 12.8225 7.13881 13.1388C6.82248 13.4551 6.44223 13.6133 5.99806 13.6133ZM11.9981 13.6133C11.5539 13.6133 11.1736 13.4551 10.8573 13.1388C10.541 12.8225 10.3828 12.4422 10.3828 11.9981C10.3828 11.5539 10.541 11.1736 10.8573 10.8573C11.1736 10.541 11.5539 10.3828 11.9981 10.3828C12.4422 10.3828 12.8225 10.541 13.1388 10.8573C13.4551 11.1736 13.6133 11.5539 13.6133 11.9981C13.6133 12.4422 13.4551 12.8225 13.1388 13.1388C12.8225 13.4551 12.4422 13.6133 11.9981 13.6133ZM17.9981 13.6133C17.5539 13.6133 17.1736 13.4551 16.8573 13.1388C16.541 12.8225 16.3828 12.4422 16.3828 11.9981C16.3828 11.5539 16.541 11.1736 16.8573 10.8573C17.1736 10.541 17.5539 10.3828 17.9981 10.3828C18.4422 10.3828 18.8225 10.541 19.1388 10.8573C19.4551 11.1736 19.6133 11.5539 19.6133 11.9981C19.6133 12.4422 19.4551 12.8225 19.1388 13.1388C18.8225 13.4551 18.4422 13.6133 17.9981 13.6133ZM5.99806 7.61331C5.5539 7.61331 5.17365 7.45515 4.85731 7.13881C4.54098 6.82248 4.38281 6.44223 4.38281 5.99806C4.38281 5.5539 4.54098 5.17365 4.85731 4.85731C5.17365 4.54098 5.5539 4.38281 5.99806 4.38281C6.44223 4.38281 6.82248 4.54098 7.13881 4.85731C7.45515 5.17365 7.61331 5.5539 7.61331 5.99806C7.61331 6.44223 7.45515 6.82248 7.13881 7.13881C6.82248 7.45515 6.44223 7.61331 5.99806 7.61331ZM11.9981 7.61331C11.5539 7.61331 11.1736 7.45515 10.8573 7.13881C10.541 6.82248 10.3828 6.44223 10.3828 5.99806C10.3828 5.5539 10.541 5.17365 10.8573 4.85731C11.1736 4.54098 11.5539 4.38281 11.9981 4.38281C12.4422 4.38281 12.8225 4.54098 13.1388 4.85731C13.4551 5.17365 13.6133 5.5539 13.6133 5.99806C13.6133 6.44223 13.4551 6.82248 13.1388 7.13881C12.8225 7.45515 12.4422 7.61331 11.9981 7.61331ZM17.9981 7.61331C17.5539 7.61331 17.1736 7.45515 16.8573 7.13881C16.541 6.82248 16.3828 6.44223 16.3828 5.99806C16.3828 5.5539 16.541 5.17365 16.8573 4.85731C17.1736 4.54098 17.5539 4.38281 17.9981 4.38281C18.4422 4.38281 18.8225 4.54098 19.1388 4.85731C19.4551 5.17365 19.6133 5.5539 19.6133 5.99806C19.6133 6.44223 19.4551 6.82248 19.1388 7.13881C18.8225 7.45515 18.4422 7.61331 17.9981 7.61331Z" fill="#222222"/>
</svg>
