<svg width="237" height="229" viewBox="0 0 237 229" fill="none" xmlns="http://www.w3.org/2000/svg">
<path d="M179.267 11.3852L183.21 15.0204L188.019 17.0977L192.52 19.7328L196.347 23.2911L199.81 27.1957L203.753 30.5617L206.599 34.9663L211.312 37.7168L213.87 42.3138L216.409 46.8531L219.621 50.9116L223.006 54.9123L224.237 60.144L226.718 64.6641L228.18 69.6073L232.027 73.7234L232.835 78.936L234.2 83.9753L233.854 89.3224L234.777 94.4003L235.816 99.5358L234.585 104.748L235.874 109.922L236.47 115.173L236.066 120.405L233.989 125.367L233.354 130.522L233.277 135.85L230.334 140.447L230.315 146.025L226.93 150.468L225.564 155.642L222.602 160.143L221.14 165.317L218.255 169.818L215.755 174.492L212.62 178.8L210.581 183.917L206.542 187.533L203.349 191.841L198.675 194.707L195.924 199.535L190.731 201.631L187.615 206.325L182.383 208.075L178.594 211.864L174.343 214.98L169.342 216.711L164.418 218.461L159.841 221.039L154.667 222.058L149.435 222.616L144.876 225.79L139.395 224.828L134.336 225.694L129.22 226.29L124.046 226.54L118.852 228.502L113.678 227.309L108.543 226.309L103.446 225.309L98.1948 225.463L92.8477 225.867L88.0391 223.193L82.5958 223.789L77.8641 220.904L72.6324 220.135L67.8046 218.019L62.9768 215.98L57.8028 214.691L53.1674 212.172L48.0702 210.441L44.5312 206.19L40.3381 203.055L35.6641 200.516L32.5481 196.111L27.8166 193.457L24.1813 189.629L21.1038 185.321L18.1033 180.974L14.3526 177.165L13.3524 171.857L10.0056 167.914L8.25522 163.144L6.69725 158.316L5.88944 153.315L4.15843 148.545L3.75446 143.486L2.27339 138.581L0.503865 133.638L0.984722 128.503L0.119156 123.406L2.42729 118.385L0.850068 113.211L3.27361 108.345L2.06184 103.056L3.73521 98.1894L3.92751 93.0154L4.98549 87.9952L7.58207 83.456L8.75533 78.4743L11.8713 74.2619L12.5253 68.9725L14.641 64.2795L18.4302 60.5864L21.2769 56.2394L25.1045 52.6426L27.7781 48.1226L30.8555 43.8718L34.4716 40.1019L39.0493 37.3706L42.8578 33.8699L45.7044 29.0806L50.7631 27.0996L54.5907 23.4642L58.7261 20.2136L64.1117 19.0596L68.6317 16.5399L73.248 14.1357L77.3256 10.5004L82.6536 9.71168L87.4429 7.61521L92.3091 5.67253L97.5024 4.86472L102.33 2.57584L107.716 2.80664L112.832 1.88343L118.025 1.42171L123.219 0.960107L128.412 0.0561523L133.605 1.47947L138.779 1.76803L143.915 2.53733L149.339 1.65251L154.32 3.47979L159.456 4.49927L164.149 6.98045L169.496 7.49981L173.882 10.5965L179.267 11.3852Z" fill="#FFCD00"/>
</svg>
