<svg width="39" height="39" viewBox="0 0 39 39" fill="none" xmlns="http://www.w3.org/2000/svg">
<rect x="0.333496" y="0.0820312" width="38" height="38" rx="19" fill="#414141"/>
<g clip-path="url(#clip0_2199_55339)">
<path d="M28.8138 14.3901C28.698 13.9608 28.4716 13.5694 28.1573 13.2549C27.8428 12.9406 27.4513 12.7141 27.022 12.5984C25.4405 12.168 19.1026 12.168 19.1026 12.168C19.1026 12.168 12.763 12.168 11.1847 12.5917C10.7544 12.7077 10.3623 12.935 10.0478 13.2507C9.73328 13.5664 9.50741 13.9594 9.39294 14.3901C8.96924 15.97 8.96924 19.2683 8.96924 19.2683C8.96924 19.2683 8.96924 22.5665 9.39294 24.1464C9.50844 24.5758 9.7347 24.9675 10.0492 25.2819C10.3637 25.5964 10.7552 25.8227 11.1847 25.9381C12.7646 26.3619 19.1026 26.3619 19.1026 26.3619C19.1026 26.3619 25.4422 26.3619 27.022 25.9381C27.4513 25.8224 27.8428 25.596 28.1573 25.2815C28.4716 24.9672 28.698 24.5757 28.8138 24.1464C29.2359 22.5665 29.2359 19.2683 29.2359 19.2683C29.2359 19.2683 29.2309 15.97 28.8138 14.3901Z" fill="#C1C1C1"/>
<path d="M17.0742 22.3058L22.341 19.2662L17.0742 16.2266V22.3058Z" fill="#414141"/>
</g>
<defs>
<clipPath id="clip0_2199_55339">
<rect width="38" height="38" fill="white" transform="translate(0.333496 0.0820312)"/>
</clipPath>
</defs>
</svg>
