<svg width="40" height="40" viewBox="0 0 40 40" fill="none" xmlns="http://www.w3.org/2000/svg">
<rect width="40" height="40" rx="12" fill="white"/>
<mask id="mask0_970_13741" style="mask-type:luminance" maskUnits="userSpaceOnUse" x="3" y="13" width="34" height="14">
<path d="M36.6615 13.332H3.32812V26.3943H36.6615V13.332Z" fill="white"/>
</mask>
<g mask="url(#mask0_970_13741)">
<path d="M21.7727 18.2422C21.7727 18.8998 21.2874 19.5374 20.4102 19.5374H18.5234V14.9592H20.2642C21.0416 14.9592 21.5269 15.4246 21.5269 16.1348C21.5269 16.513 21.3872 16.9258 20.9418 17.0981C21.487 17.2116 21.7727 17.7432 21.7727 18.2411V18.2422ZM20.2505 15.5843H19.2073V16.847H20.2642C20.6423 16.847 20.842 16.5812 20.842 16.2094C20.842 15.8375 20.6423 15.5843 20.2505 15.5843ZM20.2778 18.9124C20.8094 18.9124 21.0888 18.5731 21.0888 18.1749C21.0888 17.803 20.843 17.4312 20.3114 17.4312H19.2084V18.9124H20.2778Z" fill="#313131"/>
<path d="M24.9062 15.3049C24.9062 15.0653 25.1122 14.8867 25.3517 14.8867C25.5912 14.8867 25.7971 15.0664 25.7971 15.3049C25.7971 15.5433 25.5975 15.7229 25.3517 15.7229C25.1058 15.7229 24.9062 15.5433 24.9062 15.3049ZM25.026 19.5375V16.4342H25.6774V19.5375H25.026Z" fill="#313131"/>
<path d="M28.9944 16.4354H29.6457V19.5387H28.9944V19.0134C28.7948 19.3727 28.3693 19.6185 27.8914 19.6185C27.0803 19.6185 26.3828 18.9409 26.3828 17.9839C26.3828 17.0269 27.0405 16.3555 27.9177 16.3555C28.3693 16.3555 28.7948 16.5478 28.9944 16.9008V16.4354ZM28.9881 17.9839C28.9881 17.3861 28.4902 16.9669 27.9912 16.9669C27.4596 16.9669 27.0415 17.4323 27.0415 17.9839C27.0415 18.5354 27.4596 19.0071 28.0048 19.0071C28.5501 19.0071 28.9881 18.569 28.9881 17.9839Z" fill="#313131"/>
<path d="M33.4584 17.7643V19.5386H32.807V17.8042C32.807 17.2989 32.5013 16.9931 32.1032 16.9931C31.705 16.9931 31.206 17.2253 31.206 17.8703V19.5386H30.5547V16.4353H31.206V16.9133C31.3857 16.5278 31.8836 16.3555 32.2156 16.3555C32.9993 16.3555 33.4647 16.8807 33.4584 17.7643Z" fill="#313131"/>
<path d="M24.4116 16.4218C24.3098 16.3861 24.1459 16.3672 23.9946 16.3672C23.5986 16.3672 23.2886 16.5983 23.13 17.1393V16.4459H22.4766V19.5282H23.13V18.4189C23.13 17.5869 23.3937 16.987 23.9547 16.987C24.0797 16.987 24.2394 17.0133 24.4116 17.0931V16.4218Z" fill="#313131"/>
<path d="M21.2275 21.0068H19.2073V22.3956H20.8083V23.0207H19.2073V24.961H18.5234V20.3828H21.2275V21.0079V21.0068Z" fill="#313131"/>
<path d="M24.5495 23.6704H22.0775C22.1637 24.1757 22.5356 24.4341 23.0346 24.4341C23.4001 24.4341 23.7385 24.2681 23.9118 23.9824L24.4297 24.2419C24.1576 24.7598 23.5987 25.0393 23.0073 25.0393C22.1101 25.0393 21.4062 24.3816 21.4062 23.3983C21.4062 22.415 22.1238 21.7773 23.0073 21.7773C23.8907 21.7773 24.5621 22.415 24.5621 23.392C24.5621 23.4781 24.5557 23.5717 24.5484 23.6715L24.5495 23.6704ZM23.9118 23.1462C23.8456 22.6609 23.4937 22.3825 23.0146 22.3825C22.5356 22.3825 22.1773 22.6283 22.0849 23.1462H23.9118Z" fill="#313131"/>
<path d="M25.2578 24.9603V20.1699H25.9091V24.9603H25.2578Z" fill="#313131"/>
<path d="M26.8203 24.9603V20.1699H27.4716V24.9603H26.8203Z" fill="#313131"/>
<path d="M28.1797 23.4057C28.1797 22.4224 28.9235 21.7773 29.808 21.7773C30.6926 21.7773 31.4426 22.4213 31.4426 23.4057C31.4426 24.3901 30.6916 25.0403 29.808 25.0403C28.9246 25.0403 28.1797 24.389 28.1797 23.4057ZM30.7914 23.4057C30.7914 22.8079 30.3396 22.3888 29.808 22.3888C29.2765 22.3888 28.831 22.8069 28.831 23.4057C28.831 24.0045 29.2765 24.4289 29.808 24.4289C30.3396 24.4289 30.7914 24.0108 30.7914 23.4057Z" fill="#313131"/>
<path d="M35.9585 21.8574H36.6624L35.5257 24.9607H34.9742L34.1705 22.7346L33.3931 24.9607H32.8552L31.6797 21.8574H32.3836L33.1273 23.9774L33.8648 21.8574H34.4762L35.22 23.9774L35.9574 21.8574H35.9585Z" fill="#313131"/>
<path d="M12.4415 19.4072V13.332H3.32812V19.4072H12.4415Z" fill="#FFC200"/>
<path d="M12.4444 19.4083C14.1223 19.4083 15.4825 18.0481 15.4825 16.3702C15.4825 14.6922 14.1223 13.332 12.4444 13.332C10.7665 13.332 9.40625 14.6922 9.40625 16.3702C9.40625 18.0481 10.7665 19.4083 12.4444 19.4083Z" fill="#FFDE80"/>
<path d="M12.4415 26.3955V20.3203H3.32812V26.3955H12.4415Z" fill="#FFC200"/>
<path d="M12.4444 26.3966C14.1223 26.3966 15.4825 25.0363 15.4825 23.3584C15.4825 21.6805 14.1223 20.3203 12.4444 20.3203C10.7665 20.3203 9.40625 21.6805 9.40625 23.3584C9.40625 25.0363 10.7665 26.3966 12.4444 26.3966Z" fill="#FFDE80"/>
</g>
</svg>
