<svg aria-hidden="true" class="eye_dark eye_dark1" xmlns="http://www.w3.org/2000/svg" width="57" height="77" viewBox="0 0 57 77" fill="none"><path d="M30.6549 27.4708L31.2624 28.621L31.5914 29.8849L32.1355 31.0729L32.3 32.3747L32.7429 33.6007L32.9453 34.8899L33.0719 36.179L33.1225 37.4809L32.996 38.77L32.9201 40.0592L32.9327 41.361L32.6923 42.6375L32.3 43.8761L31.9837 45.14L31.4395 46.3154L30.7942 47.4403L30.1994 48.5904L29.4021 49.6268L28.4278 50.4736L27.4913 51.371L26.3904 52.0661L25.2643 52.7107L24.0873 53.2668L22.8093 53.5323L21.5186 53.646L20.2278 53.6713L18.9371 53.5954L17.6464 53.5196L16.4189 53.1025L15.1282 52.8624L13.9513 52.3315L12.7998 51.7375L11.7369 50.9918L10.6612 50.2841L9.62354 49.5005L8.54795 48.7674L7.68747 47.7815L6.85225 46.7957L5.96651 45.8478L5.11862 44.8619L4.44799 43.7497L3.78994 42.6249L3.22048 41.4621L2.63844 40.312L2.01839 39.1618L1.57545 37.9358L1.11991 36.7225L0.803554 35.4586L0.626376 34.1695L0.335353 32.9056V31.6038L0.145508 30.3146L0.246764 29.0128L0.310019 27.7236L0.385942 26.4345L0.550453 25.1453L0.828887 23.8814L1.22117 22.6302L1.71462 21.4295L2.42326 20.3299L3.13189 19.2556L3.80261 18.1308L4.8656 17.3597L5.71341 16.3486L6.83966 15.6915L7.96583 15.0595L9.23126 14.7435L10.4588 14.3391L11.7369 14.2L13.0275 14.0483L14.331 14.0358L15.6091 14.238L16.8745 14.5413L18.0766 15.0342L19.2914 15.4892L20.4556 16.0327L21.6198 16.6394L22.6068 17.4988L23.6698 18.2318L24.5682 19.1671L25.5173 20.0392L26.4031 20.9871L27.3648 21.8718L27.9722 23.0472L28.6935 24.1089L29.5161 25.1327L30.0855 26.2954L30.6549 27.4708Z" fill="white"></path><path d="M54.0651 15.7167L54.6978 16.8542L55.1028 18.0928L55.6216 19.2935L55.8747 20.5701L56.0392 21.8592L56.2796 23.1231L56.5454 24.3996V25.7014L56.6086 26.9906L56.6213 28.2924L56.4441 29.5816L56.2417 30.8707L55.7355 32.0841L55.4444 33.3479L54.9509 34.5487L54.3309 35.6861L53.7235 36.8363L52.8123 37.7842L52.0278 38.8206L50.9269 39.5284L49.9525 40.4005L48.7883 40.9818L47.5609 41.4494L46.2954 41.7528L45.0047 41.816L43.7139 41.8792L42.4106 41.9803L41.1325 41.7654L39.8924 41.3863L38.627 41.0703L37.4501 40.5268L36.3239 39.8949L35.147 39.3388L34.0714 38.6057L33.1223 37.721L32.0847 36.9248L31.1862 36.0021L30.2751 35.0795L29.3767 34.1315L28.6554 33.0446L27.9974 31.9324L27.3646 30.8075L26.7446 29.6701L26.0739 28.5452L25.6689 27.3192L25.0489 26.1691L24.6946 24.9178L24.3656 23.6539L24.1884 22.3774L23.948 21.1009L23.7961 19.8243L23.5684 18.5352L23.6569 17.2334L23.7835 15.9442L23.8594 14.6551L23.9986 13.3532L24.3909 12.1146L24.8085 10.8886L25.3652 9.72588L25.9347 8.56313L26.5295 7.41295L27.352 6.3892L28.1998 5.40341L29.2122 4.58185L30.351 3.94991L31.4519 3.26743L32.7174 2.92616L33.9322 2.48383L35.223 2.39535L36.5136 2.31952L37.8044 2.33217L39.0952 2.45853L40.3733 2.72397L41.6133 3.10312L42.8282 3.60871L43.9291 4.30383L45.03 4.97365L46.1942 5.58037L47.08 6.55351L48.1936 7.23606L49.0667 8.2092L49.9778 9.13189L50.6738 10.2315L51.4963 11.2299L52.1796 12.3295L52.9263 13.3912L53.6222 14.4908L54.0651 15.7167Z" fill="white"></path><path class="pupil dir_right" d="M25.7423 19.7924L26.2611 20.9425L26.5774 22.1812L26.8432 23.4198L27.0963 24.671V25.9475L27.0836 27.2114L26.8811 28.4627L26.5395 29.6887L26.1346 30.8894L25.4638 31.9763L24.7173 33L23.7049 33.7836L22.5787 34.3651L21.4019 34.7947L20.149 35.0602L18.8836 34.9844L17.6309 34.7694L16.4034 34.4156L15.2645 33.8342L14.1763 33.1644L13.2399 32.2923L12.2908 31.4581L11.4429 30.5101L10.709 29.4737L9.9877 28.4121L9.4815 27.2367L8.92471 26.0865L8.63369 24.848L8.24141 23.6346L8.06423 22.3707L8.00098 21.0942L8.0769 19.8177L8.34267 18.579L8.67169 17.3531L9.0513 16.1397L9.70927 15.0402L10.5445 14.0923L11.4809 13.2328L12.5945 12.6135L13.7966 12.2344L15.0494 11.9689L16.3148 12.0069L17.5549 12.3102L18.7698 12.6641L19.9086 13.2455L20.9969 13.9027L22.0219 14.6484L22.9203 15.571L23.7175 16.5569L24.4388 17.5932L25.1096 18.6802L25.7423 19.7924Z" fill="black"></path><path d="M27.1016 72.568C27.1016 72.568 27.0395 72.5801 27.0022 72.5873L23.2548 73.0717C23.1679 73.0886 23.0909 73.0907 23.0015 73.0952L20.5418 73.1746C20.4673 73.1891 20.3879 73.1787 20.3086 73.1684L19.0409 73.0803L16.4419 72.7748C16.3501 72.7669 16.2559 72.7466 16.1617 72.7263L15.0021 72.3982L13.8198 72.1518C13.738 72.1291 13.6562 72.1063 13.5744 72.0836L12.3831 71.6587C12.3831 71.6587 12.2592 71.6185 12.2023 71.5909L8.72224 69.9375C8.72224 69.9375 8.60589 69.8699 8.54655 69.8299L7.49574 69.1331C7.49574 69.1331 7.40669 69.0731 7.35977 69.0308L6.36659 68.2326C6.36659 68.2326 6.26028 68.1502 6.22579 68.1054L5.32988 67.2111C5.32988 67.2111 5.2336 67.1139 5.19911 67.0691L4.40294 66.0909C3.75956 65.3019 3.89494 64.1425 4.68514 63.4994C5.47776 62.8688 6.63606 62.9912 7.27943 63.7802L8.00904 64.6812L8.76175 65.436L9.60422 66.122L10.5068 66.7189L11.5387 67.2521L13.6898 68.2371L14.6731 68.5866L15.7885 68.8202C15.7885 68.8202 15.8703 68.8429 15.91 68.8481L17.0003 69.151L20.4353 69.5128L22.8057 69.438L23.9332 69.2701L26.3543 68.9922L27.3833 68.7148L29.6236 67.9055L30.6612 67.4075C31.5794 66.9585 32.6842 67.3359 33.1333 68.2528C33.5824 69.1698 33.2041 70.2734 32.2859 70.7224L31.1562 71.277C31.0865 71.3163 31.0144 71.3432 30.9422 71.3701L28.6149 72.1962C28.6149 72.1962 28.4932 72.2328 28.4335 72.2573L27.2082 72.5858C27.2082 72.5858 27.1212 72.6028 27.084 72.61L27.1016 72.568Z" fill="black"></path><path class="pupil dir_right" d="M49.6572 7.811L50.1254 8.98641L50.581 10.1871L50.8215 11.4384L51.0366 12.6896L51.1251 13.9661L51.0112 15.2427L50.834 16.4939L50.5051 17.7198L49.9989 18.8827L49.3408 19.9696L48.5436 20.9427L47.5946 21.7769L46.519 22.4468L45.3295 22.9018L44.064 23.0155L42.7986 22.965L41.5332 22.8007L40.3564 22.3331L39.2048 21.8148L38.1419 21.1197L37.1548 20.3234L36.1931 19.4893L35.3706 18.5161L34.5734 17.5303L33.9533 16.4054L33.4344 15.2427L32.9283 14.0798L32.4728 12.8918L32.2323 11.6405L32.0172 10.3893L31.9033 9.11276L31.9666 7.83622L32.1311 6.57234L32.574 5.37171L32.9916 4.18365L33.6243 3.07142L34.4468 2.0982L35.3706 1.22612L36.5095 0.657352L37.6863 0.164418L38.9643 0.0760133L40.2424 0.000183105L41.4952 0.252899L42.6974 0.670003L43.8363 1.23877L44.8739 1.98442L45.8609 2.78067L46.8353 3.58958L47.6705 4.55015L48.3791 5.5992L49.0877 6.66082L49.6572 7.811Z" fill="black"></path></svg>