<svg width="207" height="193" viewBox="0 0 207 193" fill="none" xmlns="http://www.w3.org/2000/svg">
<path d="M205.688 53.7123L201.392 53.5762L197.485 54.1983L193.578 52.2155L189.671 53.1291L185.763 52.2932L181.856 54.276L177.949 54.2371L174.061 53.4013L170.154 52.1961L166.247 52.3321L162.34 52.1183L158.432 52.4682L154.525 54.3926L150.618 54.2566L146.711 52.6626H142.823L138.916 54.2566L135.009 53.0319L131.101 52.9931L127.194 52.9542L123.287 53.2652L119.38 53.6734L115.473 54.3149L111.565 54.2566L107.658 53.3624L103.731 52.371L99.8437 53.5374L95.9365 52.8764L92.0292 53.4596L88.122 52.7014L84.2342 53.479L80.327 52.1766L76.4197 52.4876L72.5125 52.0988L68.6054 54.1983L64.6981 52.8958L60.7909 54.1983L56.8642 52.371L52.957 53.654L49.0499 54.4315L45.1426 53.479L41.2354 53.7706L37.3087 52.371L33.4015 54.4121L29.4944 53.2457L25.5871 52.6626L21.6604 53.5374L17.7532 52.2155L13.8266 52.857L9.91939 53.4013L5.99269 53.343L2.10492 53.2846L1.0746 49.2608L2.00775 45.1981L1.26906 41.1353L2.43535 37.092L1.44394 33.0293L1.89112 28.986L1.44394 24.9233L2.04654 20.8605L1.11352 16.7978L2.53252 12.7351L2.78523 8.65292L3.79609 5.79541L5.37064 2.80186L8.75298 1.9854L12.7186 1.11069L16.6646 1.69383L20.6108 1.40226L24.5568 0.994059L28.5224 2.74355L32.4684 1.69383L36.4146 1.32449L40.3606 1.14954L44.3261 1.7716L48.2723 2.76294L52.2184 2.52969L56.1645 2.47137L60.1299 1.75214L64.0761 3.13229L68.0416 1.03292L71.9877 2.588L75.9338 1.75214L79.8994 2.3936L83.8454 1.86877L87.7916 2.95735L91.757 3.1712L95.7032 2.25757L99.6492 3.1712L103.595 0.955143L107.541 2.91849L111.507 0.760742L115.453 0.857972L119.399 2.19926L123.345 1.20786L127.311 1.32449L131.257 3.13229L135.222 2.89903L139.169 2.54915L143.134 2.84072L147.08 2.64632L151.046 0.760742L154.992 1.22732L158.957 1.94654L162.923 2.588L166.869 1.1884L170.834 3.13229H174.8L178.746 1.24671L182.712 2.06317L186.677 2.02432L190.643 1.75214L194.608 1.40226L198.593 1.86877L202.325 2.1798L204.697 5.13449L204.075 8.65292L205.552 12.7157L206.31 16.7784L204.425 20.8217L204.58 24.8844L204.541 28.9277L205.824 32.9904L205.008 37.0532L205.98 41.1159L206.349 45.1786L204.891 49.2608L205.688 53.7123Z" fill="#00A362"/>
<path d="M198.594 190.814L194.628 192.369L190.682 191.631L186.736 192L182.79 191.669L178.824 191.009L174.878 192.719L170.932 192.7L166.986 192.233L163.02 191.572L159.074 191.767L155.128 192.7L151.182 192.466L147.217 192.428L143.27 192.253L139.305 192.622L135.359 190.814L131.413 191.281L127.447 190.542L123.501 192.505L119.555 192.719L115.589 190.678L111.643 190.445L107.697 191.067L103.751 191.669L99.8051 191.942L95.8395 192.777L91.8935 192.33L87.9473 191.611L84.0013 192.777L80.0358 192.525L76.0896 192.136L72.1241 191.164L68.178 191.125L64.2125 192.661L60.2663 191.242L56.3009 190.97L52.3547 191.047L48.3892 191.572L44.4237 192.622L40.4776 191.222L36.5121 191.281L32.5465 192.175L28.6004 190.717L24.635 191.514L20.6693 191.164L16.7039 192.039L12.7382 190.814L8.7533 192.155L5.15715 191.164L3.85478 187.762L3.03826 184.944L1.8136 180.978L3.07718 177.032L1.63872 173.086L1.98861 169.12L3.05772 165.155L2.00806 161.209L2.28024 157.243L1.94969 153.297L0.861117 149.351L0.938949 145.405L3.21327 141.439L1.73589 137.493L1.19166 133.528L2.31903 129.582L1.34709 125.636L1.52209 121.67L1.67764 117.724L3.03826 113.758L1.94969 109.812L3.11609 105.847L1.79426 101.881L0.84166 97.9157L3.27152 93.9696L3.17435 90.0041L2.49404 86.0386L2.16361 82.073L2.14415 78.1075L2.06632 74.1614L1.63872 70.1958L2.18295 66.2303L1.44426 62.2648L0.880575 58.2993L2.04686 54.3143L2.08578 50.3682L5.9541 49.8433L9.86133 50.8542L13.7686 49.7656L17.6758 50.9319L21.583 49.2407L25.4903 50.1544L29.3974 49.785L33.2852 50.7181L37.1924 50.9514L41.0996 49.5518L45.0069 49.9016L48.9141 49.3574L52.8213 51.068L56.7285 50.3488L60.6357 49.4157L64.5235 49.5712L68.4307 50.0183L72.3379 50.5042L76.2452 50.4265L80.1524 51.4568L84.0595 50.7764L87.9668 49.6101L91.874 49.9211L95.7812 49.5518L99.6885 50.1933L103.615 49.2407L107.503 51.2041L111.41 50.7181L115.317 51.3985L119.225 50.8347L123.112 50.9125L127.02 50.1544L130.927 49.8045L134.834 49.4546L138.741 51.3596L142.648 49.2602L146.556 49.338L150.482 50.1738L154.39 49.2602L158.297 50.6986L162.204 50.1155L166.111 51.2235L170.038 51.1458L173.945 50.271L177.852 51.4568L181.759 50.2904L185.686 51.5151L189.593 49.4351L193.52 50.3876L197.427 49.9794L201.354 50.8542L204.503 51.1263L204.989 54.3143L205.689 58.2604L205.922 62.2065L204.872 66.172L205.689 70.1375L204.561 74.0836L206.077 78.0492L204.134 81.9953L205.961 85.9414L206.447 89.8874L205.3 93.853L204.114 97.7991L205.553 101.765L204.639 105.711L204.814 109.657L205.436 113.622L204.931 117.568V121.534L206.252 125.48L205.611 129.446L204.989 133.411L204.328 137.357L204.697 141.323L206.136 145.288L206.369 149.254L206 153.219L204.6 157.185L204.425 161.131L204.386 165.096L204.114 169.062V173.028L205.144 176.993L205.572 180.959L204.211 184.944L205.125 188.715L201.723 190.387L198.594 190.814Z" fill="#14D284"/>
<path d="M93.9546 25.9517L93.2936 29.509L91.272 32.5026L88.2785 34.5437L84.7406 35.3018L81.1833 34.5437L78.2092 32.4832L76.1292 29.5285L75.3905 25.9517L76.2069 22.4333L78.248 19.4785L81.1638 17.3597L84.7406 16.8154L88.2785 17.418L91.3498 19.3425L93.352 22.3944L93.9546 25.9517Z" fill="white"/>
<path d="M64.7949 25.9529L64.0951 29.4713L62.1317 32.4649L59.1382 34.4282L55.6391 35.1864L52.1012 34.4866L49.0494 32.5427L47.0277 29.5297L46.3863 25.9529L47.0666 22.415L49.1271 19.4409L52.1012 17.4192L55.6391 16.7583L59.2159 17.3414L62.19 19.402L64.1533 22.4345L64.7949 25.9529Z" fill="white"/>
<path d="M35.772 25.9524L35.0722 29.4902L33.1477 32.5616L30.0375 34.4082L26.5385 35.1275L23.0201 34.486L19.9682 32.5421L18.0632 29.4708L17.2661 25.9524L17.9854 22.4145L20.0653 19.4792L23.0396 17.4964L26.5385 16.7383L30.057 17.477L33.1477 19.3625L35.0722 22.4339L35.772 25.9524Z" fill="white"/>
</svg>
