<svg width="221" height="199" viewBox="0 0 221 199" fill="none" xmlns="http://www.w3.org/2000/svg">
<path d="M201.093 20.8306L198.333 17.8877L195.37 15.1082L191.753 13.2484L189.014 9.99894L184.906 9.05884L181.677 6.38157L177.856 4.97141L174.095 3.29556L169.742 4.01086L165.941 2.45763L161.894 2.35545L157.909 1.70146L153.862 1.57883L149.755 1.04748L145.892 2.86638L141.641 2.19195L138.228 5.17577L134.406 6.25894L130.176 6.50419L126.538 8.3231L122.573 9.54932L119.589 12.4718L116.851 15.5578L113.029 17.2541L110.311 20.4014L107.654 17.1724L103.914 15.3535L101.441 11.8587L97.9462 9.73327L94.002 8.46616L90.7525 5.76845L86.6853 4.93052L82.6797 4.15392L79.0012 2.08976L74.9748 1.21096L70.867 1.00659L66.7795 0.413914L62.6514 0.373047L58.666 1.92627L54.5172 1.61971L50.5525 2.55982L47.0579 5.15533L43.2973 6.50419L39.1283 6.85162L35.3472 8.34354L31.4848 9.79457L28.9301 13.3302L25.517 15.4557L22.6353 18.276L19.9786 21.2802L17.0969 24.0597L13.2138 26.1034L11.5992 29.9865L9.33072 33.3586L6.28561 36.3424L4.65078 40.1437L3.5471 44.129L2.25955 48.012L0.685848 51.8747L0.563354 56.0234L1.17632 60.1926L0.869712 64.2187L1.03337 68.2244L1.78953 72.1892L1.23769 76.3175L1.23769 80.4458L3.95574 83.9406L3.62893 88.2937L4.87556 92.1971L7.47112 95.4875L8.98345 99.3093L12.0897 102.13L14.4196 105.379L17.2808 108.22L19.7334 111.388L21.6339 115.291L25.5989 117.028L28.644 119.746L30.6059 123.568L34.6933 125.203L37.7384 127.88L39.9253 131.498L42.5411 134.666L45.709 137.241L48.6518 140.041L52.1876 142.227L54.0472 146.192L56.6428 149.38L60.117 151.649L63.6733 153.815L65.9827 157.31L69.1503 159.905L71.8072 163.032L74.8728 165.71L77.6113 168.755L79.9821 172.168L84.6214 173.23L87.2985 176.337L90.1188 179.28L92.2648 182.938L96.2704 184.675L98.6412 188.109L101.073 191.481L104.139 194.219L108.042 196.059L110.311 198.756L113.397 196.897L116.258 194.015L119.426 191.42L121.551 187.782L125.577 186.085L127.723 182.448L130.564 179.546L133.854 177.093L136.879 174.355L139.74 171.452L142.05 167.978L146.219 166.445L147.547 161.949L151.757 160.437L154.046 156.922L157.316 154.449L160.607 151.996L163.488 149.094L166.697 146.54L168.843 142.902L172.521 140.817L175.567 138.119L177.999 134.768L180.063 131.028L183.557 128.78L186.766 126.225L189.076 122.73L192.448 120.339L194.818 116.906L198.681 115.005L201.358 111.878L204.015 108.813L206.182 105.379L209.186 102.559L211.189 99.0232L213.886 95.8554L215.337 92.0132L217.136 88.3345L218.669 84.5128L219.282 80.4254L218.955 76.2357L220.222 72.3118L219.2 68.204L220.099 64.1983L219.241 60.213L219.036 56.1869L219.568 51.936L217.872 48.1551L215.521 44.6808L214.561 40.7568L214.213 36.4038L210.576 33.7673L208.225 30.5178L205.936 27.2479L205.057 22.7109L201.093 20.8306Z" fill="#FF5A4D"/>
</svg>
