<svg width="65" height="57" viewBox="0 0 65 57" fill="none" xmlns="http://www.w3.org/2000/svg">
<g clip-path="url(#clip0_984_9397)">
<path d="M35.9019 2.77133L62.6695 49.6978C64.2484 52.4731 62.2202 55.9195 59.0154 55.892L4.81917 55.5033C1.6144 55.4758 -0.363063 52.0146 1.25185 49.2585L28.6901 2.71947C30.3147 -0.0379111 34.323 -0.00393488 35.9019 2.77133Z" fill="#FFA400"/>
<path d="M33.7523 36.6049L30.3674 36.5802C29.8484 36.5732 29.4256 36.1337 29.4058 35.5708L28.9292 20.8538C28.9121 20.3101 29.2767 19.841 29.7659 19.7741C29.7754 19.7728 29.8809 19.7584 29.8905 19.7571L34.4106 19.7923C34.6653 19.7965 34.8949 19.9016 35.0777 20.0911C35.2727 20.2985 35.3825 20.5955 35.3663 20.9L34.7078 35.6064C34.6812 36.1171 34.3291 36.5358 33.8687 36.5987C33.8591 36.6 33.7536 36.6145 33.744 36.6158L33.7523 36.6049Z" fill="black"/>
<path d="M29.8127 20.0406C29.8127 20.0406 29.8703 20.0327 29.899 20.0288L34.4193 20.0641C34.8109 20.069 35.1258 20.4355 35.1091 20.8766L34.4506 35.5832C34.4354 35.9656 34.1755 36.2742 33.8398 36.3201C33.811 36.324 33.7822 36.3279 33.7535 36.3319L30.3684 36.3072C29.996 36.2996 29.6959 35.9701 29.6783 35.5629L29.2016 20.8457C29.184 20.4386 29.4592 20.0987 29.814 20.0502M29.7381 19.5048C29.1051 19.5913 28.6386 20.1719 28.6661 20.8604L29.1428 35.5776C29.1634 36.2866 29.7008 36.847 30.3663 36.8535L33.7514 36.8782C33.8089 36.8703 33.8678 36.872 33.9158 36.8655C34.5104 36.7842 34.9656 36.2636 34.9941 35.6259L35.6526 20.9193C35.6691 20.5465 35.539 20.1742 35.288 19.916C35.0589 19.6743 34.7568 19.5401 34.424 19.5369L29.9038 19.5016C29.8462 19.5095 29.7874 19.5078 29.7394 19.5143L29.7381 19.5048Z" fill="black"/>
<path d="M33.4151 46.845C33.3575 46.8529 33.3095 46.8595 33.2506 46.8578L30.7143 46.8337C30.4102 46.8265 30.1201 46.7101 29.9044 46.4957C29.6887 46.2813 29.5693 45.9855 29.5759 45.6822L29.5971 42.6066C29.5965 42.0409 30.0273 41.5529 30.5839 41.4768C30.6415 41.4689 30.6895 41.4624 30.7484 41.4641L33.2847 41.4881C33.9205 41.489 34.4337 42.0139 34.4231 42.6396L34.4019 45.7152C34.4025 46.2809 33.9717 46.769 33.4151 46.845Z" fill="black"/>
<path d="M30.6211 41.7449C30.6211 41.7449 30.7075 41.7331 30.7459 41.7278L33.2822 41.7519C33.7618 41.7546 34.159 42.149 34.1586 42.6368L34.1373 45.7124C34.1302 46.1523 33.8095 46.5181 33.3873 46.5758C33.3489 46.581 33.3009 46.5876 33.2625 46.5928L30.7262 46.5688C30.2466 46.5661 29.8494 46.1716 29.8498 45.6838L29.8711 42.6082C29.8782 42.1683 30.1989 41.8026 30.6211 41.7449ZM30.5451 41.1993C29.8541 41.2937 29.3215 41.8932 29.3216 42.5955L29.3004 45.6712C29.292 46.4527 29.9294 47.0971 30.7119 47.0975L33.2482 47.1215C33.3167 47.1219 33.3852 47.1223 33.4524 47.1131C34.1434 47.0187 34.6759 46.4192 34.6758 45.7168L34.6971 42.6412C34.7055 41.8597 34.068 41.2152 33.2856 41.2149L30.7493 41.1909C30.6808 41.1905 30.6123 41.1901 30.5451 41.1993Z" fill="black"/>
</g>
<defs>
<clipPath id="clip0_984_9397">
<rect width="64" height="56" fill="white" transform="translate(0.149414 0.305298)"/>
</clipPath>
</defs>
</svg>
