<svg width="221" height="221" viewBox="0 0 221 221" fill="none" xmlns="http://www.w3.org/2000/svg">
<path d="M23.171 216.204L27.7751 215.696L32.0066 213.208L36.5936 212.717L41.1805 212.176L45.7844 211.719L50.3037 210.838L54.9245 210.534L59.2408 208.536L63.7769 207.792L68.5332 208.181L73.0018 207.064L77.3011 204.931L81.9219 204.61L86.4919 203.916L90.842 202.172L95.5304 202.155L100.016 201.055L104.4 199.515L109.139 199.786L113.675 198.939L118.245 198.262L122.629 196.722L127.064 195.469L131.702 195.182L135.916 192.88L140.74 193.472L145.09 191.864L149.779 191.796L154.044 189.765L158.513 188.699L162.897 187.26L167.382 186.329L172.003 185.889L176.37 184.349L180.771 182.995L185.679 183.757L190.063 182.352L194.396 180.642L199.017 180.168L203.333 178.357L208.208 177.274L210.848 173.025L213.946 169.302L215.012 164.427L214.301 159.4L210.916 155.659L208.631 151.58L205.974 147.822L202.132 145.046L199.914 140.933L195.632 138.547L193.905 134.01L189.877 131.404L188.303 126.732L185.239 123.33L181.092 120.808L178.926 116.627L176.319 112.819L172.121 110.348L170.022 106.116L167.196 102.511L164.217 99.0241L161.289 95.5035L157.92 92.3383L155.331 88.5299L151.59 85.7032L148.56 82.2672L146.749 77.7986L143.804 74.2781L140.673 70.9266L137.66 67.4737L134.985 63.7161L131.262 60.8894L128.283 57.4196L125.845 53.4757L122.375 50.429L118.922 47.3824L116.79 43.1508L113.879 39.6301L110.578 36.448L106.752 33.7399L104.721 29.4068L100.507 27.054L97.6292 23.4826L94.4471 20.1989L92.3822 15.8828L89.2 12.5821L85.8487 9.4338L81.8372 6.421L76.9624 5.50702L72.0707 5.37158L68.0423 8.11361L63.8785 10.551L61.7289 14.901L60.8826 19.4203L58.716 23.4826L57.7174 27.951L55.7708 32.081L53.7567 36.211L53.7398 40.9842L51.5732 45.0635L50.7608 49.5827L49.1696 53.8482L46.3939 57.7412L44.9213 62.0573L45.2936 66.9321L43.144 71.0282L42.2807 75.5306L40.842 79.8467L38.3709 83.8413L37.2368 88.259L37.0845 92.9645L34.5456 96.9591L33.936 101.529L32.8021 105.947L31.7866 110.398L29.8231 114.579L29.0615 119.082L27.8088 123.466L27.2164 128.036L25.3037 132.216L23.2388 136.363L22.5786 140.899L21.2077 145.25L21.1908 149.972L18.7364 154L18.6519 158.706L17.45 163.107L15.7067 167.338L14.7418 171.79L13.0831 176.038L11.0857 180.202L9.6809 184.535L9.95178 189.325L8.78377 193.709L6.02479 197.636L7.05747 202.578L7.22669 207.368L9.57945 211.719L13.4048 214.951L18.2626 216.069L23.171 216.204Z" fill="#8C8CFF"/>
</svg>
