<svg width="40" height="40" viewBox="0 0 40 40" fill="none" xmlns="http://www.w3.org/2000/svg">
<rect width="40" height="40" rx="12" fill="#FFCD00"/>
<path d="M4.18322 20.0567L5.50401 21.7135L5.89188 21.4057L4.7704 20.0282L5.73769 18.7858L5.34405 18.494L4.18322 20.0567ZM3.5 17.3066V21.6357H4.00295V17.1945L3.5 17.3066ZM6.33967 20.812C6.33148 20.678 6.35477 20.5439 6.4076 20.4209C6.46044 20.2979 6.54131 20.1894 6.64354 20.1044C6.84537 19.9421 7.13947 19.8608 7.52608 19.86H8.10625V19.6643C8.10625 19.1901 7.90191 18.9529 7.49324 18.9529C7.35409 18.9542 7.21564 18.973 7.08105 19.009C6.94514 19.044 6.8125 19.0911 6.68466 19.1496L6.53674 18.7858C6.68896 18.6981 6.8518 18.631 7.02113 18.5863C7.18566 18.5407 7.35531 18.5171 7.52583 18.5159C8.23437 18.5134 8.58889 18.8999 8.58889 19.6758V21.6355H8.21481L8.15489 21.2991C8.01105 21.419 7.84964 21.5152 7.67651 21.5843C7.52304 21.6484 7.35904 21.6825 7.19312 21.6849C7.07864 21.6916 6.96402 21.6744 6.85632 21.6344C6.74862 21.5944 6.6501 21.5324 6.56682 21.4523C6.48841 21.3664 6.42787 21.2654 6.38884 21.1552C6.34981 21.045 6.33308 20.9279 6.33967 20.8109M7.28388 21.2709C7.35659 21.2704 7.42855 21.2607 7.49875 21.2423C7.57472 21.2235 7.64944 21.1993 7.72215 21.17C7.79511 21.1404 7.86506 21.1037 7.9315 21.0609C7.99343 21.0201 8.05184 20.9738 8.10625 20.9233V20.2068H7.58299C7.31798 20.2068 7.12493 20.2534 7.00333 20.3464C6.93932 20.3994 6.8889 20.4674 6.85637 20.5445C6.82384 20.6216 6.81017 20.7056 6.81654 20.7893C6.81654 21.1103 6.97224 21.2709 7.28388 21.2709ZM9.98516 21.6357H9.48221V17.3066L9.98516 17.1945V21.6357ZM11.3293 18.494L11.7229 18.7858L10.7554 20.032L11.8771 21.4095L11.4865 21.7135L10.1637 20.0567L11.3293 18.494ZM12.3221 20.812C12.3139 20.6781 12.3371 20.5441 12.3898 20.4211C12.4424 20.2981 12.523 20.1896 12.625 20.1044C12.8276 19.9418 13.1214 19.86 13.5083 19.86H14.0877V19.6643C14.0877 19.1901 13.8836 18.9529 13.4754 18.9529C13.336 18.9541 13.1972 18.9729 13.0623 19.009C12.9264 19.044 12.7939 19.0911 12.6661 19.1496L12.5147 18.7858C12.6668 18.6983 12.8295 18.6312 12.9986 18.5863C13.1635 18.5406 13.3336 18.517 13.5045 18.5159C14.2156 18.5134 14.5711 18.8999 14.5711 19.6758V21.6355H14.197L14.1373 21.2991C13.9934 21.419 13.8318 21.5152 13.6585 21.5843C13.5051 21.6484 13.3412 21.6825 13.1753 21.6849C13.0608 21.6916 12.9462 21.6744 12.8385 21.6344C12.7308 21.5944 12.6323 21.5324 12.549 21.4523C12.4708 21.3664 12.4104 21.2653 12.3716 21.1551C12.3327 21.0449 12.3161 20.9278 12.3229 20.8109M13.2623 21.2716C13.335 21.2711 13.4078 21.2617 13.4782 21.2433C13.5539 21.2242 13.6284 21.2 13.7008 21.171C13.8429 21.1136 13.9732 21.0298 14.0849 20.9238V20.2078H13.5624C13.2969 20.2078 13.1036 20.2542 12.982 20.3475C12.9189 20.4009 12.8694 20.4691 12.8376 20.5461C12.8059 20.6231 12.7929 20.7068 12.7998 20.79C12.7998 21.1111 12.9539 21.2716 13.2623 21.2716ZM16.5919 18.5225C17.0069 18.5225 17.334 18.6601 17.5707 18.9369C17.8072 19.2131 17.9257 19.6083 17.9257 20.1232C17.9257 20.6379 17.8089 21.0219 17.5735 21.2935C17.3378 21.5652 17.0126 21.703 16.5919 21.703C16.1712 21.703 15.8508 21.5662 15.6133 21.2935C15.3759 21.0209 15.2581 20.6285 15.2581 20.1232C15.2581 19.618 15.3777 19.2123 15.6161 18.9369C15.8543 18.6612 16.177 18.5225 16.5919 18.5225ZM16.5919 18.9369C16.4743 18.9311 16.3573 18.9557 16.2517 19.0086C16.1461 19.0614 16.0554 19.1406 15.9882 19.2388C15.8478 19.4401 15.7776 19.7357 15.7776 20.1232C15.7776 20.5108 15.8478 20.7985 15.9882 20.9944C16.0614 21.0864 16.154 21.1606 16.2591 21.2116C16.3642 21.2626 16.4792 21.289 16.5957 21.289C16.7121 21.289 16.8271 21.2626 16.9322 21.2116C17.0373 21.1606 17.1299 21.0864 17.2032 20.9944C17.3436 20.7987 17.4138 20.5082 17.4138 20.1232C17.4138 19.7357 17.3436 19.4404 17.2032 19.2391C17.1351 19.1404 17.0435 19.0609 16.9369 19.008C16.8304 18.9552 16.7123 18.9307 16.5939 18.9369" fill="white"/>
<path d="M18.7031 21.3625L19.264 20.7925L19.8249 21.3623L19.264 21.9323L18.7031 21.3625ZM18.8124 17.4307H19.7165L19.5957 20.2055H18.9413L18.8124 17.4307ZM20.4419 18.5059H20.9877L21.097 18.8033C21.3508 18.556 21.6877 18.4161 22.0392 18.4119C22.4078 18.4119 22.671 18.5401 22.8207 18.8033C23.0711 18.5555 23.4059 18.4153 23.7554 18.4119C24.3584 18.4119 24.6901 18.7625 24.6901 19.5394V21.5837H23.9134V19.5889C23.9134 19.2441 23.7862 19.0986 23.4302 19.0986C23.2655 19.0986 23.1023 19.1284 22.9478 19.186V21.5865H22.1776V19.5919C22.1776 19.2472 22.057 19.1017 21.7 19.1017C21.5338 19.1042 21.369 19.134 21.2121 19.1891V21.5898H20.4419V18.5059ZM26.1157 21.6074V22.7703H25.3455V18.5059H25.8913L25.9848 18.7625C26.098 18.6465 26.2335 18.5554 26.3829 18.4951C26.5323 18.4348 26.6924 18.4064 26.8531 18.4119C27.6458 18.4119 28.0029 19.0143 28.0029 19.9889C28.0029 21.0119 27.428 21.6711 26.6054 21.6711C26.44 21.6741 26.275 21.6526 26.1157 21.6074ZM26.1157 19.1536V21.0642C26.2085 21.0777 26.3022 21.0833 26.396 21.0812C27.0055 21.0812 27.2234 20.6547 27.2234 19.9889C27.2234 19.4189 27.0915 19.0387 26.5916 19.0387C26.4268 19.0434 26.2648 19.0823 26.1157 19.1536ZM29.6752 19.7086H30.1583V19.6041C30.1583 19.265 30.0545 19.0721 29.5975 19.0721C29.3129 19.0695 29.0323 19.1397 28.7816 19.2765L28.5685 18.7388C28.9041 18.5237 29.2932 18.4102 29.69 18.4119C30.466 18.4119 30.8734 18.7977 30.8734 19.5975V21.5837H30.3331L30.2471 21.3208C29.988 21.5348 29.6667 21.656 29.333 21.6655C28.7413 21.6655 28.4133 21.3093 28.4133 20.6965C28.4158 20.0478 28.8536 19.7086 29.6752 19.7086ZM30.1583 20.8124V20.2111H29.7444C29.3302 20.2111 29.1116 20.3803 29.1116 20.686C29.1116 20.9085 29.2387 21.0547 29.4909 21.0547C29.7337 21.0517 29.9686 20.9665 30.1583 20.8124ZM33.6832 19.2061C33.4523 19.0978 33.2009 19.042 32.9466 19.0426C32.4991 19.0426 32.1989 19.3172 32.1989 20.0419C32.1989 20.7668 32.5093 21.029 33.0206 21.029C33.2874 21.0192 33.5503 20.9599 33.7963 20.8542L33.9748 21.3967C33.6423 21.5823 33.268 21.6768 32.8887 21.6711C31.9054 21.6711 31.4232 21.0812 31.4232 20.0478C31.4232 19.055 31.9054 18.4119 32.9 18.4119C33.2547 18.4003 33.6055 18.4901 33.9124 18.6713L33.6832 19.2061ZM34.1909 18.5638L34.6741 18.5059V17.8868L35.4556 17.7166V18.5059H36.3642V19.0958H35.4556V20.4335C35.4556 20.9085 35.5762 21.0033 35.8006 21.0033C35.9718 20.9976 36.1409 20.9622 36.3005 20.8988L36.479 21.4479C36.2072 21.5972 35.903 21.6752 35.594 21.6749C34.9554 21.6749 34.6741 21.2779 34.6741 20.4893V19.0958H34.1909V18.5638Z" fill="#4D4D4D"/>
</svg>
