<svg width="40" height="40" viewBox="0 0 40 40" fill="none" xmlns="http://www.w3.org/2000/svg">
<rect width="40" height="40" rx="12" fill="#F1F2F6"/>
<g clip-path="url(#clip0_970_13617)">
<path d="M27.8194 26.3812C27.8194 26.3812 29.3605 21.698 25.5038 20.4615C23.5233 24.0237 27.8194 26.3812 27.8194 26.3812Z" fill="#9FC518"/>
<path d="M27.8003 8.7681C27.8003 8.7681 23.14 10.7047 24.7786 14.5747C28.8662 13.7398 27.8003 8.7681 27.8003 8.7681Z" fill="#9FC518"/>
<path d="M11.915 9.90611C11.915 9.90611 11.4499 14.7591 15.4332 15.095C16.5653 11.224 11.915 9.90611 11.915 9.90611Z" fill="#9FC518"/>
<path d="M17.8889 9.71153C17.8889 9.71153 17.0147 11.8654 18.7912 12.5713C19.8358 10.9593 17.8889 9.71153 17.8889 9.71153Z" fill="#9FC518"/>
<path d="M17.0573 19.7952C17.0573 19.7952 16.776 18.6323 16.8948 17.5249C17.0136 16.4174 15.3694 15.9253 15.3694 17.509C15.3694 17.509 14.9737 17.0226 14.3304 17.3982C13.8226 17.6946 13.9975 18.8122 14.8123 19.1527C15.6271 19.4943 17.0125 19.7704 17.0562 19.7952H17.0573Z" fill="#9FC518"/>
<path d="M21.3186 7C21.3186 7 18.2297 9.87557 20.6204 12.4242C23.5782 10.5769 21.3186 7 21.3186 7Z" fill="#302783"/>
<path d="M9.11633 12.6742C9.11633 12.6742 11.6852 17.2726 15.4276 15.0769C14.0546 10.9333 9.11633 12.6742 9.11633 12.6742Z" fill="#302783"/>
<path d="M31.035 11.741C31.035 11.741 25.9095 10.2975 24.7831 14.595C28.7239 16.5792 31.035 11.741 31.035 11.741Z" fill="#302783"/>
<path d="M31.3185 25.6595C31.3185 25.6595 30.4152 19.6346 25.4858 20.4559C25.283 25.4943 31.3185 25.6595 31.3185 25.6595Z" fill="#302783"/>
<path d="M22.7253 33H20.0006C18.5132 31.7093 19.7551 31.0486 19.2844 29.6742C18.5457 27.517 18.6881 26.2432 18.5054 25.8518C18.455 25.7421 18.3653 25.5464 18.2599 25.3054C18.4594 23.9208 18.6545 23.0181 18.7385 22.5939C18.8988 21.7817 19.4805 18.6946 19.3359 17.1708C19.1913 15.6459 18.7609 14.181 18.6623 13.9219C18.5637 13.6618 20.6204 15.802 20.5789 20.0905C20.5789 20.0905 20.422 21.1222 20.8849 21.2647C21.3467 21.4072 21.3926 21.0916 21.9216 20.5814C22.4507 20.0713 25.4993 16.9208 27.8126 16.7262C27.8126 16.7262 23.9279 19.4072 22.4563 22.267C20.6775 25.724 22.723 31.0656 22.7241 32.9989L22.7253 33Z" fill="#302783"/>
<path d="M22.2187 18.8314C22.9595 18.948 23.6533 18.4378 23.7687 17.69C23.8842 16.9423 23.3787 16.2421 22.6378 16.1256C21.897 16.0091 21.2032 16.5192 21.0877 17.267C20.9712 18.0147 21.4789 18.7149 22.2187 18.8314Z" fill="#302783"/>
<path d="M32 18.6312C32 18.6312 28.744 16.2251 26.8073 18.9706C29.0792 21.4412 32 18.6312 32 18.6312Z" fill="#23A2DD"/>
<path d="M8 23.0656C8 23.0656 12.5494 24.3179 13.5267 20.5045C10.0231 18.767 8 23.0656 8 23.0656Z" fill="#23A2DD"/>
<path d="M9.35282 18.4185C9.35282 18.4185 10.8962 20.483 12.5718 19.1708C11.6382 17.2489 9.35282 18.4185 9.35282 18.4185Z" fill="#23A2DD"/>
<path d="M16.8892 33H20.097C20.7963 29.1957 18.7845 26.2432 18.6018 25.8518C18.5513 25.7421 18.4617 25.5464 18.3563 25.3054C18.0851 24.681 17.7096 23.7477 17.6256 23.1776C17.5101 22.3869 17.546 21.5882 17.5639 21.4446C17.5818 21.3009 16.8051 22.6459 17.3577 24.8156C17.3577 24.8156 17.4978 25.2149 17.2815 25.3462C17.0651 25.4762 16.8869 25.3224 16.7379 25.2342C16.4084 25.0385 14.4693 23.8292 13.2723 24.0238C13.2723 24.0238 15.7067 25.0837 16.6818 26.4502C17.6558 27.8156 17.6031 31.7896 16.8892 33Z" fill="#23A2DD"/>
<path d="M16.3523 24.1889C16.7132 24.0362 16.8836 23.6165 16.7323 23.2534C16.581 22.888 16.1651 22.7172 15.8042 22.8699C15.4433 23.0226 15.273 23.4412 15.4243 23.8066C15.5756 24.1708 15.9914 24.3428 16.3523 24.1889Z" fill="#23A2DD"/>
</g>
<defs>
<clipPath id="clip0_970_13617">
<rect width="24" height="26" fill="white" transform="translate(8 7)"/>
</clipPath>
</defs>
</svg>
