<svg data-v-3fa4ca17="" aria-hidden="true" width="68" height="85" viewBox="0 0 68 85" fill="none" xmlns="http://www.w3.org/2000/svg"><path data-v-3fa4ca17="" d="M36.5876 28.4944L34.9936 31.9934L32.6222 35.0259L29.7646 37.5724L26.5766 39.73L22.8833 40.7798L19.151 41.4407L15.3992 41.0908L11.6281 40.4299L8.28464 38.5443L5.27164 36.1338L3.13329 32.9459L1.50049 29.4858L0.820058 25.7535L0.450714 21.9629L0.761803 18.1723L2.06417 14.5761L3.87198 11.2326L5.97141 8.06408L8.84833 5.55651L12.1335 3.67093L15.5937 2.11578L19.3648 1.72704L23.1942 1.51318L26.9071 2.58236L30.3284 4.3513L33.2053 6.91719L35.1881 10.183L37.0542 13.507L38.0456 17.2198V21.0493L37.7734 24.8593L36.5876 28.4944Z" fill="white"></path><path data-v-3fa4ca17="" class="eye_left to-right" d="M36.0167 17.2557L34.1701 20.5214L31.4875 23.1262L28.1245 24.7397L24.4311 25.3423L20.7183 24.6424L17.5302 22.6208L15.3531 19.5689L14.0896 16.0699L13.8175 12.3182L14.8671 8.72198L16.7333 5.49512L19.3575 2.85146L22.7011 1.14083L26.4138 0.674316L30.0296 1.54903L33.3341 3.33743L35.4919 6.40875L36.7943 9.90779L36.8525 13.6206L36.0167 17.2557Z" fill="black"></path><path data-v-3fa4ca17="" d="M64.3105 40.7591L62.3277 44.0054L60.2867 47.2323L57.4875 49.8565L54.0857 51.5866L50.5672 52.9473L46.8738 53.9581L43.0639 53.5305L39.4481 52.3836L36.027 50.7118L33.0722 48.3014L31.0117 45.094L29.1845 41.731L28.2902 38.0182L28.2125 34.2082L28.4263 30.3982L29.5733 26.7437L31.5172 23.439L33.6943 20.3289L36.3963 17.588L39.6426 15.508L43.2582 14.1667L47.0683 13.8945L50.8589 13.9918L54.6106 14.8082L57.8957 16.791L60.8504 19.2208L63.1248 22.2921L64.816 25.7329L65.5547 29.4846L65.8656 33.2946L65.1853 37.0463L64.3105 40.7591Z" fill="white"></path><path data-v-3fa4ca17="" class="eye_right to-right" d="M64.6288 29.988L62.8987 33.3121L60.1384 35.8586L56.7754 37.4331L53.1015 37.9968L49.447 37.2582L46.2201 35.3337L43.9458 32.3595L42.7988 28.8022L42.6239 25.0894L43.557 21.4932L45.3648 18.2275L48.0085 15.5838L51.352 13.7954L55.1037 13.3872L58.8166 14.0481L61.9657 16.128L64.1233 19.1606L65.4841 22.6401L65.7563 26.3918L64.6288 29.988Z" fill="black"></path><path data-v-3fa4ca17="" class="mouth" d="M48.9259 73.8738C48.9259 73.8738 48.8145 73.9078 48.7773 73.9192L41.0269 75.9612C40.9154 75.9953 40.7852 76.0351 40.6438 76.0377L32.7333 77.3562C32.4431 77.4042 32.1658 77.4279 31.8772 77.4145L23.8632 76.9964C23.6788 76.9917 23.4703 76.974 23.2931 76.9265L15.4244 75.3868C15.2286 75.3449 15.0329 75.3031 14.8258 75.2241L11.0243 73.8242C9.1235 73.1243 8.13175 71.0085 8.826 69.0892C9.52592 67.1884 11.6417 66.1966 13.5611 66.8909L17.0827 68.1729L24.4987 69.6274L31.911 70.0056L39.3153 68.7603L46.5394 66.8588L49.7485 65.1875L53.1539 63.2937L56.5251 61.2884L59.7338 59.1498C61.4225 58.0242 63.7168 58.4819 64.848 60.1893C65.9736 61.878 65.5159 64.1724 63.8086 65.3037L60.444 67.5305L56.8294 69.6711L53.2309 71.6646L49.5669 73.5764C49.3738 73.6761 49.1563 73.7628 48.9332 73.8309L48.9259 73.8738Z" fill="black"></path></svg>