<svg width="151" height="50" viewBox="0 0 151 50" fill="none" xmlns="http://www.w3.org/2000/svg">
<g clip-path="url(#clip0_1707_12487)">
<path d="M60.7114 15.7578H48.6436C48.533 15.7578 48.4458 15.8454 48.4458 15.9563V17.031C48.4458 17.031 48.4458 17.0602 48.4458 17.0719C48.4865 17.7319 49.0451 18.24 49.7433 18.24H51.9195V23.0759H48.6378C48.5272 23.0759 48.4399 23.1635 48.4399 23.2745V24.3492C48.4399 24.3492 48.4399 24.3784 48.4399 24.3901C48.4807 25.05 49.0393 25.5582 49.7375 25.5582H61.8053C61.9159 25.5582 62.0031 25.4706 62.0031 25.3596V24.2791C62.0031 24.2791 62.0031 24.2499 62.0031 24.2324C61.9624 23.5782 61.398 23.0643 60.7056 23.0643H58.5294V18.2283H61.8111C61.9217 18.2283 62.009 18.1407 62.009 18.0297V16.9492C62.009 16.9492 62.009 16.92 62.009 16.9025C61.9682 16.2484 61.4038 15.7402 60.7114 15.7402V15.7578ZM55.9343 18.2458V23.0818H54.5262V18.2458H55.9343Z" fill="white"/>
<path d="M60.7114 26.995H48.6436C48.5331 26.995 48.4458 27.0826 48.4458 27.1936V28.2682C48.4458 28.2682 48.4458 28.2974 48.4458 28.3091C48.4865 28.9691 49.0451 29.4772 49.7434 29.4772H53.9269V35.3294C53.9269 35.4404 54.0142 35.528 54.1248 35.528H55.2303C55.946 35.528 56.5337 34.9673 56.5337 34.284V29.4772H61.817C61.9275 29.4772 62.0148 29.3896 62.0148 29.2786V28.204C62.0148 28.204 62.0148 28.1748 62.0148 28.1572C61.9741 27.5031 61.4097 26.9891 60.7173 26.9891L60.7114 26.995Z" fill="white"/>
<path d="M85.2777 26.2064H80.7508V19.8928C80.7508 19.2095 80.1689 18.6488 79.4474 18.6488H78.3419C78.2313 18.6488 78.144 18.7364 78.144 18.8474V27.4446C78.144 28.128 78.7259 28.6887 79.4474 28.6887H86.3832C86.4938 28.6887 86.581 28.6011 86.581 28.4901V27.4154C86.581 27.4154 86.581 27.3804 86.5752 27.3629C86.5345 26.7087 85.9759 26.2006 85.2835 26.2006L85.2777 26.2064Z" fill="white"/>
<path d="M75.4151 26.9949H63.3472C63.2367 26.9949 63.1494 27.0825 63.1494 27.1935V28.2681C63.1494 28.2681 63.1494 28.3032 63.1552 28.3207C63.2018 28.9748 63.7604 29.4829 64.447 29.4829H76.5148C76.6253 29.4829 76.7126 29.3953 76.7126 29.2844V28.2097C76.7126 28.2097 76.7126 28.1747 76.7068 28.163C76.6661 27.5088 76.1017 27.0007 75.4092 27.0007L75.4151 26.9949Z" fill="white"/>
<path d="M65.6283 25.529C65.6283 25.529 65.6516 25.529 65.6574 25.529H73.6347C74.3504 25.529 74.9381 24.9683 74.9381 24.285C74.9381 23.6016 74.3563 23.041 73.6347 23.041H66.8968V22.235H74.7403C74.8508 22.235 74.9381 22.1474 74.9381 22.0364V16.9726C74.9381 16.301 74.3679 15.7578 73.6697 15.7578H64.5577C64.4471 15.7578 64.3599 15.8454 64.3599 15.9564V17.031C64.3599 17.031 64.3599 17.0661 64.3657 17.0836C64.4122 17.7378 64.9708 18.2459 65.6632 18.2459H72.4012V19.7469H64.5577C64.4471 19.7469 64.3599 19.8345 64.3599 19.9455V24.3142C64.3599 24.9858 64.9301 25.529 65.6283 25.529Z" fill="white"/>
<path d="M73.6636 33.0983H67.4202V32.0938C67.4202 31.4455 66.8965 30.9198 66.2215 30.8848C66.2099 30.8848 66.1924 30.8848 66.1808 30.8848H65.0753C64.9647 30.8848 64.8774 31.0133 64.8774 31.1184V34.3716C64.8774 35.0432 65.4477 35.5864 66.175 35.5864H74.7691C74.8796 35.5864 74.9669 35.4988 74.9669 35.3878V34.3132C74.9669 34.3132 74.9669 34.284 74.9669 34.2664C74.9262 33.6065 74.3618 33.0983 73.6694 33.0983H73.6636Z" fill="white"/>
<path d="M94.9598 23.7067V22.6262C94.9598 22.5152 94.8726 22.4276 94.762 22.4276H89.7405V19.8928C89.7405 19.2095 89.1587 18.6488 88.4372 18.6488H87.3316C87.2211 18.6488 87.1338 18.7364 87.1338 18.8474V27.4446C87.1338 28.128 87.7157 28.6887 88.4372 28.6887H89.5427C89.6533 28.6887 89.7405 28.6011 89.7405 28.4901V24.9099H93.6565C94.3489 24.9099 94.9075 24.4076 94.954 23.7534C94.954 23.7359 94.9598 23.7184 94.9598 23.7009V23.7067Z" fill="white"/>
<path d="M97.8805 25.5698H105.858C106.574 25.5698 107.161 25.0091 107.161 24.3258V17.0076C107.161 16.3242 106.579 15.7635 105.858 15.7635H97.8805C97.7932 15.7635 97.706 15.7694 97.6187 15.7869C97.1299 15.8804 96.7401 16.2425 96.6237 16.6922C96.6179 16.7097 96.6062 16.7389 96.6004 16.7564C96.5888 16.8382 96.5771 16.92 96.5771 17.0017V24.3199C96.5771 25.0033 97.159 25.564 97.8805 25.564V25.5698ZM104.56 18.2458V23.0817H99.1839V18.2458H104.56Z" fill="white"/>
<path d="M108.645 28.1571C108.604 27.503 108.04 26.9949 107.348 26.9949H95.2799C95.1693 26.9949 95.082 27.0825 95.082 27.1935V28.2681C95.082 28.2681 95.082 28.3032 95.0878 28.3148C95.1344 28.969 95.693 29.4771 96.3854 29.4771H100.563V35.3293C100.563 35.4403 100.65 35.5279 100.761 35.5279H101.867C102.582 35.5279 103.17 34.973 103.17 34.2839V29.4771H108.453C108.564 29.4771 108.651 29.3895 108.651 29.2785V28.2039C108.651 28.2039 108.651 28.1747 108.651 28.1571H108.645Z" fill="white"/>
<path d="M69.1547 41.7308C69.3293 41.6198 69.4864 41.4796 69.6086 41.3103C69.8064 41.0416 69.9053 40.7379 69.8878 40.405C69.882 40.0954 69.7889 39.8209 69.6144 39.5931C69.4456 39.3712 69.2129 39.1843 68.922 39.0383C68.6427 38.8981 68.3052 38.793 67.9153 38.7229C67.5371 38.6528 67.1182 38.6178 66.676 38.6061C66.4723 38.6002 66.321 38.6236 66.2163 38.6879C66.1232 38.7404 66.0126 38.8572 66.0243 39.0967L66.0417 40.1947C66.0476 40.551 66.0534 40.9014 66.0592 41.2402C66.0592 41.5848 66.0592 41.9235 66.0592 42.2681C66.0592 42.6127 66.0592 42.9631 66.0708 43.3136V43.6173C66.0708 43.7516 66.0708 43.8918 66.0708 44.0436C66.0708 44.1896 66.0708 44.324 66.0708 44.4525V44.7445C66.0708 45.0307 66.2279 45.1183 66.321 45.1475C66.42 45.1767 66.5538 45.1884 66.7342 45.1942C66.8098 45.1942 66.8854 45.1942 66.9611 45.1942C67.316 45.1942 67.6593 45.165 67.9793 45.1008C68.3692 45.0248 68.7125 44.9022 69.0034 44.7503C69.3002 44.5926 69.5445 44.3882 69.7249 44.1487C69.9111 43.8976 70.01 43.6114 70.0217 43.296C70.0333 42.8989 69.9344 42.5426 69.7249 42.2447C69.5795 42.0345 69.3816 41.8651 69.1489 41.7249L69.1547 41.7308ZM67.2753 42.8346C67.2753 42.6361 67.2695 42.4258 67.2636 42.2155H67.5895C67.8281 42.2155 68.0317 42.2506 68.1946 42.3148C68.3517 42.3791 68.4797 42.4608 68.567 42.5601C68.6601 42.6594 68.7241 42.7704 68.7649 42.893C68.8056 43.0215 68.823 43.1442 68.8172 43.2668C68.8172 43.4245 68.7707 43.553 68.7008 43.6698C68.6252 43.7925 68.5263 43.8918 68.3925 43.9852C68.2586 44.0728 68.1074 44.1429 67.9386 44.1896C67.7641 44.2364 67.5837 44.2597 67.3917 44.2597H67.2811V43.6114C67.2811 43.3486 67.2811 43.0858 67.2811 42.8346H67.2753ZM68.5787 40.732C68.5263 40.8313 68.4506 40.9248 68.3576 41.0007C68.2586 41.0825 68.1423 41.1467 68.0026 41.1934C67.863 41.2402 67.7059 41.2694 67.5429 41.2694H67.2404C67.2404 40.989 67.2287 40.7087 67.2287 40.4283C67.2287 40.1538 67.2287 39.8793 67.2287 39.6048C67.4091 39.6223 67.5779 39.6515 67.735 39.6866C67.9328 39.7275 68.1073 39.7859 68.247 39.856C68.3808 39.926 68.4797 40.0078 68.5554 40.1071C68.6252 40.1947 68.6543 40.2998 68.6543 40.4225C68.6543 40.5335 68.631 40.6386 68.5787 40.732Z" fill="white"/>
<path d="M72.5468 44.4114C72.506 44.4114 72.4595 44.4114 72.4071 44.4056C72.3431 44.3997 72.2849 44.3939 72.2326 44.3939C72.2093 44.3939 72.1977 44.3939 72.1977 44.3939C72.186 44.3705 72.1802 44.3413 72.1802 44.3063C72.1802 44.2245 72.1802 44.1369 72.1802 44.0318C72.1802 43.9325 72.1802 43.8274 72.1802 43.7222V42.4782C72.1802 42.2738 72.1802 42.0694 72.1918 41.8591C72.1977 41.5788 72.2035 41.2984 72.2035 41.0298V39.628C72.2035 39.4236 72.2035 39.2367 72.1918 39.0615C72.1802 38.9038 72.0987 38.7811 71.9591 38.6994C71.7264 38.565 71.4238 38.565 71.2027 38.6994C71.0747 38.7811 70.999 38.9096 70.999 39.0673C70.999 39.2893 70.999 39.5521 70.999 39.85C70.999 40.1478 70.999 40.4632 70.999 40.7961V44.2596C70.999 44.5866 71.0979 44.8436 71.29 45.013C71.4762 45.1765 71.7205 45.2758 72.0173 45.305C72.1569 45.3284 72.2966 45.3167 72.4479 45.3401C72.4944 45.3401 72.541 45.3517 72.5817 45.3517C72.7388 45.3517 72.8552 45.3109 72.9424 45.2291C73.0414 45.1298 73.0995 45.013 73.0995 44.8845C73.0995 44.7677 73.053 44.6567 72.9657 44.5691C72.8726 44.4757 72.7446 44.4289 72.5526 44.4173L72.5468 44.4114Z" fill="white"/>
<path d="M77.3762 43.9442V43.5412C77.3762 43.4069 77.3762 43.2784 77.3645 43.1499C77.3587 43.0681 77.3529 42.9805 77.3529 42.887V42.5775C77.3529 42.4724 77.3529 42.3731 77.3529 42.268C77.3529 42.1628 77.3529 42.0635 77.3529 41.9759C77.3529 41.8533 77.3529 41.7365 77.3529 41.6313C77.3529 41.5204 77.3529 41.4211 77.3529 41.3276C77.3529 41.1816 77.2773 41.059 77.1376 40.983C76.9165 40.8604 76.6372 40.8604 76.4219 40.9947C76.2939 41.0706 76.2183 41.1875 76.195 41.3335C76.1892 41.3977 76.1834 41.4853 76.1775 41.5963C76.1775 41.7014 76.1775 41.8241 76.1775 41.9526V43.5937C76.1368 43.8215 76.0321 44.0084 75.8692 44.1544C75.7062 44.3005 75.5259 44.3764 75.3106 44.3881C75.1011 44.3997 75.0196 44.3121 74.9789 44.2362C74.8974 44.096 74.8509 43.9033 74.8451 43.6697V42.3614C74.8451 42.2037 74.8451 42.046 74.8451 41.8766C74.8451 41.7073 74.8451 41.5379 74.8451 41.3627C74.8451 41.205 74.7753 41.0765 74.6472 41.0006C74.4494 40.8779 74.1701 40.8721 73.9199 40.9947C73.7745 41.0648 73.6872 41.1933 73.6697 41.351C73.6523 41.5963 73.6406 41.8416 73.6406 42.0869V43.2725C73.6406 43.3543 73.6406 43.4361 73.6406 43.5178C73.6406 43.5938 73.6406 43.6522 73.6406 43.7106C73.6464 43.9442 73.6872 44.1544 73.7512 44.353C73.821 44.5516 73.9257 44.7268 74.0654 44.867C74.205 45.013 74.3796 45.1298 74.5832 45.2116C74.7869 45.2875 75.0255 45.3284 75.2931 45.3284C75.5317 45.3284 75.7586 45.2817 75.9681 45.1882C76.067 45.1415 76.1601 45.0948 76.2474 45.0364C76.2823 45.124 76.3405 45.1882 76.4277 45.2291C76.6256 45.3284 76.9107 45.3401 77.1318 45.2116C77.2714 45.1357 77.3471 45.0072 77.3471 44.8436C77.3471 44.7034 77.3471 44.5516 77.3471 44.3822C77.3471 44.2187 77.3471 44.0727 77.3471 43.9442H77.3762Z" fill="white"/>
<path d="M81.5772 41.351C81.4027 41.205 81.2107 41.094 80.9954 41.0181C80.7859 40.948 80.5764 40.913 80.367 40.913C79.9829 40.913 79.6513 40.9714 79.3778 41.094C79.1043 41.2167 78.8774 41.3744 78.697 41.5729C78.5166 41.7715 78.3828 41.9993 78.3014 42.2563C78.2199 42.5074 78.1792 42.7586 78.1675 43.0214C78.1442 43.7456 78.3246 44.3121 78.7028 44.7151C79.081 45.1181 79.6513 45.3226 80.3902 45.3226C80.6579 45.3226 80.9139 45.2934 81.1467 45.2408C81.3852 45.1882 81.6238 45.0948 81.8565 44.9546C81.9904 44.867 82.066 44.7619 82.0835 44.6392C82.1009 44.5224 82.0718 44.4114 81.9904 44.3122C81.9147 44.2245 81.8158 44.1603 81.6994 44.1194C81.5656 44.0785 81.426 44.0902 81.2805 44.1545C81.1525 44.207 81.0186 44.2596 80.8674 44.3063C80.7277 44.3472 80.5823 44.3706 80.4368 44.3706C80.1982 44.3706 80.012 44.3355 79.8782 44.2713C79.7444 44.207 79.6455 44.1253 79.5756 44.0318C79.5058 43.9267 79.4534 43.8157 79.4302 43.6872C79.4127 43.6054 79.4011 43.5237 79.3894 43.4478L79.8316 43.4361C80.0644 43.4361 80.2971 43.4244 80.5299 43.4127C80.7626 43.401 80.9721 43.3893 81.1641 43.3777C81.3678 43.366 81.519 43.3543 81.6121 43.3368C81.8682 43.2959 82.0311 43.2141 82.1067 43.0856C82.1707 42.9747 82.1998 42.8403 82.194 42.6943C82.1824 42.3965 82.1125 42.1336 81.9962 41.9117C81.8798 41.6898 81.7343 41.5029 81.5598 41.3568L81.5772 41.351ZM80.9837 42.449C80.5881 42.4841 80.2506 42.5016 79.9713 42.5016C79.7618 42.5016 79.5873 42.5016 79.4418 42.5016C79.4825 42.3439 79.5582 42.2096 79.6804 42.0986C79.8317 41.9584 80.0237 41.8883 80.2739 41.8883C80.2913 41.8883 80.303 41.8883 80.3204 41.8883C80.495 41.9 80.6463 41.9584 80.7859 42.0811C80.8848 42.1687 80.9488 42.2855 80.9837 42.449Z" fill="white"/>
<path d="M89.1766 38.6468C88.9206 38.6468 88.653 38.6351 88.3795 38.6351C88.106 38.6351 87.8267 38.6351 87.5474 38.6351H86.5757C86.244 38.6351 85.924 38.6351 85.6273 38.6527C85.4585 38.6585 85.3247 38.7052 85.22 38.7928C85.0803 38.9155 85.0454 39.044 85.0454 39.1316C85.0454 39.225 85.0803 39.371 85.2316 39.4995C85.348 39.6047 85.5225 39.6514 85.7553 39.6455C86.0171 39.6339 86.308 39.6455 86.6397 39.6339C86.6397 39.9785 86.6513 40.3347 86.663 40.6968C86.6804 41.1174 86.6921 41.5262 86.7095 41.9233C86.7154 42.0869 86.7212 42.2154 86.7212 42.3205V42.6242C86.7212 42.8403 86.7212 43.0739 86.7095 43.3368C86.7037 43.5996 86.6979 43.8332 86.6921 44.0435L86.6746 44.4348C86.6688 44.5749 86.6688 44.7151 86.6746 44.8553C86.6863 45.013 86.7619 45.1415 86.9016 45.2291C87.0179 45.2992 87.1518 45.3342 87.2914 45.3342C87.431 45.3342 87.5649 45.2933 87.6871 45.2232C87.8267 45.1356 87.9023 45.0013 87.914 44.8378C87.9198 44.6976 87.9256 44.5574 87.9256 44.4231C87.9256 44.2888 87.9256 44.1661 87.9373 44.0376L87.9547 43.3309C87.9605 43.0856 87.9664 42.8462 87.9664 42.6125V42.2855C87.9664 42.1511 87.9664 42.0343 87.9547 41.9467C87.9431 41.5612 87.9314 41.1524 87.9198 40.7202C87.914 40.3464 87.9023 39.9785 87.8965 39.6222H89.1475C89.3337 39.6222 89.4792 39.5755 89.5839 39.482C89.6887 39.3827 89.7469 39.2659 89.7469 39.1433C89.7469 39.0206 89.6945 38.9096 89.5839 38.8103C89.485 38.7169 89.3512 38.6702 89.1824 38.6585L89.1766 38.6468Z" fill="white"/>
<path d="M92.7258 41.0472C92.6094 40.9596 92.4639 40.9188 92.2777 40.9363C91.9984 40.9655 91.7366 41.0122 91.498 41.0823C91.3351 41.129 91.1664 41.1991 91.0034 41.2867C90.986 41.1465 90.9103 41.0414 90.7882 40.9713C90.5496 40.837 90.2703 40.8545 90.055 40.983C89.9212 41.0648 89.8397 41.1933 89.8339 41.3568C89.8281 41.532 89.8223 41.7131 89.8223 41.8941V42.4431C89.8223 42.8052 89.8223 43.1966 89.8339 43.6288C89.8397 44.061 89.8514 44.4698 89.863 44.8669C89.8746 45.0071 89.9445 45.1298 90.0725 45.2057C90.183 45.2758 90.3052 45.3108 90.4449 45.3108C90.5845 45.3108 90.7125 45.2699 90.8231 45.194C90.9918 45.083 91.0325 44.9429 91.0384 44.8261C91.0325 44.6392 91.0267 44.4289 91.0209 44.1836C91.0209 43.9383 91.0209 43.6988 91.0209 43.4711V42.9746C91.0209 42.8286 91.0209 42.6826 91.0384 42.5366C91.2246 42.3263 91.4224 42.1686 91.626 42.0752C91.8471 41.9759 92.1148 41.9058 92.4232 41.8708C92.5861 41.8532 92.7083 41.8007 92.7898 41.7072C92.8712 41.6138 92.912 41.5086 92.912 41.3977C92.912 41.3042 92.877 41.1641 92.7258 41.0472Z" fill="white"/>
<path d="M96.2984 41.351C96.1239 41.205 95.9319 41.094 95.7166 41.0181C95.5071 40.948 95.2976 40.913 95.0882 40.913C94.7041 40.913 94.3725 40.9714 94.099 41.094C93.8255 41.2167 93.5986 41.3744 93.4182 41.5729C93.2378 41.7715 93.104 41.9993 93.0225 42.2563C92.9411 42.5074 92.9004 42.7586 92.8887 43.0214C92.8654 43.7456 93.0458 44.3121 93.424 44.7151C93.8022 45.1181 94.3725 45.3226 95.1114 45.3226C95.3791 45.3226 95.6351 45.2934 95.8678 45.2408C96.1064 45.1882 96.345 45.0948 96.5777 44.9546C96.7115 44.867 96.7872 44.7619 96.8046 44.6392C96.8221 44.5224 96.793 44.4114 96.7116 44.3122C96.6359 44.2245 96.537 44.1603 96.4206 44.1194C96.2926 44.0785 96.1471 44.0902 96.0017 44.1545C95.8737 44.207 95.7398 44.2596 95.5886 44.3063C95.4489 44.3472 95.3034 44.3706 95.158 44.3706C94.9194 44.3706 94.7332 44.3355 94.5994 44.2713C94.4656 44.207 94.3666 44.1253 94.2968 44.0318C94.227 43.9267 94.1746 43.8157 94.1514 43.6872C94.1339 43.6054 94.1223 43.5237 94.1106 43.4478L94.5528 43.4361C94.7856 43.4361 95.0183 43.4244 95.2511 43.4127C95.4838 43.401 95.6933 43.3893 95.8853 43.3777C96.089 43.366 96.2402 43.3543 96.3333 43.3368C96.5894 43.2959 96.7523 43.2141 96.8279 43.0856C96.8919 42.9747 96.921 42.8403 96.9152 42.6943C96.9036 42.3965 96.8337 42.1336 96.7174 41.9117C96.601 41.6898 96.4555 41.5029 96.281 41.3568L96.2984 41.351ZM95.7049 42.449C95.3093 42.4841 94.9718 42.5016 94.6925 42.5016C94.483 42.5016 94.3085 42.5016 94.163 42.5016C94.2037 42.3439 94.2794 42.2096 94.4016 42.0986C94.5528 41.9584 94.7449 41.8883 94.9951 41.8883C95.0125 41.8883 95.0241 41.8883 95.0416 41.8883C95.2162 41.9 95.3674 41.9584 95.5071 42.0811C95.606 42.1687 95.67 42.2855 95.7049 42.449Z" fill="white"/>
<path d="M100.994 41.351C100.82 41.205 100.628 41.094 100.412 41.0181C100.203 40.948 99.9934 40.913 99.784 40.913C99.3999 40.913 99.0683 40.9714 98.7948 41.094C98.5213 41.2167 98.2944 41.3744 98.114 41.5729C97.9336 41.7715 97.7998 41.9993 97.7183 42.2563C97.6369 42.5074 97.5962 42.7586 97.5845 43.0214C97.5612 43.7456 97.7416 44.3121 98.1198 44.7151C98.498 45.1181 99.0683 45.3226 99.8072 45.3226C100.075 45.3226 100.331 45.2934 100.564 45.2408C100.802 45.1882 101.041 45.0948 101.274 44.9546C101.407 44.867 101.483 44.7619 101.5 44.6392C101.518 44.5224 101.489 44.4114 101.407 44.3122C101.332 44.2245 101.233 44.1603 101.116 44.1194C100.983 44.0785 100.843 44.0902 100.697 44.1545C100.569 44.207 100.436 44.2596 100.284 44.3063C100.145 44.3472 99.9992 44.3706 99.8538 44.3706C99.6152 44.3706 99.429 44.3355 99.2952 44.2713C99.1614 44.207 99.0624 44.1253 98.9926 44.0318C98.9228 43.9267 98.8704 43.8157 98.8472 43.6872C98.8297 43.6054 98.8181 43.5237 98.8064 43.4478L99.2486 43.4361C99.4814 43.4361 99.7141 43.4244 99.9469 43.4127C100.18 43.401 100.389 43.3893 100.587 43.3777C100.791 43.366 100.942 43.3543 101.035 43.3368C101.291 43.2959 101.454 43.2141 101.53 43.0856C101.594 42.9747 101.623 42.8403 101.617 42.6943C101.605 42.3965 101.535 42.1336 101.419 41.9117C101.303 41.6898 101.157 41.5029 100.983 41.3568L100.994 41.351ZM100.401 42.449C100.005 42.4841 99.6676 42.5016 99.3883 42.5016C99.1788 42.5016 99.0043 42.5016 98.8588 42.5016C98.8995 42.3439 98.9752 42.2096 99.0974 42.0986C99.2486 41.9584 99.4407 41.8883 99.6909 41.8883C99.7083 41.8883 99.7199 41.8883 99.7374 41.8883C99.912 41.9 100.063 41.9584 100.203 42.0811C100.302 42.1687 100.366 42.2855 100.401 42.449Z" fill="white"/>
<path d="M108.623 41.1816C108.506 41.1291 108.367 41.0999 108.209 41.094C108.058 41.0823 107.796 41.0765 107.436 41.0765H106.289C106.289 40.9831 106.289 40.8896 106.283 40.7962C106.278 40.6618 106.272 40.5275 106.272 40.3932L106.26 39.996C106.26 39.8617 106.26 39.7215 106.26 39.5696C106.26 39.5696 106.26 39.5696 106.26 39.558H106.272C106.475 39.558 106.679 39.558 106.871 39.558C107.063 39.558 107.273 39.558 107.494 39.558H108.186C108.25 39.558 108.308 39.558 108.372 39.558C108.454 39.558 108.524 39.5404 108.593 39.5054C108.663 39.4704 108.727 39.4236 108.774 39.3594C108.82 39.2893 108.849 39.2017 108.849 39.0907C108.849 38.8454 108.716 38.7403 108.634 38.6994C108.529 38.6468 108.407 38.6176 108.268 38.6118C108.169 38.6118 108.035 38.606 107.878 38.606H105.702C105.486 38.606 105.312 38.6585 105.195 38.7578C105.073 38.8629 105.003 38.9973 104.998 39.1666C105.003 39.2835 105.009 39.3944 105.009 39.5112C105.009 39.6281 105.009 39.704 105.009 39.7507L105.044 41.0415L105.085 44.6801C105.067 44.867 105.137 45.013 105.283 45.1065C105.399 45.1766 105.533 45.2116 105.673 45.2116C105.87 45.2116 106.039 45.1532 106.173 45.0305C106.254 44.9488 106.295 44.8612 106.307 44.7677C106.313 44.7035 106.318 44.6217 106.318 44.5224C106.318 44.0961 106.318 43.658 106.307 43.2083C106.307 42.817 106.295 42.4315 106.295 42.0577C106.359 42.0577 106.429 42.0577 106.51 42.0577C106.662 42.0577 106.813 42.0577 106.97 42.0577H107.377C107.511 42.0577 107.633 42.0577 107.744 42.0577H108.041C108.116 42.0694 108.175 42.0694 108.221 42.0752C108.378 42.0869 108.524 42.0694 108.634 42.011C108.721 41.9701 108.861 41.865 108.861 41.6138C108.861 41.3452 108.71 41.2342 108.617 41.1933L108.623 41.1816Z" fill="white"/>
<path d="M112.597 41.5671C112.445 41.3568 112.236 41.1933 111.98 41.0706C111.73 40.9538 111.404 40.9012 111.037 40.9012C110.647 40.9129 110.316 40.983 110.066 41.1115C109.81 41.24 109.606 41.4152 109.455 41.6196C109.309 41.8241 109.204 42.0577 109.146 42.3088C109.094 42.5483 109.059 42.7936 109.053 43.0389C109.047 43.2783 109.071 43.5353 109.123 43.7981C109.181 44.0727 109.286 44.3238 109.437 44.5516C109.594 44.7852 109.81 44.9779 110.083 45.1181C110.339 45.2524 110.653 45.3225 111.02 45.3225C111.049 45.3225 111.078 45.3225 111.107 45.3225C111.462 45.3108 111.765 45.2408 112.009 45.1064C112.253 44.9721 112.457 44.7969 112.608 44.5749C112.76 44.3588 112.864 44.1135 112.928 43.839C112.992 43.5762 113.021 43.2959 113.01 43.0155C113.004 42.7585 112.969 42.5074 112.905 42.2562C112.841 41.9993 112.73 41.7656 112.579 41.5612L112.597 41.5671ZM110.636 44.2771C110.519 44.1895 110.432 44.0785 110.374 43.9442C110.31 43.804 110.263 43.6521 110.246 43.4944C110.223 43.3309 110.217 43.1791 110.223 43.0506C110.228 42.8812 110.246 42.7235 110.281 42.5775C110.31 42.4373 110.356 42.3088 110.426 42.2037C110.49 42.0986 110.566 42.0168 110.671 41.9525C110.77 41.8883 110.898 41.8533 111.049 41.8474C111.061 41.8474 111.072 41.8474 111.078 41.8474C111.2 41.8474 111.305 41.8708 111.386 41.9175C111.479 41.9701 111.555 42.046 111.613 42.1453C111.677 42.2504 111.724 42.3789 111.759 42.5249C111.794 42.6826 111.811 42.852 111.817 43.0214C111.823 43.2024 111.817 43.3835 111.794 43.5528C111.77 43.7164 111.73 43.8624 111.671 43.985C111.613 44.1019 111.538 44.1953 111.439 44.2712C111.346 44.3413 111.229 44.3764 111.078 44.3822C110.886 44.3939 110.752 44.353 110.647 44.2771H110.636Z" fill="white"/>
<path d="M117.49 43.9442V43.5412C117.49 43.4069 117.49 43.2784 117.478 43.1499C117.472 43.0681 117.467 42.9805 117.467 42.887V42.5775C117.467 42.4724 117.467 42.3731 117.467 42.268C117.467 42.1628 117.467 42.0635 117.467 41.9759C117.467 41.8533 117.467 41.7365 117.467 41.6313C117.467 41.5204 117.467 41.4211 117.467 41.3276C117.467 41.1816 117.391 41.059 117.251 40.983C117.03 40.8604 116.751 40.8604 116.536 40.9947C116.408 41.0706 116.332 41.1875 116.309 41.3335C116.303 41.3977 116.297 41.4853 116.291 41.5963C116.291 41.7014 116.291 41.8241 116.291 41.9526V43.5937C116.251 43.8215 116.146 44.0084 115.983 44.1544C115.82 44.3005 115.64 44.3764 115.424 44.3881C115.215 44.3997 115.133 44.3121 115.093 44.2362C115.011 44.096 114.965 43.9033 114.959 43.6697V42.3614C114.959 42.2037 114.959 42.046 114.959 41.8766C114.959 41.7073 114.959 41.5379 114.959 41.3627C114.959 41.205 114.889 41.0765 114.761 41.0006C114.563 40.8779 114.284 40.8721 114.034 40.9947C113.888 41.0648 113.801 41.1933 113.783 41.351C113.766 41.5963 113.754 41.8416 113.754 42.0869V43.2725C113.754 43.3543 113.754 43.4361 113.754 43.5178C113.754 43.5938 113.754 43.6522 113.754 43.7106C113.76 43.9442 113.801 44.1544 113.865 44.353C113.935 44.5516 114.04 44.7268 114.179 44.867C114.319 45.013 114.493 45.1298 114.697 45.2116C114.901 45.2875 115.139 45.3284 115.407 45.3284C115.645 45.3284 115.872 45.2817 116.082 45.1882C116.181 45.1415 116.274 45.0948 116.361 45.0364C116.396 45.124 116.454 45.1882 116.542 45.2291C116.745 45.3284 117.024 45.3401 117.246 45.2116C117.385 45.1357 117.461 45.0072 117.461 44.8436C117.461 44.7034 117.461 44.5516 117.461 44.3822C117.461 44.2187 117.461 44.0727 117.461 43.9442H117.49Z" fill="white"/>
<path d="M121.662 41.3101C121.389 41.0706 121.051 40.9597 120.65 40.9538C120.405 40.9597 120.173 41.0006 119.969 41.0648C119.841 41.1057 119.713 41.1582 119.596 41.2108C119.573 41.1582 119.533 41.1057 119.468 41.0531C119.294 40.9071 118.986 40.8662 118.695 41.0006C118.543 41.0706 118.456 41.205 118.456 41.3685V44.8261C118.479 44.978 118.549 45.1006 118.677 45.1824C118.892 45.3225 119.218 45.3225 119.434 45.1824C119.562 45.1006 119.631 44.9721 119.643 44.8086C119.643 44.3881 119.643 43.95 119.643 43.5061C119.643 43.0915 119.643 42.6885 119.643 42.303C119.742 42.2387 119.829 42.1862 119.911 42.1395C120.004 42.0869 120.109 42.0343 120.213 41.9876C120.399 41.9058 120.568 41.8883 120.708 41.9234C120.783 41.9467 120.859 41.9876 120.871 42.192C120.882 42.3264 120.888 42.4548 120.888 42.5833V43.2024C120.888 43.2959 120.888 43.3952 120.888 43.4945C120.888 43.5996 120.888 43.6989 120.888 43.7982V44.0143C120.882 44.1486 120.877 44.2829 120.877 44.4173V44.8436C120.9 44.9955 120.976 45.124 121.104 45.1999C121.214 45.27 121.342 45.305 121.476 45.305C121.621 45.305 121.749 45.27 121.86 45.194C121.988 45.1123 122.064 44.9838 122.075 44.8203C122.081 44.6742 122.087 44.5049 122.087 44.3004V42.3264C122.087 41.8942 121.947 41.5496 121.668 41.3043L121.662 41.3101Z" fill="white"/>
<path d="M126.299 38.7227C126.067 38.6001 125.828 38.6001 125.584 38.7169C125.427 38.7928 125.345 38.9272 125.345 39.0965V41.0181C125.293 41.0005 125.235 40.983 125.171 40.9713C125.008 40.9363 124.833 40.9188 124.647 40.9188C124.007 40.9188 123.518 41.1232 123.204 41.5203C122.901 41.9058 122.744 42.4548 122.744 43.144C122.744 43.8332 122.919 44.3588 123.268 44.7034C123.611 45.048 124.065 45.2349 124.6 45.2408C124.769 45.2408 124.955 45.2232 125.141 45.1707C125.258 45.1356 125.368 45.1006 125.461 45.0656C125.496 45.1123 125.537 45.1532 125.589 45.1824C125.683 45.2408 125.793 45.2758 125.915 45.2758C126.049 45.2758 126.171 45.2466 126.282 45.1824C126.422 45.1064 126.503 44.9663 126.503 44.791V42.8111C126.503 42.414 126.503 42.0051 126.503 41.5788C126.503 41.1524 126.509 40.7319 126.52 40.3172V39.0965C126.52 38.9272 126.439 38.7928 126.288 38.7169L126.299 38.7227ZM125.345 42.0518V44.1135C125.252 44.1603 125.153 44.2012 125.06 44.2304C124.868 44.2888 124.6 44.3238 124.379 44.2304C124.298 44.1953 124.234 44.1427 124.17 44.061C124.106 43.9734 124.048 43.8624 124.013 43.7164C123.972 43.5704 123.949 43.3776 123.937 43.1499C123.925 42.7177 123.995 42.3906 124.141 42.192C124.28 41.9993 124.478 41.9 124.734 41.8825C124.734 41.8825 124.781 41.8825 124.804 41.8825C124.903 41.8825 124.996 41.9 125.077 41.935C125.165 41.9701 125.252 42.011 125.339 42.0577L125.345 42.0518Z" fill="white"/>
<path d="M131.024 43.1382L131.007 42.5191C131.001 42.3147 130.989 42.1278 130.978 41.9643C130.972 41.7599 130.908 41.5846 130.803 41.4386C130.704 41.2985 130.565 41.1875 130.407 41.0999C130.25 41.0181 130.082 40.9539 129.895 40.913C129.628 40.8546 129.366 40.8371 129.075 40.8721L128.836 40.9071C128.551 40.9597 128.289 41.0356 128.057 41.1349C127.812 41.2401 127.638 41.3452 127.527 41.462C127.399 41.5963 127.341 41.7248 127.359 41.8592C127.376 41.9818 127.428 42.0869 127.527 42.1687C127.649 42.2738 127.795 42.3206 127.952 42.2914C128.08 42.268 128.196 42.2213 128.295 42.157C128.429 42.0753 128.586 41.9993 128.761 41.9351C129.081 41.8183 129.389 41.83 129.564 41.865C129.634 41.8767 129.686 41.9 129.721 41.9234C129.756 41.9468 129.773 41.9701 129.791 42.0052C129.814 42.0519 129.826 42.1045 129.837 42.1687C129.837 42.1921 129.843 42.2329 129.843 42.2972C129.843 42.3147 129.843 42.3381 129.843 42.3556C129.68 42.3556 129.511 42.3731 129.343 42.3965C129.11 42.4257 128.93 42.449 128.796 42.4783C128.324 42.5542 127.952 42.7119 127.684 42.9455C127.405 43.1908 127.248 43.5062 127.23 43.88C127.213 44.0961 127.248 44.2947 127.324 44.4757C127.399 44.6626 127.521 44.8203 127.69 44.9488C127.853 45.0714 128.057 45.1649 128.307 45.2291C128.545 45.2875 128.836 45.3167 129.162 45.2992C129.314 45.2875 129.488 45.2583 129.68 45.2175C129.814 45.1883 129.936 45.1474 130.041 45.1006C130.076 45.1415 130.111 45.1766 130.157 45.2116C130.256 45.2817 130.367 45.3167 130.489 45.3167C130.629 45.3167 130.757 45.2759 130.867 45.2058C131.007 45.1182 131.077 44.978 131.065 44.8086C131.048 44.5575 131.036 44.2888 131.036 43.9968C131.036 43.7048 131.036 43.4186 131.024 43.1499V43.1382ZM129.895 44.0085C129.895 44.0085 129.884 44.061 129.855 44.0902C129.814 44.137 129.756 44.1837 129.686 44.2187C129.604 44.2655 129.511 44.3005 129.401 44.3297C129.29 44.3589 129.174 44.3764 129.058 44.3823C128.848 44.3881 128.691 44.3531 128.575 44.2713C128.47 44.1954 128.423 44.0902 128.423 43.9325C128.423 43.8157 128.47 43.7106 128.575 43.6113C128.679 43.5003 128.848 43.4303 129.069 43.3952C129.209 43.3719 129.372 43.3485 129.558 43.331C129.674 43.3193 129.779 43.3134 129.878 43.3134C129.878 43.4069 129.884 43.5003 129.884 43.5879C129.884 43.734 129.89 43.88 129.901 44.0202L129.895 44.0085Z" fill="white"/>
<path d="M134.818 44.3997C134.696 44.3063 134.521 44.2771 134.283 44.3297C134.201 44.3472 134.102 44.3589 133.997 44.3705C133.893 44.3822 133.794 44.3881 133.666 44.3764C133.654 44.1252 133.643 43.8507 133.643 43.5529C133.643 43.255 133.643 42.9805 133.643 42.7294V42.0811C133.643 41.9935 133.643 41.9058 133.643 41.8124C133.643 41.754 133.643 41.6897 133.643 41.6197C133.753 41.6197 133.858 41.6197 133.963 41.6138C134.277 41.6138 134.632 41.6489 134.806 41.462C134.899 41.3627 134.946 41.2575 134.946 41.1466C134.946 41.0473 134.905 40.9422 134.83 40.8429C134.742 40.7319 134.608 40.6735 134.428 40.6735C134.248 40.6735 134.079 40.6735 133.939 40.6735C133.846 40.6735 133.747 40.6735 133.648 40.6735V39.4587C133.648 39.2951 133.561 39.155 133.404 39.0732C133.148 38.9447 132.892 38.9447 132.653 39.079C132.508 39.1608 132.426 39.2951 132.426 39.447V40.691H132.002C131.815 40.691 131.67 40.7377 131.565 40.8312C131.431 40.9538 131.402 41.0765 131.402 41.1641C131.402 41.2517 131.431 41.3744 131.559 41.4912C131.658 41.5729 131.792 41.6255 131.978 41.6372H132.415C132.415 41.6372 132.415 41.6897 132.415 41.7073C132.415 41.7774 132.415 41.8416 132.415 41.9V42.2388C132.415 42.3147 132.415 42.3965 132.415 42.4782C132.415 42.56 132.415 42.6476 132.415 42.7527V43.1557C132.415 43.3017 132.415 43.4477 132.415 43.5996L132.426 44.0435C132.426 44.1895 132.432 44.3297 132.444 44.4582C132.461 44.7619 132.572 44.9955 132.781 45.1532C132.962 45.2933 133.212 45.3634 133.526 45.3634C133.549 45.3634 133.579 45.3634 133.602 45.3634C133.741 45.3634 133.893 45.3518 134.056 45.3401C134.23 45.3284 134.411 45.2933 134.597 45.2349C134.731 45.1882 134.83 45.1298 134.888 45.0539C134.958 44.9721 134.992 44.8845 134.992 44.7852C134.992 44.6334 134.928 44.5049 134.812 44.4114L134.818 44.3997Z" fill="white"/>
<path d="M137.017 41.6781C137.017 41.5204 137.017 41.3744 137.017 41.24C137.017 41.1699 137.017 41.094 137.017 41.0239C137.017 40.948 137.017 40.8545 137.017 40.7728C137.035 40.6034 136.971 40.4574 136.82 40.3581C136.581 40.2004 136.255 40.1946 136.023 40.3464C135.929 40.4048 135.819 40.5216 135.819 40.7436V41.351C135.819 41.4444 135.819 41.5379 135.83 41.6255C135.836 41.7131 135.842 41.8065 135.842 41.9058C135.842 42.0051 135.842 42.1395 135.842 42.3088C135.842 42.4782 135.842 42.6534 135.854 42.8637L135.912 44.8728C135.929 45.0188 136.005 45.1415 136.121 45.2233C136.232 45.2992 136.36 45.3401 136.494 45.3401C136.628 45.3401 136.756 45.305 136.872 45.2349C137.012 45.1532 137.087 45.0072 137.087 44.8319L137.006 42.3264L136.988 41.6839L137.017 41.6781Z" fill="white"/>
<path d="M136.913 38.7753C136.831 38.711 136.738 38.6643 136.639 38.6351C136.54 38.6059 136.43 38.6 136.308 38.6117C136.127 38.6351 135.988 38.6876 135.871 38.7636C135.743 38.8512 135.662 38.9855 135.621 39.1549C135.569 39.3535 135.615 39.5404 135.755 39.6981C135.894 39.8499 136.104 39.9317 136.389 39.9317C136.651 39.9317 136.849 39.8616 136.977 39.7331C137.099 39.6046 137.163 39.4586 137.175 39.2892C137.175 39.1899 137.151 39.0906 137.099 38.9972C137.052 38.9154 136.988 38.8395 136.913 38.7753Z" fill="white"/>
<path d="M141.515 41.5671C141.364 41.3568 141.154 41.1933 140.898 41.0706C140.648 40.9538 140.322 40.9012 139.956 40.9012C139.566 40.9129 139.234 40.983 138.984 41.1115C138.728 41.24 138.524 41.4152 138.373 41.6196C138.228 41.8241 138.123 42.0577 138.065 42.3088C138.012 42.5483 137.977 42.7936 137.972 43.0389C137.966 43.2783 137.989 43.5353 138.041 43.7981C138.1 44.0727 138.204 44.3238 138.356 44.5516C138.513 44.7852 138.728 44.9779 139.001 45.1181C139.257 45.2524 139.572 45.3225 139.938 45.3225C139.967 45.3225 139.996 45.3225 140.026 45.3225C140.38 45.3108 140.683 45.2408 140.927 45.1064C141.172 44.9721 141.375 44.7969 141.527 44.5749C141.678 44.3588 141.783 44.1135 141.847 43.839C141.911 43.5762 141.94 43.2959 141.928 43.0155C141.922 42.7585 141.888 42.5074 141.824 42.2562C141.76 41.9993 141.649 41.7656 141.498 41.5612L141.515 41.5671ZM139.554 44.2771C139.438 44.1895 139.351 44.0785 139.292 43.9442C139.228 43.804 139.182 43.6521 139.164 43.4944C139.141 43.3309 139.135 43.1791 139.141 43.0506C139.147 42.8812 139.164 42.7235 139.199 42.5775C139.228 42.4373 139.275 42.3088 139.345 42.2037C139.409 42.0986 139.484 42.0168 139.589 41.9525C139.688 41.8883 139.816 41.8533 139.967 41.8474C139.979 41.8474 139.991 41.8474 139.996 41.8474C140.119 41.8474 140.223 41.8708 140.305 41.9175C140.398 41.9701 140.474 42.046 140.532 42.1453C140.596 42.2504 140.642 42.3789 140.677 42.5249C140.712 42.6826 140.73 42.852 140.735 43.0214C140.741 43.2024 140.735 43.3835 140.712 43.5528C140.689 43.7164 140.648 43.8624 140.59 43.985C140.532 44.1019 140.456 44.1953 140.357 44.2712C140.264 44.3413 140.148 44.3764 139.996 44.3822C139.804 44.3939 139.671 44.353 139.566 44.2771H139.554Z" fill="white"/>
<path d="M145.908 41.3101C145.635 41.0706 145.291 40.9597 144.896 40.9538C144.651 40.9597 144.419 41.0006 144.215 41.0648C144.087 41.1057 143.959 41.1582 143.843 41.2108C143.819 41.1582 143.779 41.1057 143.715 41.0531C143.54 40.9071 143.232 40.8662 142.941 41.0006C142.789 41.0706 142.702 41.205 142.702 41.3685V44.8261C142.725 44.978 142.795 45.1006 142.923 45.1824C143.139 45.3225 143.464 45.3225 143.68 45.1824C143.808 45.1006 143.878 44.9721 143.889 44.8086C143.889 44.3881 143.889 43.95 143.889 43.5061C143.889 43.0915 143.889 42.6885 143.889 42.303C143.988 42.2387 144.075 42.1862 144.157 42.1395C144.25 42.0869 144.355 42.0343 144.459 41.9876C144.646 41.9058 144.814 41.8883 144.954 41.9234C145.03 41.9467 145.105 41.9876 145.117 42.192C145.129 42.3264 145.134 42.4548 145.134 42.5833V43.2024C145.134 43.2959 145.134 43.3952 145.134 43.4945C145.134 43.5996 145.134 43.6989 145.134 43.7982V44.0143C145.129 44.1486 145.123 44.2829 145.123 44.4173V44.8436C145.146 44.9955 145.222 45.124 145.35 45.1999C145.46 45.27 145.588 45.305 145.722 45.305C145.867 45.305 145.995 45.27 146.106 45.194C146.234 45.1123 146.31 44.9838 146.321 44.8203C146.327 44.6742 146.333 44.5049 146.333 44.3004V42.3264C146.333 41.8942 146.193 41.5496 145.914 41.3043L145.908 41.3101Z" fill="white"/>
<path d="M53.1067 38.6877C52.8507 38.6877 52.583 38.676 52.3038 38.676C52.0303 38.676 51.751 38.676 51.4659 38.676H50.4883C50.1567 38.676 49.8367 38.676 49.5341 38.6935C49.3712 38.6994 49.2315 38.7461 49.1326 38.8337C48.993 38.9505 48.9639 39.079 48.9639 39.1666C48.9639 39.301 49.0221 39.4236 49.1442 39.5287C49.2606 39.628 49.4294 39.6748 49.6621 39.6689C49.9298 39.6572 50.2265 39.6631 50.5698 39.6572C50.5698 40.0193 50.5814 40.3815 50.5931 40.7436C50.6105 41.1699 50.6222 41.5788 50.6396 41.9818C50.6454 42.1453 50.6513 42.2796 50.6513 42.3848V42.6885C50.6513 42.9046 50.6513 43.144 50.6396 43.4069V43.4828C50.6338 43.7164 50.628 43.9267 50.6222 44.1136L50.6047 44.5107C50.5989 44.6509 50.5989 44.7911 50.6047 44.9312C50.6164 45.0889 50.692 45.2116 50.8258 45.2933C50.9422 45.3634 51.0702 45.3985 51.2099 45.3985C51.3495 45.3985 51.4833 45.3634 51.5997 45.2875C51.7335 45.2057 51.8092 45.0714 51.8208 44.9137C51.8266 44.7735 51.8324 44.6334 51.8324 44.4932C51.8324 44.353 51.8324 44.2304 51.8441 44.1019L51.8615 43.3893C51.8674 43.1382 51.8732 42.8987 51.8732 42.6651V42.338C51.8732 42.2037 51.8732 42.0869 51.8615 41.9993C51.8499 41.6138 51.8383 41.1991 51.8266 40.7669C51.8208 40.3873 51.8092 40.0135 51.8034 39.6456H53.0776C53.258 39.6456 53.4035 39.5988 53.5082 39.5054C53.6129 39.4119 53.6653 39.301 53.6653 39.1725C53.6653 39.044 53.6129 38.9447 53.5082 38.8512C53.4093 38.7636 53.2755 38.7111 53.1125 38.7052L53.1067 38.6877Z" fill="white"/>
<path d="M57.8314 42.4432C57.8197 42.1862 57.7732 41.9526 57.6975 41.754C57.6219 41.5496 57.5055 41.3802 57.3601 41.2459C57.2146 41.1174 57.0284 41.0239 56.8073 40.9714C56.5978 40.9188 56.3476 40.9071 56.0625 40.9363C55.8123 40.9655 55.5912 41.0298 55.405 41.1349C55.3119 41.1816 55.2246 41.2342 55.1432 41.2867C55.1432 41.2108 55.1432 41.1466 55.1432 41.0706C55.1374 40.9305 55.1315 40.7845 55.1315 40.6326C55.1315 40.4808 55.1315 40.3289 55.1315 40.177C55.1315 40.0135 55.1315 39.8383 55.1432 39.6397C55.1548 39.447 55.1664 39.2718 55.1781 39.1141C55.1897 38.9739 55.1432 38.8512 55.0501 38.7578C54.957 38.6644 54.8231 38.6176 54.6311 38.6001C54.4449 38.5884 54.3053 38.6235 54.2064 38.6994C54.1075 38.7812 54.0435 38.898 54.026 39.0381C54.0027 39.19 53.9911 39.3652 53.9853 39.5463C53.9794 39.7215 53.9736 39.8967 53.9736 40.0719C53.9736 40.2647 53.9736 40.4516 53.9853 40.6326C53.9911 40.8137 53.9969 40.948 54.0027 41.0298C54.0027 41.4328 54.0085 41.8533 54.026 42.2796C54.0435 42.6885 54.0551 43.0973 54.0609 43.5003C54.0609 43.6522 54.0609 43.8099 54.0609 43.9734C54.0609 44.1544 54.0725 44.3005 54.0842 44.429C54.09 44.499 54.0958 44.5691 54.0958 44.6392C54.0958 44.7151 54.0958 44.7969 54.1075 44.8787C54.1191 45.0305 54.1947 45.159 54.3286 45.2466C54.4449 45.3226 54.5729 45.3576 54.7184 45.3576C54.8639 45.3576 54.9861 45.3226 55.0908 45.2525C55.1781 45.1941 55.2828 45.0831 55.2828 44.8787C55.2828 44.8144 55.2828 44.7327 55.2828 44.6334V44.5633C55.2828 44.4348 55.2712 44.2946 55.2654 44.1486C55.2595 43.9617 55.2537 43.7573 55.2479 43.5295C55.2421 43.3017 55.2363 43.0973 55.2363 42.9221C55.2363 42.8286 55.2363 42.741 55.2363 42.6534C55.2363 42.5892 55.2363 42.5366 55.2479 42.4841C55.4166 42.3088 55.5854 42.1628 55.7541 42.0519C55.9112 41.9467 56.0683 41.8883 56.208 41.8883C56.3593 41.8883 56.464 41.9292 56.528 42.0168C56.5804 42.0869 56.6444 42.2388 56.6618 42.5717C56.6735 42.7819 56.6851 43.0039 56.6851 43.255V43.3485C56.6851 43.547 56.6851 43.7339 56.6851 43.9091C56.6851 44.0844 56.6851 44.2537 56.6851 44.4173C56.6851 44.5808 56.6909 44.7327 56.7026 44.8728C56.7142 45.0305 56.784 45.1532 56.912 45.2291C57.139 45.3693 57.4357 45.3634 57.6626 45.2291C57.7965 45.1473 57.8663 45.013 57.8663 44.8495V44.3764C57.8663 44.1019 57.8663 43.7865 57.8546 43.4302C57.8488 43.0798 57.8372 42.741 57.8256 42.4198L57.8314 42.4432Z" fill="white"/>
<path d="M61.0376 43.4594C61.2703 43.4477 61.4856 43.436 61.6776 43.4243C61.8813 43.4127 62.0267 43.401 62.1257 43.3834C62.3817 43.3426 62.5388 43.2608 62.6144 43.1323C62.6784 43.0213 62.7075 42.8928 62.7017 42.7468C62.6842 42.449 62.6202 42.1861 62.5039 41.9642C62.3875 41.7423 62.242 41.5554 62.0675 41.4094C61.8929 41.2633 61.7009 41.1524 61.4856 41.0764C61.2761 41.0064 61.0667 40.9713 60.8572 40.9713C60.4732 40.9713 60.1415 41.0297 59.868 41.1524C59.5946 41.275 59.3618 41.4327 59.1873 41.6313C59.0069 41.8299 58.8789 42.0576 58.7916 42.3146C58.7101 42.5658 58.6694 42.8228 58.6578 43.0797C58.6345 43.804 58.8149 44.3763 59.1931 44.7735C59.5713 45.1765 60.1415 45.3809 60.8805 45.3809C61.1481 45.3809 61.4041 45.3517 61.6369 45.2991C61.8755 45.2466 62.114 45.1473 62.3468 45.013C62.4806 44.9312 62.5562 44.8261 62.5679 44.7034C62.5853 44.5866 62.5562 44.4815 62.4806 44.388C62.4108 44.3004 62.3118 44.2362 62.1897 44.2011C62.0616 44.1602 61.922 44.1719 61.7765 44.2362C61.6543 44.2887 61.5147 44.3413 61.3634 44.388C61.2238 44.4289 61.0725 44.4523 60.927 44.4523C60.6885 44.4523 60.4964 44.4172 60.3568 44.353C60.223 44.2887 60.1182 44.207 60.0484 44.1018C59.9728 43.9967 59.9262 43.8799 59.8971 43.7514C59.8797 43.6638 59.868 43.5762 59.8564 43.4886C59.996 43.4886 60.1473 43.4827 60.3161 43.4769C60.5546 43.4769 60.7874 43.4652 61.0201 43.4535L61.0376 43.4594ZM61.4972 42.5132C61.0899 42.5483 60.7408 42.5658 60.4615 42.5658C60.2404 42.5658 60.06 42.5658 59.9088 42.5658C59.9495 42.3964 60.031 42.2504 60.159 42.1336C60.3102 41.9876 60.5139 41.9175 60.7699 41.9175C60.7874 41.9175 60.799 41.9175 60.8165 41.9175C60.9968 41.9292 61.1539 41.9934 61.2994 42.1161C61.41 42.2095 61.474 42.338 61.5031 42.5074L61.4972 42.5132Z" fill="white"/>
<path d="M139.688 35.966H145.687V34.792C145.687 34.1437 145.163 33.6122 144.517 33.6122H140.857V30.7504C140.857 30.1021 140.333 29.5764 139.688 29.5764H138.518V34.792C138.518 35.4403 139.042 35.966 139.688 35.966Z" fill="white"/>
<path d="M150.342 23.5022V22.3283H145.477V19.7701C145.477 19.1218 144.954 18.5962 144.308 18.5962H143.138V27.2402C143.138 27.8885 143.662 28.4141 144.308 28.4141H145.477V24.682H149.172C149.818 24.682 150.342 24.1564 150.342 23.5081V23.5022Z" fill="white"/>
<path d="M140.712 18.9525H132.537C131.926 18.9525 131.431 19.449 131.431 20.0622V26.9424C131.431 27.5556 131.926 28.0521 132.537 28.0521H140.712V26.9424C140.712 26.3291 140.217 25.8327 139.606 25.8327H133.642V21.1719H139.606C140.217 21.1719 140.712 20.6755 140.712 20.0622V18.9525Z" fill="white"/>
<path d="M121.243 27.3629L117.437 23.5373L120.026 20.9149C120.079 20.8565 120.131 20.7981 120.172 20.7339L120.184 20.7163C120.218 20.6696 120.242 20.6112 120.265 20.5586V20.5294L120.288 20.5061C120.335 20.3776 120.364 20.2433 120.364 20.0972C120.364 19.9629 120.341 19.8344 120.3 19.7118L120.271 19.6942V19.6358C120.242 19.5716 120.213 19.519 120.184 19.4723L120.16 19.4373C120.131 19.3964 120.102 19.3613 120.073 19.3263H119.992V19.2387C119.957 19.2095 119.916 19.1744 119.875 19.1511L119.846 19.1336C119.782 19.0927 119.724 19.0635 119.66 19.0343C119.573 18.9992 119.509 18.9817 119.45 18.97H119.421C119.357 18.9525 119.287 18.9467 119.218 18.9467H110.752V20.0972C110.752 20.7339 111.269 21.2478 111.898 21.2478H116.454L110.274 27.4855L111.077 28.2973C111.52 28.7412 112.276 28.7354 112.707 28.2973L115.814 25.161L118.805 28.163C119.241 28.601 119.992 28.601 120.428 28.163L121.237 27.3512L121.243 27.3629Z" fill="white"/>
<path d="M127.503 28.934H128.714V19.8111C128.714 19.1745 128.202 18.6605 127.567 18.6605H126.357V22.3985H124.757V19.7352C124.757 19.1219 124.262 18.6138 123.651 18.5905H123.523H122.4V27.7134C122.4 28.3441 122.912 28.8639 123.547 28.8639H124.757V24.7697H126.357V27.7834C126.357 28.4201 126.869 28.934 127.503 28.934Z" fill="white"/>
<path d="M35.2783 34.2897C35.2783 34.2897 38.0188 26.002 31.1587 23.8176C27.6326 30.1196 35.2783 34.2897 35.2783 34.2897Z" fill="white"/>
<path d="M35.2436 3.13049C35.2436 3.13049 26.9463 6.55888 29.8672 13.404C37.1405 11.9263 35.2436 3.13049 35.2436 3.13049Z" fill="white"/>
<path d="M6.97091 5.13965C6.97091 5.13965 6.14466 13.7252 13.2376 14.321C15.2508 7.47002 6.97091 5.13965 6.97091 5.13965Z" fill="white"/>
<path d="M17.6017 4.79504C17.6017 4.79504 16.0481 8.60891 19.2076 9.85294C21.0696 7.00276 17.6017 4.79504 17.6017 4.79504Z" fill="white"/>
<path d="M16.1238 22.6379C16.1238 22.6379 15.6234 20.582 15.8328 18.6196C16.0423 16.6572 13.1156 15.7869 13.1156 18.5904C13.1156 18.5904 12.4115 17.7318 11.2652 18.3976C10.3633 18.9233 10.6717 20.8974 12.1264 21.5048C13.5752 22.1064 16.0423 22.597 16.118 22.6437L16.1238 22.6379Z" fill="white"/>
<path d="M23.7049 0C23.7049 0 18.2063 5.0871 22.4597 9.59599C27.7255 6.32529 23.7049 0 23.7049 0Z" fill="white"/>
<path d="M1.98975 10.0399C1.98975 10.0399 6.56318 18.1758 13.2255 14.2918C10.7817 6.96195 1.98975 10.0399 1.98975 10.0399Z" fill="white"/>
<path d="M41.0036 8.38697C41.0036 8.38697 31.88 5.83466 29.8784 13.439C36.8957 16.9492 41.0036 8.38697 41.0036 8.38697Z" fill="white"/>
<path d="M41.5099 33.0107C41.5099 33.0107 39.904 22.3517 31.1295 23.806C30.7687 32.7245 41.5099 33.0107 41.5099 33.0107Z" fill="white"/>
<path d="M26.2124 46H21.3655C18.7181 43.7163 20.9233 42.5482 20.0912 40.1127C18.7762 36.2989 19.0264 34.0444 18.7064 33.3494C18.6191 33.1567 18.4562 32.8062 18.27 32.3799C18.625 29.9268 18.9741 28.3324 19.1254 27.5848C19.4105 26.148 20.4462 20.6871 20.1902 17.9888C19.9341 15.2905 19.1661 12.7031 18.9915 12.2417C18.817 11.7803 22.4769 15.5708 22.4012 23.1577C22.4012 23.1577 22.1219 24.9858 22.9482 25.2369C23.7686 25.488 23.8501 24.9274 24.7927 24.0279C25.7353 23.1226 31.1583 17.5508 35.2778 17.2062C35.2778 17.2062 28.3653 21.9487 25.7469 27.0124C22.5816 33.1275 26.2241 42.5774 26.2241 46H26.2124Z" fill="white"/>
<path d="M25.311 20.9324C26.6318 21.1427 27.8654 20.2374 28.069 18.9116C28.2785 17.5917 27.3708 16.3535 26.0558 16.1432C24.7349 15.9388 23.5014 16.8382 23.2977 18.164C23.0941 19.484 23.996 20.7222 25.311 20.9324Z" fill="white"/>
<path d="M42.7204 20.5762C42.7204 20.5762 36.9251 16.3185 33.4805 21.1719C37.5244 25.5465 42.7204 20.5762 42.7204 20.5762Z" fill="white"/>
<path d="M0 28.4258C0 28.4258 8.09952 30.6394 9.83928 23.8936C3.60172 20.8156 0 28.4258 0 28.4258Z" fill="white"/>
<path d="M2.40869 20.2024C2.40869 20.2024 5.15508 23.8527 8.14003 21.534C6.48172 18.1348 2.40869 20.2024 2.40869 20.2024Z" fill="white"/>
<path d="M15.8207 46H21.5288C22.7739 39.2659 19.1955 34.0445 18.8696 33.3553C18.7765 33.1626 18.6194 32.8121 18.4332 32.3858C17.9503 31.2819 17.2812 29.629 17.1357 28.6186C16.932 27.2169 16.996 25.8093 17.0251 25.5523C17.0542 25.2954 15.6752 27.6783 16.6586 31.5155C16.6586 31.5155 16.9088 32.2222 16.5247 32.4559C16.1407 32.6836 15.8207 32.415 15.5588 32.2573C14.9712 31.9127 11.5207 29.7751 9.39111 30.1196C9.39111 30.1196 13.726 31.9945 15.4599 34.4124C17.1939 36.8304 17.1008 43.8624 15.8265 46H15.8207Z" fill="white"/>
<path d="M14.8667 30.4117C15.5125 30.143 15.8093 29.3954 15.5416 28.753C15.274 28.1047 14.535 27.8068 13.8891 28.0755C13.2491 28.3441 12.9465 29.0859 13.2142 29.7342C13.4818 30.3766 14.2208 30.6803 14.8667 30.4117Z" fill="white"/>
</g>
<defs>
<clipPath id="clip0_1707_12487">
<rect width="150.341" height="46" fill="white"/>
</clipPath>
</defs>
</svg>
