<svg width="40" height="40" viewBox="0 0 40 40" fill="none" xmlns="http://www.w3.org/2000/svg">
<g clip-path="url(#clip0_970_13642)">
<rect width="40" height="40" rx="12" fill="#1C1C1C"/>
<path d="M15.1954 14.448L16.0435 13.2765H21.6613V12.6519H15.8294C15.7209 12.6519 15.6184 12.7039 15.5548 12.7923L14.7067 13.9639H12.5938V13.2679H13.6972V12.6433H11.3562V11.7345H13.655V11.1099H10.9743C10.8104 11.1099 10.6774 11.2434 10.6774 11.408V12.9698C10.6774 13.1344 10.8104 13.2679 10.9743 13.2679H11.9149V13.9639H9.15625V14.5885H14.9209C15.0293 14.5885 15.1318 14.5365 15.1954 14.448Z" fill="white"/>
<path d="M19.0782 23.7405V19.2673H18.3988V20.9289H17.2109V21.5535H18.3988V23.7405H19.0782Z" fill="white"/>
<path d="M14.0469 22.2284V22.8535H17.2083V22.2284H16.586V20.8585H15.9066V22.2284H15.348V20.3046H17.0667V19.6794H14.0469V20.3046H14.6691V22.2284H14.0469Z" fill="white"/>
<path d="M20.2306 15.6903H17.8896V13.8298H17.2107V16.0168C17.2107 16.1814 17.3437 16.3149 17.5077 16.3149H20.2306V15.6903Z" fill="white"/>
<path d="M17.5077 11.9556H20.2306V11.331H17.8896V9.79704H17.2107V11.657C17.2107 11.8216 17.3437 11.9551 17.5077 11.9551V11.9556Z" fill="white"/>
<path d="M29.5447 14.9578H28.752V12.1462H29.5447V11.521H27.2811V12.1462H28.0732V14.9578H27.2811V15.5825H29.5447V14.9578Z" fill="white"/>
<path d="M29.0573 17.7755L27.5078 19.9158L28.0574 20.3164L29.5048 18.3165H29.727L31.1745 20.3164L31.7235 19.9158L30.1741 17.7755C30.11 17.687 30.008 17.635 29.8995 17.635H29.3313C29.2228 17.635 29.1203 17.687 29.0567 17.7755H29.0573Z" fill="white"/>
<path d="M24.1398 13.1976L24.8598 12.203H25.082L25.8019 13.1976V13.9637H24.6915V14.5884H25.8019V15.5824H26.4808V13.0871C26.4808 13.0153 26.4583 12.945 26.4161 12.8866L25.5295 11.6615C25.4654 11.573 25.3634 11.521 25.255 11.521H24.6867C24.5783 11.521 24.4757 11.573 24.4122 11.6615L23.5256 12.8866C23.4834 12.945 23.4609 13.0147 23.4609 13.0871V15.5824H24.1398V13.1976Z" fill="white"/>
<path d="M9.88285 20.9644H7.49219V21.6458H9.52927V22.4125H7.83188V23.094H9.52927V24.1379H10.1798V21.2625C10.1798 21.0979 10.0468 20.9644 9.88285 20.9644Z" fill="white"/>
<path d="M10.9767 17.6274H13.4026C13.5665 17.6274 13.6995 17.4939 13.6995 17.3293V15.1423H13.0207V15.767H11.9103V16.3916H13.0207V17.0023H11.3585V15.1423H10.6797V17.3293C10.6797 17.4939 10.8127 17.6274 10.9767 17.6274Z" fill="white"/>
<path d="M21.171 20.3044H22.5998C22.7637 20.3044 22.8967 20.1708 22.8967 20.0062V18.728C22.8967 18.5634 22.7637 18.4299 22.5998 18.4299H20.4922V19.0546H22.2179V19.6792H20.7892C20.6252 19.6792 20.4922 19.8127 20.4922 19.9773V21.3971C20.4922 21.5617 20.6252 21.6952 20.7892 21.6952H23.3213V21.0705H21.171V20.3038V20.3044Z" fill="white"/>
<path d="M27.6535 23.911H25.3125V18.0181H24.6337V19.6796H23.4453V20.3043H24.6337V24.2375C24.6337 24.4021 24.7667 24.5356 24.9307 24.5356H27.6535V23.911Z" fill="white"/>
<path d="M32.5129 21.071H26.7344V21.6957H32.5129V21.071Z" fill="white"/>
<path d="M29.0287 28.2446H28.2804V27.0463H30.0814V26.3943H27.9113C27.7399 26.3943 27.6016 26.5337 27.6016 26.7053V28.585C27.6016 28.7566 27.7404 28.896 27.9113 28.896H28.9999C29.4544 28.8971 29.8224 29.2665 29.8224 29.7228C29.8224 30.1791 29.4538 30.549 28.9993 30.549H27.6016V31.201H29.0287C29.8421 31.201 30.5012 30.5394 30.5012 29.7228C30.5012 28.9062 29.8421 28.2446 29.0287 28.2446Z" fill="white"/>
<path d="M12.5938 20.5527H11.9149V22.2143H10.7266V22.8389H11.9149V26.7722C11.9149 26.9368 12.0479 27.0703 12.2119 27.0703H14.9348V26.4457H12.5938V20.5527Z" fill="white"/>
<path d="M21.7353 26.3281C20.8818 26.3281 20.1875 27.0251 20.1875 27.8819C20.1875 28.7387 20.8818 29.4357 21.7353 29.4357C22.5888 29.4357 23.2832 28.7387 23.2832 27.8819C23.2832 27.0251 22.5888 26.3281 21.7353 26.3281ZM21.7353 28.7773C21.2562 28.7773 20.8663 28.3639 20.8663 27.8825C20.8663 27.401 21.2562 26.9876 21.7353 26.9876C22.2144 26.9876 22.6043 27.4015 22.6043 27.8825C22.6043 28.3634 22.2144 28.7773 21.7353 28.7773Z" fill="white"/>
<path d="M17.7236 30.5516L19.1721 28.5501C19.6069 27.9496 19.546 27.1818 18.9441 26.6334C18.2812 26.0302 16.7254 26.2988 16.7254 27.6644V27.8016H17.3679V27.6644C17.3679 26.8961 18.2433 26.8076 18.5691 27.1534C18.8105 27.4097 18.8623 27.7904 18.6086 28.17L16.7708 30.7093C16.6218 30.9151 16.7681 31.2031 17.0218 31.2031H19.6037V30.5511H17.7242L17.7236 30.5516Z" fill="white"/>
<path d="M24.9033 30.5516L26.3518 28.5501C26.7866 27.9496 26.7257 27.1818 26.1237 26.6334C25.4609 26.0302 23.9051 26.2988 23.9051 27.6644V27.8016H24.5476V27.6644C24.5476 26.8961 25.4235 26.8076 25.7488 27.1534C25.9902 27.4097 26.042 27.7904 25.7883 28.17L23.9505 30.7093C23.8014 30.9151 23.9478 31.2031 24.2015 31.2031H26.7834V30.5511H24.9038L24.9033 30.5516Z" fill="white"/>
<path d="M29.2734 3.45917L35.9936 -9" stroke="#FA41C7" stroke-width="0.8" stroke-linecap="square" stroke-linejoin="round"/>
<path d="M9.81956 38.009L7.94531 41.9226" stroke="#96F022" stroke-width="2.2" stroke-linecap="square" stroke-linejoin="round"/>
<path d="M5.1237 6.83852L-0.0625 3.0896" stroke="#FFCD00" stroke-width="0.7" stroke-linecap="square" stroke-linejoin="round"/>
<path d="M4.06084 27.063L0.53125 29.0558" stroke="#FA41C7" stroke-width="0.896953" stroke-linecap="square" stroke-linejoin="round"/>
<path d="M37.6016 13.7942L41.4046 12.51" stroke="#96F022" stroke-width="0.8" stroke-linecap="square" stroke-linejoin="round"/>
<path d="M37.1641 22.6716L43.9391 24.5239" stroke="#FF8000" stroke-width="1.2" stroke-linecap="square" stroke-linejoin="round"/>
<path d="M37.8203 30.4568L44.982 34.1283" stroke="#1C55FF" stroke-width="0.8" stroke-linecap="square" stroke-linejoin="round"/>
<path d="M3.69363 12.8334L0.53125 11.5298" stroke="#1C55FF" stroke-width="1.5" stroke-linecap="square" stroke-linejoin="round"/>
<path d="M23 5L24 0" stroke="#1C55FF" stroke-linecap="square" stroke-linejoin="round"/>
<path d="M28.9688 37.0293L32.576 46.9999" stroke="#FFDE00" stroke-width="0.983229" stroke-linecap="square" stroke-linejoin="round"/>
</g>
<defs>
<clipPath id="clip0_970_13642">
<rect width="40" height="40" rx="12" fill="white"/>
</clipPath>
</defs>
</svg>
