<svg width="90" height="80" viewBox="0 0 90 80" fill="none" xmlns="http://www.w3.org/2000/svg">
<g clip-path="url(#clip0_1509_38098)">
<path d="M82.1148 8.24972L80.9885 7.06294L79.796 5.95035L78.3219 5.19213L77.2205 3.88173L75.556 3.50263L74.2475 2.43124L72.6989 1.86257L71.1751 1.18677L69.4112 1.46698L67.8708 0.848872L66.2311 0.799423L64.608 0.543937L62.9765 0.494489L61.3037 0.271969L59.7468 1.00546L58.0243 0.733491L56.6413 1.94499L55.0844 2.37354L53.3784 2.48068L51.9043 3.20593L50.2895 3.70042L49.0804 4.87895L47.979 6.12342L46.4303 6.8157L45.3289 8.07665L44.2523 6.77449L42.7369 6.04924L41.7348 4.63171L40.3187 3.7746L38.7204 3.26362L37.3954 2.17575L35.7556 1.84609L34.1242 1.52467L32.6336 0.692284L31.0104 0.3379L29.3376 0.263727L27.6896 0.0247244L26.0167 0L24.4019 0.626352L22.7208 0.50273L21.1059 0.881838L19.6898 1.92851L18.1743 2.47244L16.4849 2.61255L14.9445 3.21418L13.3876 3.80756L12.3525 5.2251L10.9612 6.08221L9.8018 7.21953L8.72522 8.43103L7.55755 9.55187L5.98408 10.3843L5.32986 11.9419L4.41062 13.3017L3.1767 14.5132L2.51419 16.0379L2.06699 17.645L1.54526 19.2191L0.907598 20.7685L0.85791 22.4498L1.10635 24.1228L0.982131 25.7464L1.0401 27.3699L1.34651 28.9605L1.1312 30.6253V32.2983L2.22434 33.6994L2.09184 35.4548L2.60528 37.0372L3.65702 38.3641L4.26984 39.897L5.52033 41.0343L6.47269 42.3529L7.63208 43.4903L8.62584 44.7677L9.39601 46.3418L11.0026 47.0506L12.2365 48.1385L13.0233 49.6879L14.6795 50.3389L15.9135 51.4268L16.7996 52.8773L17.8596 54.1547L19.1432 55.1932L20.3357 56.3305L21.7767 57.2123L22.5303 58.8029L23.5737 60.0886L24.9816 61.0034L26.4308 61.8852L27.3583 63.2945L28.6419 64.333L29.7185 65.5939L30.969 66.6735L32.0787 67.9015L33.0394 69.2778L34.9109 69.7064L36.0041 70.9591L37.1469 72.1541L38.0165 73.6293L39.6396 74.3216L40.6003 75.7062L41.5775 77.0743L42.8197 78.1704L44.4097 78.9121L45.3289 80L46.5711 79.25L47.7388 78.088L49.0224 77.0496L49.8837 75.5743L51.5151 74.8985L52.3847 73.4315L53.5275 72.253L54.8691 71.264L56.0947 70.1597L57.2458 68.9894L58.1816 67.5883L59.8793 66.9702L60.4176 65.1571L62.1236 64.5472L63.0428 63.1379L64.3678 62.1325L65.7094 61.1435L66.8688 59.9732L68.169 58.943L69.0468 57.476L70.5292 56.6437L71.7631 55.5475L72.7486 54.1959L73.5933 52.6878L75.0011 51.7812L76.3096 50.751L77.2454 49.35L78.6118 48.3857L79.5724 47.0011L81.1376 46.2347L82.2225 44.9737L83.2991 43.7375L84.1769 42.3447L85.386 41.2074L86.2058 39.7898L87.299 38.5042L87.8869 36.963L88.6157 35.4713L89.2368 33.9302L89.4852 32.2819L89.3445 30.5924L89.8579 29.01L89.4521 27.3617L89.8082 25.7381L89.4604 24.131L89.3859 22.5075L89.6012 20.7932L88.9138 19.2686L87.9615 17.8675L87.564 16.2852L87.4315 14.5297L85.9491 13.4666L85.005 12.1644L84.0692 10.8458L83.7214 9.00793L82.1148 8.24972Z" fill="#FF5A4D"/>
<path d="M43.093 32.464L42.182 33.8239L40.9978 34.9612L39.5651 35.7936L37.9668 36.2139L36.3188 36.3375L34.6791 36.1315L33.1305 35.5381L31.764 34.615L30.5632 33.486L29.6937 32.0931L29.0809 30.5602L28.791 28.9284L28.9649 27.2719L29.6357 25.7554L30.5135 24.3626L31.6978 23.1923L33.1801 22.4424L34.7453 21.8984L36.4099 21.9067L38.0744 22.0056L39.6396 22.6072L41.0061 23.555L42.1737 24.7253L43.0267 26.1346L43.6727 27.651L43.8963 29.2828L43.6064 30.9064L43.093 32.464Z" fill="white"/>
<path d="M52.6662 39.6166L51.7553 40.9682L50.6456 42.2127L49.1466 42.9297L47.5732 43.4818L45.9086 43.523L44.2772 43.2676L42.7203 42.7154L41.3207 41.8253L40.1365 40.6633L39.2918 39.254L38.7204 37.7128L38.4719 36.0892L38.621 34.4492L39.151 32.8833L40.0371 31.4658L41.3621 30.4603L42.7617 29.595L44.3434 29.084H45.9997L47.6643 29.1829L49.2129 29.801L50.6373 30.6663L51.7801 31.8778L52.6496 33.2789L53.2956 34.8036L53.5109 36.4519L53.2128 38.0754L52.6662 39.6166Z" fill="white"/>
<path d="M34.3892 47.4042C34.323 47.4042 34.265 47.4042 34.207 47.3959L32.7495 47.2228C32.5425 47.1981 32.3354 47.1322 32.1533 47.0251L30.8696 46.2916C30.6129 46.1432 30.3976 45.9207 30.2568 45.657L29.5446 44.2806C29.4452 44.0911 29.3873 43.8851 29.3707 43.6708L29.2631 42.1296C29.2548 41.9978 29.2631 41.8576 29.2879 41.7258L29.5777 40.1929C29.7434 39.344 30.5632 38.7918 31.4162 38.9484C32.2692 39.1132 32.824 39.9291 32.6667 40.778L32.41 42.1131L32.4845 43.1351L32.8406 43.8109L33.4452 44.157L34.3395 44.2642L35.2671 44.0828L36.2857 43.4565C37.0227 43.0032 37.9916 43.2257 38.4471 43.9592C38.9026 44.6927 38.679 45.657 37.9419 46.1102L36.6832 46.8932C36.5175 46.9921 36.3436 47.0663 36.1614 47.0992L34.7122 47.3877C34.6128 47.4042 34.5134 47.4206 34.4058 47.4206L34.3892 47.4042Z" fill="black"/>
<path d="M40.6665 27.8141L39.5154 29.174L37.9751 30.1052L36.1697 30.2041L34.4141 29.7673L32.998 28.6465L32.0208 27.1301L31.8137 25.3499L32.2112 23.6027L33.3458 22.2017L34.9689 21.427L36.7411 21.2539L38.4802 21.6989L39.8881 22.8115L40.8735 24.3115L41.1468 26.0834L40.6665 27.8141Z" fill="black"/>
<path d="M50.6456 35.1418L49.5359 36.5346L47.9624 37.367L46.1819 37.5566L44.4594 37.0538L43.035 35.9742L42.0495 34.466L41.7514 32.6859L42.2483 30.9551L43.3497 29.5376L44.9728 28.7629L46.7533 28.5898L48.4759 29.0596L49.9334 30.1228L50.8443 31.6639L51.1507 33.4276L50.6456 35.1418Z" fill="black"/>
</g>
<defs>
<clipPath id="clip0_1509_38098">
<rect width="89" height="80" fill="white" transform="translate(0.85791)"/>
</clipPath>
</defs>
</svg>
