<svg width="251" height="251" viewBox="0 0 251 251" fill="none" xmlns="http://www.w3.org/2000/svg">
<path d="M4.17856 68.4343L4.0823 73.7814L6.83279 78.3592L6.73664 83.7255L8.94863 88.438L11.4491 93.0927L11.9107 98.3051L13.0263 103.325L14.9882 108.115L15.7768 113.25L17.9503 117.963L19.1235 122.983L21.0662 127.772L20.9893 133.177L23.8745 137.678L23.682 143.121L25.2785 148.026L26.8365 152.95L29.587 157.489L29.7985 162.817L31.3374 167.741L33.203 172.549L35.5881 177.204L35.8381 182.513L37.8386 187.283L39.9928 192.015L40.6274 197.208L43.6088 201.67L44.1088 206.921L45.3976 211.903L47.4365 216.654L48.4366 221.732L50.0715 226.598L53.0143 231.06L55.034 235.811L56.0149 240.87L59.0732 244.813L62.6507 248.102L67.267 250.525L72.3449 249.294L77.6919 249.198L82.3466 246.948L87.0014 244.64L92.1369 243.928L96.6377 241.12L102.062 241.293L106.832 239.369L111.756 238.004L116.911 237.292L121.488 234.772L126.066 232.214L131.452 232.272L136.337 230.752L140.78 227.771L146.07 227.598L150.898 225.848L155.783 224.309L160.284 221.539L165.535 221.135L170.209 218.943L175.037 217.192L180.499 217.462L184.942 214.48L190.078 213.73L194.617 211.076L200.003 211.133L204.908 209.614L209.485 207.037L214.679 206.517L219.045 203.247L224.45 203.305L229.566 202.459L234.24 200.17L239.375 199.362L242.876 194.938L246.896 191.841L249.262 186.994L247.511 181.897L247.108 176.704L244.395 172.126L243.184 167.145L241.703 162.24L240.587 157.22L239.433 152.238L238.414 147.199L236.221 142.486L236.24 137.12L233.855 132.484L231.701 127.772L231.816 122.386L229.739 117.655L228.566 112.635L227.585 107.576L224.815 103.037L224.123 97.8627L221.545 93.0927L220.276 87.9378L219.526 82.61L218.006 77.5129L214.948 72.8967L215.006 67.3187L213.967 62.087L212.601 56.9514L210.082 52.1621L208.427 47.1035L206.639 42.1025L205.35 36.9478L204.811 31.5622L202.311 26.7728L201.83 21.368L199.656 16.4825L198.502 11.3085L195.81 6.48067L191.251 3.59552L186.404 0.864258L180.903 1.86442L175.883 3.05697L171.209 5.442L166.247 6.80764L160.976 7.15385L156.283 9.46196L151.59 11.7316L146.166 11.5585L141.473 13.8858L136.26 14.386L131.74 17.2711L126.374 17.3095L121.892 20.3293L116.68 20.8679L112.025 23.2722L106.774 23.6184L102.023 25.7534L97.157 27.4652L91.9445 28.0038L87.5399 31.2737L82.2312 31.4852L77.365 33.1586L72.114 33.601L67.517 36.2746L62.4007 37.1786L57.3805 38.3134L52.8605 41.2563L47.8788 42.6027H42.5125L37.9731 45.4493L32.626 45.5647L27.9714 48.0075L23.1243 49.854L18.0657 51.008L12.9878 52.0467L8.75622 54.9318L4.48626 58.1247L2.33203 63.2218L4.17856 68.4343Z" fill="#FF94FF"/>
</svg>
