<svg width="61" height="57" viewBox="0 0 61 57" fill="none" xmlns="http://www.w3.org/2000/svg">
<g clip-path="url(#clip0_984_9348)">
<path d="M2.10114 0.647949H58.1454C59.2372 0.647949 60.1233 1.53401 60.1233 2.62577V15.8099H0.123291V2.62577C0.123291 1.53401 1.00937 0.647949 2.10114 0.647949Z" fill="#00A362"/>
<path d="M0.123291 14.9357H60.1233V54.6701C60.1233 55.7618 59.2372 56.6479 58.1454 56.6479H2.10114C1.00937 56.6479 0.123291 55.7618 0.123291 54.6701V14.9357Z" fill="#14D284"/>
<path d="M24.53 10.4659C26.0374 10.4659 27.2594 9.24387 27.2594 7.73647C27.2594 6.22907 26.0374 5.00708 24.53 5.00708C23.0225 5.00708 21.8005 6.22907 21.8005 7.73647C21.8005 9.24387 23.0225 10.4659 24.53 10.4659Z" fill="white"/>
<path d="M15.9421 10.4659C17.4495 10.4659 18.6715 9.24387 18.6715 7.73647C18.6715 6.22907 17.4495 5.00708 15.9421 5.00708C14.4347 5.00708 13.2126 6.22907 13.2126 7.73647C13.2126 9.24387 14.4347 10.4659 15.9421 10.4659Z" fill="white"/>
<path d="M7.35028 10.4659C8.8577 10.4659 10.0797 9.24387 10.0797 7.73647C10.0797 6.22907 8.8577 5.00708 7.35028 5.00708C5.84286 5.00708 4.62085 6.22907 4.62085 7.73647C4.62085 9.24387 5.84286 10.4659 7.35028 10.4659Z" fill="white"/>
<path d="M30.9703 30.0321C32.2053 26.9709 30.9218 23.5676 28.1036 22.4307C25.2854 21.2938 21.9997 22.8538 20.7647 25.9151C19.5297 28.9764 20.8132 32.3796 23.6314 33.5165C26.4495 34.6534 29.7353 33.0934 30.9703 30.0321Z" fill="white"/>
<path d="M25.966 29.9378C26.727 28.0516 25.9363 25.9547 24.2 25.2543C22.4637 24.5538 20.4393 25.5151 19.6783 27.4013C18.9174 29.2875 19.7081 31.3843 21.4444 32.0848C23.1807 32.7852 25.2051 31.824 25.966 29.9378Z" fill="black"/>
<path d="M39.1483 33.6427C40.3833 30.5815 39.0998 27.1782 36.2816 26.0413C33.4634 24.9044 30.1777 26.4644 28.9427 29.5257C27.7077 32.587 28.9911 35.9902 31.8093 37.1271C34.6275 38.264 37.9133 36.704 39.1483 33.6427Z" fill="white"/>
<path d="M34.4331 33.702C35.194 31.8158 34.4033 29.7189 32.667 29.0184C30.9307 28.318 28.9063 29.2792 28.1454 31.1654C27.3844 33.0516 28.1751 35.1485 29.9114 35.849C31.6477 36.5494 33.6721 35.5882 34.4331 33.702Z" fill="black"/>
<path d="M23.98 40.1252C27.999 43.3689 33.8455 44.164 38.5844 42.1149" stroke="black" stroke-width="3" stroke-linecap="round" stroke-linejoin="round"/>
</g>
<defs>
<clipPath id="clip0_984_9348">
<rect width="60" height="56" fill="white" transform="translate(0.123291 0.647949)"/>
</clipPath>
</defs>
</svg>
