<svg width="64" height="57" viewBox="0 0 64 57" fill="none" xmlns="http://www.w3.org/2000/svg">
<g clip-path="url(#clip0_984_9338)">
<path d="M58.3865 5.58019C51.1878 -1.5891 39.5345 -1.61321 32.3036 5.50383C25.0767 -1.61321 13.4234 -1.5891 6.22474 5.58019C-0.99809 12.7736 -0.99809 24.4397 6.22474 31.6372L31.4683 55.8496C31.9364 56.2997 32.6788 56.2997 33.1469 55.8496L58.3905 31.6372C65.6133 24.4438 65.6133 12.7776 58.3905 5.58019H58.3865Z" fill="#FF2614"/>
<path d="M30.7581 22.7938C32.0229 20.2772 30.9061 17.1692 28.2636 15.852C25.6212 14.5347 22.4537 15.5069 21.1888 18.0235C19.924 20.5401 21.0408 23.6481 23.6833 24.9654C26.3258 26.2826 29.4933 25.3104 30.7581 22.7938Z" fill="white"/>
<path d="M37.5354 27.8658C38.8003 25.3492 37.6835 22.2413 35.041 20.924C32.3985 19.6067 29.231 20.5789 27.9662 23.0955C26.7014 25.6121 27.8182 28.7201 30.4607 30.0374C33.1031 31.3547 36.2706 30.3824 37.5354 27.8658Z" fill="white"/>
<path d="M22.2884 28.4705C21.9171 29.5033 21.8768 30.8174 22.6515 31.597C23.7571 32.7061 25.7263 32.2842 26.4768 31.4804" stroke="black" stroke-width="2.5" stroke-linecap="round" stroke-linejoin="round"/>
<path d="M29.0157 19.4971C29.8037 17.9292 29.1081 15.9929 27.4621 15.1724C25.816 14.3518 23.8428 14.9576 23.0548 16.5255C22.2667 18.0935 22.9623 20.0297 24.6084 20.8503C26.2545 21.6709 28.2277 21.065 29.0157 19.4971Z" fill="black"/>
<path d="M36.0892 24.6922C36.8772 23.1243 36.1816 21.188 34.5356 20.3674C32.8895 19.5469 30.9163 20.1527 30.1283 21.7206C29.3402 23.2885 30.0358 25.2248 31.6819 26.0453C33.328 26.8659 35.3012 26.2601 36.0892 24.6922Z" fill="black"/>
</g>
<defs>
<clipPath id="clip0_984_9338">
<rect width="63" height="56" fill="white" transform="translate(0.805664 0.183105)"/>
</clipPath>
</defs>
</svg>
