<svg width="86" height="81" viewBox="0 0 86 81" fill="none" xmlns="http://www.w3.org/2000/svg">
<path d="M5.96422 79.6829L7.81235 79.8674L9.66233 80.129L11.5108 79.5585L13.3658 79.3881L15.2127 79.5448L17.0557 80.1612L18.9029 80.0355L20.7486 79.5505L22.5965 79.4034L24.4387 79.6391L26.2925 79.9842L28.1462 79.9271L29.9912 79.4635L31.8429 79.8727L33.6965 79.8862L35.5381 79.5294L37.3858 79.5941L39.2371 79.8129L41.0918 79.9249L42.9389 79.8698L44.7803 79.7247L46.6094 79.0188L48.4622 79.1243L50.3141 79.3924L52.1466 79.0523L54.0004 79.3974L55.8425 79.231L57.6788 78.9745L59.5074 78.6215L61.3536 78.7995L63.1892 78.635L65.0621 79.2566L66.88 78.6317L68.7454 79.0862L70.5558 78.2236L72.413 78.4619L74.2468 78.1497L76.1091 78.4287L77.967 78.575L79.7919 78.068L81.696 77.7773L83.4972 76.9315L84.8474 75.4085L84.8799 73.3669L85.4631 71.4368L84.8223 69.4895L83.6587 68.0433L82.7183 66.4672L81.4258 65.0876L80.7282 63.3759L79.9407 61.7191L78.9697 60.1592L78.5214 58.3099L77.0733 57.0258L76.0912 55.4763L75.5993 53.647L74.8971 51.9438L73.8649 50.4161L72.6817 48.9757L71.9405 47.2841L71.0372 45.6899L70.0005 44.1707L69.1323 42.552L68.2049 40.9721L66.5688 37.6909L65.1579 36.3887L64.222 34.8043L63.7366 32.9731L63.0148 31.2756L61.9235 29.7867L61.1711 28.1054L59.7491 26.8136L59.0931 25.0754L58.0889 23.5466L57.306 21.8814L55.8879 20.6025L55.0438 18.9696L54.0526 17.4369L53.1318 15.855L52.4035 14.1595L51.728 12.4271L50.6516 10.9409L49.5576 9.46693L48.7857 7.7914L47.6852 6.31938L46.7357 4.76016L45.6092 3.29587L44.4621 1.59781L42.5347 0.865404L40.5508 0.55899L38.6211 1.0478L36.6964 1.78914L35.4514 3.45025L34.6455 5.0867L33.6518 6.6167L33.4035 8.55308L32.4331 10.0902L30.9812 11.3684L30.7329 13.3047L29.4688 14.6893L28.6947 16.3375L27.9713 18.0129L26.6416 19.3676L26.0852 21.1274L25.4191 22.8282L24.4207 24.3666L23.9216 26.1518L22.896 27.6701L21.5428 29.0176L21.0053 30.793L20.5569 32.6054L19.5313 34.1237L18.9177 35.8582L17.742 37.3012L17.2364 39.0883L15.8598 40.4287L15.5699 42.321L14.2713 43.7088L13.8632 45.5374L12.939 47.1103L12.072 48.7084L11.1796 50.293L10.5726 52.0255L9.94669 53.7425L8.89962 55.2602L8.39854 57.0388L7.42558 58.5909L6.44416 60.1384L5.27036 61.5879L5.11637 63.5315L4.23246 65.1206L3.07556 66.5791L2.66353 68.3948L1.87907 70.032L0.866474 71.5464L0.0941666 73.3422L0.804641 75.1912L1.03831 77.1042L2.54501 78.3003L4.05695 79.4666L5.96422 79.6829Z" fill="#8C8CFF"/>
<path d="M50.4799 48.0743L50.7949 49.9279L50.5252 51.793L49.9741 53.5936L48.9691 55.2045L47.5562 56.4711L45.9421 57.4447L44.202 58.1876L42.3248 58.4491L40.4271 58.3358L38.64 57.7169L36.9592 56.8618L35.5756 55.5798L34.481 54.0566L33.8237 52.2906L33.5926 50.4332L33.7465 48.5602L34.3425 46.7674L35.4124 45.2077L36.7415 43.8743L38.3317 42.8444L40.1022 42.1559L41.9988 42.0297L43.8764 42.0996L45.672 42.6525L47.3932 43.4532L48.8185 44.7088L49.8486 46.3005L50.4799 48.0743Z" fill="white"/>
<path d="M64.1928 47.1103L64.3439 48.9844L64.2265 50.8607L63.6408 52.6645L62.5898 54.2398L61.208 55.5394L59.614 56.5564L57.8422 57.217L55.9713 57.5472L54.0816 57.3187L52.2442 56.8629L50.5648 55.965L49.1616 54.6888L48.0657 53.1378L47.4651 51.3479L47.1202 49.489L47.3261 47.6005L47.9586 45.811L49.1188 44.3162L50.3459 42.8791L51.9653 41.8758L53.765 41.2845L55.6383 41.0805L57.5283 41.0973L59.3199 41.7078L61.0391 42.5021L62.3714 43.8488L63.4855 45.3662L64.1928 47.1103Z" fill="white"/>
<path d="M52.1531 68.8204C52.088 68.8397 52.0164 68.861 51.9475 68.8673L50.3075 69.1642C49.9855 69.2247 49.6513 69.197 49.3347 69.0865L47.6646 68.5034C47.3948 68.4072 47.142 68.2495 46.94 68.0485L45.689 66.7835C45.5662 66.6577 45.4506 66.5086 45.3676 66.3498L44.515 64.783C44.0115 63.8602 44.3615 62.712 45.2883 62.2108C46.2105 61.718 47.3684 62.0583 47.8719 62.981L48.5882 64.3062L49.3397 65.0635L50.1153 65.3339L50.9083 65.19L51.7167 64.6957L52.2848 63.9202L52.6194 62.6495C52.8899 61.6379 53.9273 61.0332 54.95 61.3007C55.9662 61.5702 56.5737 62.6032 56.3051 63.6214L55.8738 65.2311C55.815 65.4603 55.7094 65.6751 55.5745 65.8633L54.5732 67.2263C54.4272 67.4249 54.2436 67.5923 54.0288 67.7267L52.5917 68.6053C52.4472 68.6906 52.2969 68.7565 52.1407 68.8029L52.1531 68.8204Z" fill="black"/>
<path d="M44.9278 45.8651L45.0799 47.5061L44.5921 49.0692L43.7422 50.4647L42.4902 51.5352L40.976 52.204L39.3258 52.3487L37.6944 52.0363L36.2796 51.1939L35.1045 50.0403L34.5283 48.4972L34.3476 46.8788L34.7249 45.278L35.6488 43.9169L36.9067 42.8658L38.4144 42.199L40.0646 42.0542L41.6947 42.3388L43.1004 43.1981L44.2449 44.3677L44.9278 45.8651Z" fill="black"/>
<path d="M59.0533 44.7643L59.1989 46.4072L58.7326 47.971L57.9223 49.4041L56.6184 50.4196L55.1145 51.0993L53.463 51.2162L51.8492 50.8915L50.4071 50.0996L49.2717 48.9131L48.6362 47.4087L48.4861 45.7741L48.931 44.2097L49.7912 42.8252L51.0205 41.7261L52.5724 41.1591L54.1991 41.0072L55.8261 41.2575L57.2656 42.0643L58.4029 43.2573L59.0533 44.7643Z" fill="black"/>
</svg>
