<svg width="100%" height="100%" viewBox="0 0 132 24" fill="none" xmlns="http://www.w3.org/2000/svg">
<g clip-path="url(#clip0_1671_786)">
<path d="M2.7253 11.733L7.99322 18.235L9.54041 17.027L5.0666 11.6212L8.92527 6.7447L7.35571 5.60015L2.7253 11.733ZM0 0.939923V17.9292H2.00576V0.5L0 0.939923Z" fill="black"/>
<path d="M11.3263 14.6966C11.2935 14.1707 11.3862 13.6446 11.5969 13.1616C11.8076 12.6787 12.1302 12.2528 12.5379 11.9191C13.3432 11.2828 14.5163 10.9635 16.0573 10.961H18.3725V10.193C18.3725 8.33136 17.5573 7.40056 15.9268 7.40056C15.3718 7.40561 14.8195 7.47949 14.2827 7.62052C13.7407 7.75799 13.2118 7.94261 12.702 8.17229L12.1129 6.7444C12.7198 6.40043 13.369 6.13722 14.0441 5.96148C14.7004 5.7827 15.3771 5.68996 16.0573 5.6856C18.8833 5.67565 20.2963 7.19302 20.2963 10.2377V17.9289H18.805L18.5664 16.6092C17.9924 17.0793 17.3483 17.4567 16.6576 17.7276C16.0456 17.9792 15.3917 18.1133 14.7301 18.1228C14.2735 18.1488 13.8163 18.0812 13.3868 17.9242C12.9572 17.7671 12.5643 17.5239 12.2322 17.2094C11.9195 16.8726 11.678 16.4761 11.5223 16.0436C11.3666 15.6112 11.3 15.1517 11.3263 14.6929M15.0917 16.4973C15.3811 16.4954 15.6691 16.4579 15.9492 16.3855C16.2523 16.3115 16.55 16.2168 16.8402 16.1021C17.1314 15.9855 17.4109 15.842 17.6754 15.6734C17.9224 15.5129 18.1556 15.3321 18.3725 15.1328V12.3218H16.2847C15.2284 12.3218 14.4579 12.5044 13.9733 12.8698C13.718 13.0777 13.5168 13.3443 13.387 13.6468C13.2571 13.9494 13.2025 14.2789 13.2276 14.6071C13.2276 15.8673 13.849 16.4973 15.0917 16.4973Z" fill="black"/>
<path d="M25.8661 17.9292H23.8604V0.939923L25.8661 0.5V17.9292ZM31.2272 5.60015L32.7968 6.7447L28.9381 11.6361L33.4119 17.0419L31.8536 18.235L26.5782 11.733L31.2272 5.60015Z" fill="black"/>
<path d="M35.1866 14.6966C35.1539 14.1711 35.2464 13.6454 35.4564 13.1625C35.6664 12.6797 35.9879 12.2536 36.3945 11.9191C37.2035 11.2816 38.3742 10.961 39.9176 10.961H42.2291V10.193C42.2291 8.33136 41.4151 7.40056 39.7871 7.40056C39.2309 7.4053 38.6773 7.47918 38.1393 7.62052C37.5973 7.75799 37.0684 7.94261 36.5585 8.17229L35.9546 6.7444C36.5618 6.40104 37.2109 6.13787 37.8858 5.96148C38.5433 5.78246 39.2213 5.68972 39.9027 5.6856C42.7386 5.67565 44.1566 7.19302 44.1566 10.2377V17.9289H42.6653L42.4267 16.6092C41.8527 17.0793 41.2086 17.4567 40.5179 17.7276C39.9059 17.9792 39.252 18.1133 38.5904 18.1228C38.1338 18.1488 37.6766 18.0812 37.2471 17.9242C36.8175 17.7671 36.4246 17.5239 36.0925 17.2094C35.7804 16.8723 35.5397 16.4756 35.3846 16.0432C35.2296 15.6108 35.1635 15.1515 35.1903 14.6929M38.9371 16.501C39.2277 16.4992 39.5169 16.4616 39.7983 16.3892C40.1002 16.3152 40.3967 16.2205 40.6856 16.1059C40.9771 15.99 41.2568 15.8465 41.5208 15.6771C41.7678 15.5166 42.001 15.3358 42.2179 15.1365V12.3255H40.1339C39.0751 12.3255 38.3033 12.5082 37.8187 12.8735C37.5668 13.0834 37.3692 13.3508 37.2426 13.6532C37.1161 13.9557 37.0643 14.2842 37.0917 14.6109C37.0917 15.871 37.7068 16.501 38.9371 16.501Z" fill="black"/>
<path d="M52.2166 5.71191C53.8719 5.71191 55.1768 6.25251 56.12 7.33741C57.0632 8.42231 57.5367 9.97323 57.5367 11.9939C57.5367 14.0146 57.0707 15.5208 56.1312 16.587C55.1917 17.6533 53.8943 18.1939 52.2166 18.1939C50.5389 18.1939 49.2601 17.657 48.3132 16.587C47.3662 15.517 46.8965 13.9773 46.8965 11.9939C46.8965 10.0105 47.3737 8.41858 48.3244 7.33741C49.2751 6.25623 50.5613 5.71191 52.2166 5.71191ZM52.2166 7.33741C51.7476 7.31469 51.2805 7.41157 50.8592 7.61896C50.4379 7.82634 50.0762 8.13742 49.8082 8.52297C49.249 9.31334 48.9694 10.4728 48.9694 11.9939C48.9694 13.515 49.249 14.6446 49.8082 15.4127C50.1004 15.7739 50.4696 16.0652 50.8889 16.2654C51.3082 16.4655 51.7669 16.5694 52.2315 16.5694C52.6961 16.5694 53.1548 16.4655 53.5741 16.2654C53.9934 16.0652 54.3627 15.7739 54.6548 15.4127C55.2141 14.6446 55.4937 13.5051 55.4937 11.9939C55.4937 10.4728 55.2141 9.31334 54.6548 8.52297C54.3833 8.13564 54.0177 7.82365 53.5925 7.61628C53.1674 7.40891 52.6965 7.31295 52.2241 7.33741" fill="black"/>
<path d="M60.6201 16.9785L62.857 14.7416L65.0939 16.9785L62.857 19.2155L60.6201 16.9785ZM61.0563 1.54761H64.6615L64.1805 12.4376H61.5708L61.0563 1.54761Z" fill="black"/>
<path d="M67.5547 5.76754H69.7319L70.1681 6.93446C71.1805 5.96411 72.5239 5.41499 73.9261 5.39844C75.3951 5.39844 76.4464 5.90175 77.0429 6.93446C78.0417 5.96178 79.377 5.41162 80.7711 5.39844C83.1758 5.39844 84.4993 6.77415 84.4993 9.8238V17.8468H81.4011V10.0177C81.4011 8.66433 80.8941 8.09392 79.4737 8.09392C78.8173 8.09446 78.1661 8.21057 77.5499 8.43691V17.858H74.4779V10.0288C74.4779 8.67551 73.997 8.1051 72.5728 8.1051C71.91 8.11554 71.2531 8.23133 70.6267 8.4481V17.8692H67.5547V5.76754Z" fill="black"/>
<path d="M90.1848 17.9407V22.504H87.1128V5.76821H89.29L89.6629 6.77481C90.1143 6.31937 90.655 5.9621 91.251 5.72537C91.847 5.48865 92.4854 5.37757 93.1264 5.39911C96.2878 5.39911 97.712 7.76278 97.712 11.5879C97.712 15.6031 95.4192 18.1905 92.1384 18.1905C91.4785 18.2022 90.8205 18.1181 90.1848 17.9407ZM90.1848 8.31082V15.8082C90.5552 15.8607 90.9292 15.8832 91.3033 15.8753C93.734 15.8753 94.6027 14.2014 94.6027 11.5879C94.6027 9.35099 94.077 7.85972 92.0825 7.85972C91.4256 7.87762 90.7795 8.0312 90.1848 8.31082Z" fill="black"/>
<path d="M104.382 10.4875H106.309V10.0774C106.309 8.74643 105.895 7.9896 104.072 7.9896C102.937 7.97912 101.818 8.25479 100.818 8.79116L99.9675 6.68101C101.306 5.8367 102.858 5.39179 104.441 5.39851C107.536 5.39851 109.161 6.91216 109.161 10.0513V17.8469H107.006L106.663 16.8142C105.63 17.6545 104.348 18.1302 103.017 18.1675C100.657 18.1675 99.3486 16.7695 99.3486 14.3648C99.3598 11.8184 101.105 10.4875 104.382 10.4875ZM106.309 14.8196V12.4597H104.658C103.006 12.4597 102.134 13.1233 102.134 14.3238C102.134 15.1962 102.641 15.7703 103.647 15.7703C104.616 15.7585 105.552 15.424 106.309 14.8196Z" fill="black"/>
<path d="M120.368 8.51524C119.447 8.09057 118.445 7.87174 117.43 7.87399C115.645 7.87399 114.448 8.95143 114.448 11.796C114.448 14.6406 115.686 15.6696 117.725 15.6696C118.79 15.631 119.838 15.3985 120.819 14.9836L121.531 17.1124C120.205 17.8409 118.712 18.2122 117.199 18.1899C113.277 18.1899 111.354 15.8747 111.354 11.8184C111.354 7.92246 113.277 5.39848 117.244 5.39848C118.659 5.35274 120.058 5.70541 121.282 6.41627L120.368 8.51524Z" fill="black"/>
<path d="M122.393 5.99545L124.32 5.76804V3.33726L127.437 2.66992V5.76804H131.061V8.08324H127.437V13.3325C127.437 15.1966 127.918 15.5694 128.813 15.5694C129.496 15.5471 130.17 15.4084 130.807 15.1593L131.519 17.3142C130.435 17.9001 129.221 18.2063 127.989 18.2052C125.442 18.2052 124.32 16.6469 124.32 13.5525V8.08324H122.393V5.99545Z" fill="black"/>
</g>
<defs>
<clipPath id="clip0_1671_786">
<rect width="132" height="23" fill="white" transform="translate(0 0.5)"/>
</clipPath>
</defs>
</svg>
