<svg aria-hidden="true" width="129" height="106" viewBox="0 0 129 106" fill="none" xmlns="http://www.w3.org/2000/svg"><path d="M52.6198 32.0918L53.8893 37.1504L54.2931 42.3822L53.9469 47.6331L52.2543 52.634L49.7346 57.231L46.1571 61.0394L42.2333 64.5208L37.4055 66.5404L32.3276 67.8676L27.0958 67.7714L21.9027 66.8674L17.2864 64.3477L12.9394 61.4818L9.30412 57.7119L6.45748 53.3457L4.0532 48.6718L2.80304 43.5554L2.87993 38.3045L3.32229 33.1112L4.61107 28.0334L7.36156 23.5518L10.5736 19.4357L14.6706 16.1851L19.4984 14.1462L24.5954 13.1076L29.8079 12.896L34.982 13.8385L39.7713 16.0504L43.9451 19.2048L47.6381 22.9171L50.427 27.341L52.6198 32.0918Z" fill="white"></path><path class="eye_left" d="M31.3001 27.021L32.2425 32.0796L31.6848 37.1575L29.9922 42.0238L26.5684 45.9283L21.9715 48.3326L16.8936 48.9866L11.8926 47.9479L7.33412 45.5821L3.91048 41.7545L1.52545 37.1959L0.467468 32.1373L1.17924 27.0595L3.10267 22.3278L6.35315 18.3271L10.9502 16.0382L15.9896 15.2881L21.0674 15.9998L25.5683 18.5579L29.069 22.3855L31.3001 27.021Z" fill="black"></path><path d="M92.5091 19.8966L93.7016 24.9937L94.0287 30.2254L93.2978 35.3994L92.0282 40.4965L89.2393 44.9396L86.2195 49.2481L82.0072 52.4218L77.1024 54.2875L72.0823 55.7108L66.8506 55.48L61.6766 54.653L56.8295 52.5756L52.5787 49.4597L48.9627 45.6321L46.3275 41.1313L43.8464 36.515L42.4807 31.4179L42.2499 26.1477L43.1347 20.993L44.4811 15.9343L47.1162 11.4335L50.5015 7.5097L54.4252 4.04756L59.2915 2.16258L64.3309 0.893136L69.5626 0.739258L74.602 2.04717L79.3144 4.23988L83.719 7.0481L87.4313 10.7411L90.278 15.1457L92.5091 19.8966Z" fill="white"></path><path class="eye_right" d="M72.5759 14.5201L73.4799 19.5787L73.1144 24.7335L70.9987 29.4267L67.7481 33.4274L63.1318 35.6971L58.0924 36.5241L53.0723 35.5432L48.6485 32.9658L45.1671 29.2343L42.5896 24.7527L41.8202 19.6557L42.3203 14.5586L44.2437 9.78847L47.6867 5.99932L52.1106 3.4604L57.1885 2.72949L62.2662 3.55658L66.7479 6.13397L70.3062 9.88465L72.5759 14.5201Z" fill="black"></path><path class="mouth" d="M100.7 40.9147C100.97 37.9472 103.594 35.7599 106.561 36.0298C109.529 36.2998 111.714 38.9244 111.445 41.8917L110.981 46.9934C110.978 47.0233 110.976 47.0532 110.973 47.083L110.423 52.1814C110.404 52.3616 110.375 52.5407 110.337 52.718L109.273 57.7476C109.215 58.0235 109.136 58.2951 109.035 58.5585L107.199 63.3595C107.192 63.3773 107.185 63.3963 107.178 63.414L105.292 68.1958C105.227 68.3603 105.152 68.5214 105.072 68.6787L102.732 73.2416C102.684 73.3352 102.633 73.4278 102.579 73.5184L99.9691 77.9462C99.9123 78.0425 99.8531 78.1375 99.7904 78.2301L96.9138 82.4817C96.7768 82.6842 96.6258 82.8781 96.4626 83.0602L93.0385 86.8797C92.9599 86.9674 92.878 87.0529 92.7939 87.1353L89.1226 90.7291C89.0984 90.7528 89.0732 90.7755 89.0485 90.7987L85.3214 94.3124C85.1482 94.4756 84.9627 94.626 84.7695 94.7649L80.6207 97.7501C80.5422 97.8066 80.4622 97.8612 80.3807 97.9134L76.0688 100.673C75.9719 100.735 75.8723 100.795 75.7717 100.851L71.3116 103.321C68.7047 104.764 65.4204 103.82 63.9772 101.213C62.5343 98.6061 63.4789 95.3233 66.0856 93.8802L70.3816 91.4993L74.44 88.9007L78.1816 86.2119L81.5745 83.0157L85.1266 79.538L88.1816 76.1294L90.7555 72.3273L93.2063 68.1668L95.3475 63.9929L97.1406 59.453L98.8047 55.0952L99.7218 50.7565L100.244 45.9268L100.7 40.9147Z" fill="black"></path></svg>