<svg width="57" height="57" viewBox="0 0 57 57" fill="none" xmlns="http://www.w3.org/2000/svg">
<g clip-path="url(#clip0_984_9391)">
<path d="M28.7524 56.7921C44.2164 56.7921 56.7524 44.2561 56.7524 28.7921C56.7524 13.3281 44.2164 0.792114 28.7524 0.792114C13.2885 0.792114 0.752441 13.3281 0.752441 28.7921C0.752441 44.2561 13.2885 56.7921 28.7524 56.7921Z" fill="#FA08D7"/>
<path d="M25.2668 42.7438C25.2668 42.7438 25.2185 42.7438 25.1992 42.7438C23.8765 42.6087 22.7082 41.8266 22.0613 40.6583L15.9109 29.5259C14.8199 27.5563 15.5344 25.0845 17.5041 23.9935C19.4737 22.9025 21.9551 23.6266 23.0365 25.5866L26.3675 31.6114L36.9013 19.4652C38.3785 17.7659 40.9468 17.5825 42.6461 19.0597C44.3454 20.5369 44.5289 23.1052 43.0516 24.8045L28.6944 41.3535C27.8351 42.3383 26.5606 42.8597 25.2572 42.7438H25.2668Z" fill="white"/>
</g>
<defs>
<clipPath id="clip0_984_9391">
<rect width="56" height="56" fill="white" transform="translate(0.752441 0.792114)"/>
</clipPath>
</defs>
</svg>
