<svg width="57" height="57" viewBox="0 0 57 57" fill="none" xmlns="http://www.w3.org/2000/svg">
<g clip-path="url(#clip0_984_9369)">
<path d="M56.2845 50.0806L47.6246 41.4206C50.6808 37.0394 52.4139 31.6649 52.2276 25.8766C51.7915 12.2466 40.6045 1.22173 26.9707 0.977605C12.379 0.716707 0.49698 12.5969 0.757878 27.1886C1.002 40.8243 12.025 52.0112 25.6569 52.4473C31.447 52.6318 36.8196 50.8987 41.2009 47.8443L49.8608 56.5043C50.4889 57.1323 51.5045 57.1323 52.1325 56.5043L56.2845 52.3522C56.9126 51.7242 56.9126 50.7086 56.2845 50.0806Z" fill="#C9C9FF"/>
<path d="M26.4974 46.1653C37.2383 46.1653 45.9456 37.4581 45.9456 26.7172C45.9456 15.9763 37.2383 7.26904 26.4974 7.26904C15.7565 7.26904 7.04932 15.9763 7.04932 26.7172C7.04932 37.4581 15.7565 46.1653 26.4974 46.1653Z" fill="#6464FF"/>
<path d="M25.9161 24.4319C26.9227 22.4209 26.0338 19.9373 23.9308 18.8847C21.8278 17.832 19.307 18.6089 18.3004 20.6199C17.2938 22.6309 18.1826 25.1145 20.2856 26.1671C22.3887 27.2198 24.9095 26.4429 25.9161 24.4319Z" fill="white"/>
<path d="M31.3135 28.4822C32.3201 26.4712 31.4313 23.9876 29.3283 22.935C27.2252 21.8823 24.7044 22.6592 23.6978 24.6702C22.6912 26.6812 23.5801 29.1647 25.6831 30.2174C27.7861 31.2701 30.3069 30.4932 31.3135 28.4822Z" fill="white"/>
<path d="M19.1754 28.9683C18.8791 29.7938 18.8474 30.843 19.4642 31.4654C20.342 32.3506 21.9111 32.0133 22.5093 31.3723" stroke="black" stroke-width="2.5" stroke-linecap="round" stroke-linejoin="round"/>
<path d="M24.5316 21.7966C25.159 20.543 24.6052 18.9951 23.2946 18.3391C21.984 17.683 20.413 18.1674 19.7855 19.421C19.1581 20.6745 19.7119 22.2225 21.0224 22.8785C22.333 23.5345 23.9041 23.0501 24.5316 21.7966Z" fill="black"/>
<path d="M30.1632 25.9484C30.7906 24.6949 30.2368 23.1469 28.9262 22.4909C27.6156 21.8349 26.0445 22.3193 25.4171 23.5728C24.7897 24.8263 25.3434 26.3743 26.654 27.0303C27.9646 27.6863 29.5357 27.202 30.1632 25.9484Z" fill="black"/>
</g>
<defs>
<clipPath id="clip0_984_9369">
<rect width="56" height="56" fill="white" transform="translate(0.75415 0.973877)"/>
</clipPath>
</defs>
</svg>
