<svg width="40" height="40" viewBox="0 0 40 40" fill="none" xmlns="http://www.w3.org/2000/svg">
<rect width="40" height="40" rx="12" fill="white"/>
<mask id="mask0_970_13729" style="mask-type:luminance" maskUnits="userSpaceOnUse" x="4" y="13" width="33" height="14">
<path d="M36.0007 13.332H4V26.6654H36.0007V13.332Z" fill="white"/>
</mask>
<g mask="url(#mask0_970_13729)">
<path fill-rule="evenodd" clip-rule="evenodd" d="M29.3348 26.6654H10.6675C6.9838 26.6654 4 23.6816 4 19.9995C4 16.3175 6.98543 13.332 10.6675 13.332H29.3348C33.0169 13.332 36.0023 16.3175 36.0023 19.9995C36.0023 23.6816 33.0185 26.667 29.3348 26.667" fill="#FFEB00"/>
<path fill-rule="evenodd" clip-rule="evenodd" d="M11.4905 16.5312C9.48196 16.5312 7.85156 17.8183 7.85156 19.4056C7.85156 20.4256 8.5266 21.3213 9.54 21.8321L9.19666 23.1125C9.1834 23.1523 9.19503 23.1938 9.22323 23.222C9.24313 23.2419 9.26966 23.2519 9.29786 23.2519C9.31943 23.2519 9.34096 23.2436 9.36086 23.2286L10.8354 22.2334C11.0493 22.2633 11.2683 22.2816 11.4905 22.2816C13.499 22.2816 15.1294 20.9945 15.1294 19.4073C15.1294 17.82 13.5007 16.5329 11.4905 16.5329V16.5312Z" fill="black"/>
<path d="M18.1969 21.7935V23.6494H16.875V16.8045H17.8071L17.9697 17.239C18.25 16.9587 18.6762 16.6602 19.3645 16.6602C20.6599 16.6602 21.2752 17.6288 21.2653 19.1945C21.2653 20.8332 20.3149 21.883 18.9565 21.883C18.6945 21.883 18.4954 21.8648 18.1969 21.7918V21.7935ZM18.1969 17.9091V20.8697C18.2699 20.8779 18.4506 20.8962 18.6231 20.8962C19.5652 20.8962 19.9268 20.2361 19.9268 19.1945C19.9268 18.2806 19.683 17.7283 18.9316 17.7283C18.6878 17.7283 18.4158 17.8013 18.1985 17.9091H18.1969Z" fill="black"/>
<path d="M24.1431 18.7337H24.8944V18.5711C24.8944 18.0288 24.5859 17.775 24.0518 17.775C23.6438 17.775 23.1197 17.8928 22.6935 18.1018L22.3319 17.2144C22.8029 16.8877 23.5261 16.6621 24.1696 16.6621C25.4367 16.6621 26.1251 17.3322 26.1251 18.6093V21.7506H25.1929L25.0569 21.3343C24.5229 21.7241 24.0336 21.8866 23.5907 21.8866C22.6221 21.8866 22.0781 21.3078 22.0781 20.3292C22.0781 19.2876 22.8029 18.7353 24.1414 18.7353L24.1431 18.7337ZM24.8944 20.4802V19.5746H24.2873C23.609 19.5746 23.264 19.8184 23.264 20.3077C23.264 20.6792 23.4547 20.86 23.8428 20.86C24.2044 20.86 24.6672 20.6792 24.8927 20.4802H24.8944Z" fill="black"/>
<path d="M30.1237 21.2433C29.6627 22.4739 29.1103 23.3712 28.3043 23.8688L27.4899 23.1175C27.9609 22.7095 28.296 22.3114 28.5846 21.7773L26.8281 16.989L28.1401 16.6357L29.2629 20.5201L30.3758 16.6191L31.6712 16.9807L30.1237 21.2449V21.2433Z" fill="black"/>
</g>
</svg>
