<svg width="39" height="39" viewBox="0 0 39 39" fill="none" xmlns="http://www.w3.org/2000/svg">
<rect x="0.666504" y="0.0820312" width="38" height="38" rx="19" fill="#414141"/>
<g clip-path="url(#clip0_2199_55328)">
<mask id="mask0_2199_55328" style="mask-type:luminance" maskUnits="userSpaceOnUse" x="10" y="9" width="19" height="20">
<path fill-rule="evenodd" clip-rule="evenodd" d="M10.5479 9.96484H28.7879V28.2048H10.5479V9.96484Z" fill="white"/>
</mask>
<g mask="url(#mask0_2199_55328)">
<path fill-rule="evenodd" clip-rule="evenodd" d="M19.6679 9.96484C17.191 9.96484 16.8804 9.97529 15.9077 10.0197C14.9369 10.064 14.274 10.2182 13.6939 10.4436C13.0942 10.6766 12.5855 10.9885 12.0785 11.4955C11.5715 12.0026 11.2596 12.5112 11.0266 13.1108C10.8011 13.691 10.647 14.3539 10.6027 15.3247C10.5583 16.2974 10.5479 16.608 10.5479 19.0848C10.5479 21.5617 10.5583 21.8722 10.6027 22.845C10.647 23.8157 10.8011 24.4787 11.0266 25.0588C11.2596 25.6584 11.5715 26.1671 12.0785 26.6741C12.5855 27.1811 13.0942 27.493 13.6939 27.726C14.274 27.9515 14.9369 28.1056 15.9077 28.15C16.8804 28.1943 17.191 28.2048 19.6679 28.2048C22.1447 28.2048 22.4552 28.1943 23.428 28.15C24.3987 28.1056 25.0616 27.9515 25.6418 27.726C26.2415 27.493 26.7501 27.1811 27.2571 26.6741C27.7641 26.1671 28.076 25.6585 28.3091 25.0588C28.5345 24.4787 28.6887 23.8157 28.733 22.845C28.7773 21.8722 28.7879 21.5617 28.7879 19.0848C28.7879 16.608 28.7773 16.2974 28.733 15.3247C28.6887 14.3539 28.5345 13.691 28.3091 13.1108C28.076 12.5112 27.7641 12.0026 27.2571 11.4955C26.7501 10.9885 26.2415 10.6766 25.6418 10.4436C25.0616 10.2182 24.3987 10.064 23.428 10.0197C22.4552 9.97529 22.1447 9.96484 19.6679 9.96484ZM19.6678 11.608C22.1029 11.608 22.3913 11.6173 23.3531 11.6611C24.2422 11.7018 24.7251 11.8504 25.0464 11.9752C25.4722 12.1407 25.776 12.3383 26.0952 12.6574C26.4143 12.9766 26.6119 13.2803 26.7773 13.7061C26.9022 14.0274 27.0508 14.5104 27.0914 15.3996C27.1352 16.3612 27.1445 16.6497 27.1445 19.0848C27.1445 21.5199 27.1352 21.8084 27.0914 22.7701C27.0508 23.6593 26.9022 24.1422 26.7773 24.4635C26.6119 24.8892 26.4143 25.193 26.0952 25.5121C25.776 25.8313 25.4722 26.0289 25.0464 26.1943C24.7251 26.3192 24.2422 26.4678 23.3531 26.5084C22.3915 26.5522 22.1031 26.5616 19.6678 26.5616C17.2324 26.5616 16.944 26.5522 15.9826 26.5084C15.0934 26.4678 14.6104 26.3192 14.289 26.1943C13.8634 26.0289 13.5595 25.8313 13.2404 25.5121C12.9213 25.193 12.7237 24.8892 12.5582 24.4635C12.4334 24.1422 12.2848 23.6593 12.2442 22.7701C12.2003 21.8084 12.191 21.5199 12.191 19.0848C12.191 16.6497 12.2003 16.3612 12.2442 15.3996C12.2848 14.5104 12.4334 14.0274 12.5582 13.7061C12.7237 13.2803 12.9213 12.9766 13.2404 12.6575C13.5595 12.3383 13.8634 12.1407 14.289 11.9752C14.6104 11.8504 15.0934 11.7018 15.9825 11.6611C16.9442 11.6173 17.2326 11.608 19.6678 11.608Z" fill="#C1C1C1"/>
</g>
<path fill-rule="evenodd" clip-rule="evenodd" d="M19.9205 22.4612C18.195 22.4612 16.7961 21.0624 16.7961 19.3368C16.7961 17.6113 18.195 16.2124 19.9205 16.2124C21.6461 16.2124 23.045 17.6113 23.045 19.3368C23.045 21.0624 21.6461 22.4612 19.9205 22.4612ZM19.9203 14.5234C17.2619 14.5234 15.1069 16.6784 15.1069 19.3368C15.1069 21.9951 17.2619 24.1501 19.9203 24.1501C22.5786 24.1501 24.7336 21.9951 24.7336 19.3368C24.7336 16.6784 22.5786 14.5234 19.9203 14.5234Z" fill="#C1C1C1"/>
<path fill-rule="evenodd" clip-rule="evenodd" d="M25.7474 14.0172C25.7474 14.5769 25.2937 15.0306 24.734 15.0306C24.1744 15.0306 23.7207 14.5769 23.7207 14.0172C23.7207 13.4576 24.1744 13.0039 24.734 13.0039C25.2937 13.0039 25.7474 13.4576 25.7474 14.0172Z" fill="#C1C1C1"/>
</g>
<defs>
<clipPath id="clip0_2199_55328">
<rect width="38" height="38" fill="white" transform="translate(0.66748 0.0820312)"/>
</clipPath>
</defs>
</svg>
