<svg width="25" height="24" viewBox="0 0 25 24" fill="none" xmlns="http://www.w3.org/2000/svg">
<path d="M18.6336 11C19.2155 16.3755 21.5 18 21.5 18H3.5C3.5 18 6.5 15.8667 6.5 8.4C6.5 6.70261 7.13214 5.07475 8.25736 3.87452C9.38258 2.67428 10.9087 2 12.5 2C12.8373 2 13.1717 2.0303 13.5 2.08949" stroke="#1A1A1A" stroke-width="1.5" stroke-linecap="round" stroke-linejoin="round"/>
<path d="M19.5 8C21.1569 8 22.5 6.65685 22.5 5C22.5 3.34315 21.1569 2 19.5 2C17.8431 2 16.5 3.34315 16.5 5C16.5 6.65685 17.8431 8 19.5 8Z" stroke="#222222" stroke-width="1.5" stroke-linecap="round" stroke-linejoin="round"/>
<path d="M14.2295 21C14.0537 21.3031 13.8014 21.5547 13.4978 21.7295C13.1941 21.9044 12.8499 21.9965 12.4995 21.9965C12.1492 21.9965 11.8049 21.9044 11.5013 21.7295C11.1977 21.5547 10.9453 21.3031 10.7695 21" stroke="#222222" stroke-width="1.5" stroke-linecap="round" stroke-linejoin="round"/>
</svg>
